<svg width="250" height="249" viewBox="0 0 250 249" fill="none" xmlns="http://www.w3.org/2000/svg">
<path fill-rule="evenodd" clip-rule="evenodd" d="M200.581 240.246C228.231 217.747 245.895 183.447 245.895 145.02C245.895 77.254 190.959 22.3185 123.193 22.3185C55.4267 22.3185 0.491211 77.254 0.491211 145.02C0.491211 183.447 18.1547 217.747 45.8052 240.246H200.581Z" fill="#4A31FF" fill-opacity="0.08"/>
<mask id="path-2-inside-1_8822_79424" fill="white">
<path fill-rule="evenodd" clip-rule="evenodd" d="M160.7 37.3602C160.7 37.6598 160.697 37.9586 160.69 38.2565H160.7V125.572H86.444V38.2565H86.4547C86.4475 37.9586 86.444 37.6598 86.444 37.3602C86.444 16.9256 103.067 0.360046 123.572 0.360046C144.077 0.360046 160.7 16.9256 160.7 37.3602Z"/>
</mask>
<path fill-rule="evenodd" clip-rule="evenodd" d="M160.7 37.3602C160.7 37.6598 160.697 37.9586 160.69 38.2565H160.7V125.572H86.444V38.2565H86.4547C86.4475 37.9586 86.444 37.6598 86.444 37.3602C86.444 16.9256 103.067 0.360046 123.572 0.360046C144.077 0.360046 160.7 16.9256 160.7 37.3602Z" fill="white"/>
<path d="M160.69 38.2565L159.69 38.2327L159.665 39.2565H160.69V38.2565ZM160.7 38.2565H161.7V37.2565H160.7V38.2565ZM160.7 125.572V126.572H161.7V125.572H160.7ZM86.444 125.572H85.444V126.572H86.444V125.572ZM86.444 38.2565V37.2565H85.444V38.2565H86.444ZM86.4547 38.2565V39.2565H87.4788L87.4544 38.2327L86.4547 38.2565ZM161.689 38.2804C161.697 37.9745 161.7 37.6677 161.7 37.3602H159.7C159.7 37.6519 159.697 37.9427 159.69 38.2327L161.689 38.2804ZM160.7 37.2565H160.69V39.2565H160.7V37.2565ZM161.7 125.572V38.2565H159.7V125.572H161.7ZM86.444 126.572H160.7V124.572H86.444V126.572ZM85.444 38.2565V125.572H87.444V38.2565H85.444ZM86.4547 37.2565H86.444V39.2565H86.4547V37.2565ZM85.444 37.3602C85.444 37.6678 85.4476 37.9745 85.4549 38.2804L87.4544 38.2327C87.4474 37.9427 87.444 37.6518 87.444 37.3602H85.444ZM123.572 -0.639954C102.518 -0.639954 85.444 16.37 85.444 37.3602H87.444C87.444 17.4811 103.616 1.36005 123.572 1.36005V-0.639954ZM161.7 37.3602C161.7 16.37 144.626 -0.639954 123.572 -0.639954V1.36005C143.528 1.36005 159.7 17.4811 159.7 37.3602H161.7Z" fill="#4A31FF" mask="url(#path-2-inside-1_8822_79424)"/>
<mask id="path-4-inside-2_8822_79424" fill="white">
<path fill-rule="evenodd" clip-rule="evenodd" d="M156.775 32.0267C154.941 35.8631 151.025 38.5133 146.489 38.5133C140.196 38.5133 135.094 33.4118 135.094 27.1188C135.094 26.6417 135.124 26.1714 135.181 25.7097H117.79C111.639 25.7097 106.652 30.7195 106.652 36.8995V47.2617C105.375 46.4254 103.841 45.9382 102.191 45.9382C97.7368 45.9382 94.1256 49.492 94.1256 53.8759C94.1256 58.2598 97.7368 61.8137 102.191 61.8137C103.841 61.8137 105.375 61.3264 106.652 60.4901V82.5541H106.655V108.988H138.829V82.322C149.605 80.7542 157.884 71.4356 157.884 60.1744V36.8995C157.884 35.1529 157.485 33.4997 156.775 32.0267Z"/>
</mask>
<path fill-rule="evenodd" clip-rule="evenodd" d="M156.775 32.0267C154.941 35.8631 151.025 38.5133 146.489 38.5133C140.196 38.5133 135.094 33.4118 135.094 27.1188C135.094 26.6417 135.124 26.1714 135.181 25.7097H117.79C111.639 25.7097 106.652 30.7195 106.652 36.8995V47.2617C105.375 46.4254 103.841 45.9382 102.191 45.9382C97.7368 45.9382 94.1256 49.492 94.1256 53.8759C94.1256 58.2598 97.7368 61.8137 102.191 61.8137C103.841 61.8137 105.375 61.3264 106.652 60.4901V82.5541H106.655V108.988H138.829V82.322C149.605 80.7542 157.884 71.4356 157.884 60.1744V36.8995C157.884 35.1529 157.485 33.4997 156.775 32.0267Z" fill="white"/>
<path d="M156.775 32.0267L157.676 31.5924L156.771 29.7162L155.873 31.5955L156.775 32.0267ZM135.181 25.7097L136.173 25.8321L136.312 24.7097H135.181V25.7097ZM106.652 47.2617L106.105 48.0984L107.652 49.1113V47.2617H106.652ZM106.652 60.4901H107.652V58.6405L106.105 59.6534L106.652 60.4901ZM106.652 82.5541H105.652V83.5541H106.652V82.5541ZM106.655 82.5541H107.655V81.5541H106.655V82.5541ZM106.655 108.988H105.655V109.988H106.655V108.988ZM138.829 108.988V109.988H139.829V108.988H138.829ZM138.829 82.322L138.685 81.3324L137.829 81.4569V82.322H138.829ZM155.873 31.5955C154.199 35.0975 150.625 37.5133 146.489 37.5133V39.5133C151.424 39.5133 155.684 36.6287 157.677 32.458L155.873 31.5955ZM146.489 37.5133C140.748 37.5133 136.094 32.8595 136.094 27.1188H134.094C134.094 33.9641 139.644 39.5133 146.489 39.5133V37.5133ZM136.094 27.1188C136.094 26.6827 136.121 26.2533 136.173 25.8321L134.188 25.5872C134.126 26.0895 134.094 26.6007 134.094 27.1188H136.094ZM117.79 26.7097H135.181V24.7097H117.79V26.7097ZM107.652 36.8995C107.652 31.2674 112.195 26.7097 117.79 26.7097V24.7097C111.082 24.7097 105.652 30.1717 105.652 36.8995H107.652ZM107.652 47.2617V36.8995H105.652V47.2617H107.652ZM102.191 46.9382C103.641 46.9382 104.986 47.366 106.105 48.0984L107.2 46.425C105.764 45.4849 104.04 44.9382 102.191 44.9382V46.9382ZM95.1256 53.8759C95.1256 50.0593 98.2739 46.9382 102.191 46.9382V44.9382C97.1996 44.9382 93.1256 48.9247 93.1256 53.8759H95.1256ZM102.191 60.8137C98.2739 60.8137 95.1256 57.6925 95.1256 53.8759H93.1256C93.1256 58.8271 97.1996 62.8137 102.191 62.8137V60.8137ZM106.105 59.6534C104.986 60.3859 103.641 60.8137 102.191 60.8137V62.8137C104.04 62.8137 105.764 62.2669 107.2 61.3269L106.105 59.6534ZM107.652 82.5541V60.4901H105.652V82.5541H107.652ZM106.655 81.5541H106.652V83.5541H106.655V81.5541ZM107.655 108.988V82.5541H105.655V108.988H107.655ZM138.829 107.988H106.655V109.988H138.829V107.988ZM137.829 82.322V108.988H139.829V82.322H137.829ZM156.884 60.1744C156.884 70.9353 148.973 79.8356 138.685 81.3324L138.973 83.3116C150.237 81.6728 158.884 71.9359 158.884 60.1744H156.884ZM156.884 36.8995V60.1744H158.884V36.8995H156.884ZM155.874 32.4611C156.521 33.8014 156.884 35.3064 156.884 36.8995H158.884C158.884 34.9994 158.45 33.1981 157.676 31.5924L155.874 32.4611Z" fill="#4A31FF" mask="url(#path-4-inside-2_8822_79424)"/>
<path d="M117.493 81.4393H138.83V87.8723H123.926C120.373 87.8723 117.493 84.9922 117.493 81.4393Z" fill="#4A31FF"/>
<path fill-rule="evenodd" clip-rule="evenodd" d="M121.453 41.1192C120.772 41.3914 120.278 41.7628 120.003 42.1827C119.796 42.4983 119.369 42.589 119.049 42.3852C118.729 42.1814 118.637 41.7603 118.843 41.4447C119.319 40.7177 120.084 40.1981 120.934 39.8583C121.79 39.5165 122.778 39.3373 123.773 39.3207C125.731 39.2879 127.9 39.8891 129.156 41.379C129.399 41.668 129.359 42.0969 129.066 42.337C128.773 42.577 128.337 42.5373 128.094 42.2483C127.209 41.1977 125.528 40.652 123.796 40.681C122.946 40.6952 122.129 40.8491 121.453 41.1192Z" fill="#4A31FF"/>
<path fill-rule="evenodd" clip-rule="evenodd" d="M128.338 70.348C127.258 69.8984 126.475 69.2849 126.038 68.5912C125.711 68.0698 125.033 67.92 124.525 68.2567C124.017 68.5933 123.872 69.2889 124.199 69.8104C124.955 71.0113 126.167 71.8697 127.516 72.431C128.873 72.9958 130.44 73.2918 132.017 73.3193C135.122 73.3734 138.563 72.3803 140.554 69.9188C140.94 69.4414 140.876 68.7329 140.411 68.3363C139.946 67.9397 139.256 68.0053 138.87 68.4827C137.466 70.2184 134.801 71.1199 132.054 71.072C130.706 71.0485 129.41 70.7943 128.338 70.348Z" fill="#4A31FF"/>
<path fill-rule="evenodd" clip-rule="evenodd" d="M140.907 43.1812C140.32 42.742 139.939 42.2554 139.782 41.7787C139.664 41.4203 139.275 41.2222 138.913 41.3361C138.551 41.4501 138.353 41.833 138.471 42.1914C138.743 43.0168 139.347 43.7166 140.08 44.2649C140.818 44.8166 141.726 45.2454 142.683 45.5189C144.565 46.0573 146.817 46.0381 148.415 44.9239C148.725 44.7077 148.797 44.2831 148.576 43.9753C148.355 43.6675 147.924 43.5933 147.614 43.8094C146.487 44.5951 144.723 44.6873 143.057 44.211C142.24 43.9771 141.49 43.6171 140.907 43.1812Z" fill="#4A31FF"/>
<path fill-rule="evenodd" clip-rule="evenodd" d="M134.342 48.8843C134.555 48.75 134.836 48.8163 134.969 49.0322L134.582 49.2752C134.969 49.0322 134.969 49.0321 134.969 49.0322L134.973 49.0393L134.985 49.0585C134.995 49.0754 135.01 49.1001 135.03 49.1322C135.068 49.1966 135.124 49.2907 135.195 49.4112C135.337 49.652 135.536 49.9982 135.77 50.4213C136.236 51.2665 136.841 52.423 137.389 53.6622C137.935 54.8975 138.434 56.2345 138.679 57.4367C138.917 58.6059 138.945 59.7909 138.366 60.5948C137.296 62.0827 135.461 62.1656 134.061 61.9593C133.343 61.8534 132.689 61.6652 132.217 61.5049C131.98 61.4245 131.787 61.3504 131.652 61.296C131.585 61.2688 131.532 61.2464 131.495 61.2306C131.476 61.2227 131.462 61.2164 131.452 61.2119L131.44 61.2066L131.437 61.205L131.435 61.2045C131.435 61.2045 131.435 61.2042 131.622 60.7844L131.435 61.2042C131.205 61.0999 131.103 60.8273 131.206 60.5955C131.31 60.3637 131.579 60.2603 131.808 60.3645C131.808 60.3645 131.808 60.3645 131.808 60.3645M131.808 60.3645L131.81 60.3652L131.818 60.3686C131.825 60.3718 131.836 60.3769 131.852 60.3835C131.883 60.3968 131.929 60.4165 131.99 60.4409C132.111 60.4899 132.288 60.5579 132.507 60.6321C132.946 60.7811 133.544 60.9526 134.192 61.0482C135.525 61.2447 136.878 61.0974 137.63 60.0533C137.962 59.5912 138.018 58.7621 137.787 57.6222C137.561 56.5154 137.093 55.2485 136.557 54.038C136.024 52.8316 135.433 51.7006 134.974 50.8699C134.745 50.4549 134.55 50.1159 134.412 49.8811C134.343 49.7637 134.288 49.6725 134.251 49.6108C134.233 49.58 134.219 49.5565 134.209 49.541L134.198 49.5236L134.195 49.5185" fill="#4A31FF"/>
<path d="M126.404 50.799C126.404 51.8948 125.457 52.7831 124.288 52.7831C123.119 52.7831 122.172 51.8948 122.172 50.799C122.172 49.7031 123.119 48.8148 124.288 48.8148C125.457 48.8148 126.404 49.7031 126.404 50.799Z" fill="#4A31FF"/>
<path d="M145.718 50.799C145.718 51.8948 144.77 52.7831 143.602 52.7831C142.433 52.7831 141.485 51.8948 141.485 50.799C141.485 49.7031 142.433 48.8148 143.602 48.8148C144.77 48.8148 145.718 49.7031 145.718 50.799Z" fill="#4A31FF"/>
<path d="M32.355 186.425C30.5961 201.893 41.777 240.288 41.777 240.288L59.7322 240.288L56.0779 193.934L32.355 186.425Z" fill="white" stroke="#4A31FF" stroke-linecap="round" stroke-linejoin="round"/>
<path fill-rule="evenodd" clip-rule="evenodd" d="M138.982 88.3085C138.476 96.7425 131.481 103.426 122.927 103.426C114.373 103.426 107.378 96.7425 106.873 88.3085C97.3149 89.762 88.5394 93.4813 81.0785 98.8792C68.3867 106.444 44.9 128.476 28.1923 192.659L57.8032 200.759L60.6208 193.881L65.1451 240.246H180.709L187.787 167.71L198.514 181.177L224.673 165.111C184.999 98.6904 152.53 89.9182 141.741 88.7951C140.829 88.6119 139.909 88.4496 138.982 88.3085Z" fill="white"/>
<path d="M138.982 88.3085L139.057 87.8142C138.918 87.7931 138.776 87.8314 138.667 87.9197C138.558 88.0081 138.491 88.1384 138.482 88.2786L138.982 88.3085ZM106.873 88.3085L107.372 88.2786C107.363 88.1384 107.296 88.0081 107.187 87.9197C107.078 87.8314 106.936 87.7931 106.798 87.8142L106.873 88.3085ZM81.0785 98.8792L81.3345 99.3086C81.3472 99.3011 81.3596 99.2929 81.3716 99.2842L81.0785 98.8792ZM28.1923 192.659L27.7084 192.533C27.6394 192.798 27.7963 193.069 28.0603 193.141L28.1923 192.659ZM57.8032 200.759L57.6712 201.241C57.9149 201.308 58.1701 201.182 58.2658 200.948L57.8032 200.759ZM60.6208 193.881L61.1185 193.832C61.0962 193.604 60.9208 193.42 60.6935 193.386C60.4661 193.353 60.2453 193.479 60.1582 193.691L60.6208 193.881ZM65.1451 240.246L64.6474 240.294C64.6724 240.55 64.8877 240.746 65.1451 240.746V240.246ZM180.709 240.246V240.746C180.967 240.746 181.182 240.55 181.207 240.294L180.709 240.246ZM187.787 167.71L188.178 167.398C188.051 167.239 187.841 167.173 187.645 167.23C187.45 167.288 187.309 167.459 187.29 167.661L187.787 167.71ZM198.514 181.177L198.123 181.489C198.28 181.687 198.56 181.736 198.776 181.603L198.514 181.177ZM224.673 165.111L224.935 165.538C225.168 165.394 225.243 165.09 225.102 164.855L224.673 165.111ZM141.741 88.7951L141.643 89.2853C141.658 89.2884 141.674 89.2907 141.689 89.2924L141.741 88.7951ZM122.927 103.926C131.748 103.926 138.959 97.0345 139.481 88.3385L138.482 88.2786C137.993 96.4504 131.215 102.926 122.927 102.926V103.926ZM106.374 88.3385C106.895 97.0345 114.106 103.926 122.927 103.926V102.926C114.639 102.926 107.862 96.4504 107.372 88.2786L106.374 88.3385ZM81.3716 99.2842C88.7698 93.9317 97.4711 90.244 106.948 88.8028L106.798 87.8142C97.1588 89.28 88.3089 93.0309 80.7854 98.4741L81.3716 99.2842ZM28.6761 192.785C45.3626 128.683 68.7905 106.785 81.3345 99.3086L80.8225 98.4497C67.9828 106.102 44.4373 128.268 27.7084 192.533L28.6761 192.785ZM57.9351 200.276L28.3242 192.177L28.0603 193.141L57.6712 201.241L57.9351 200.276ZM60.1582 193.691L57.3405 200.569L58.2658 200.948L61.0835 194.07L60.1582 193.691ZM65.6427 240.197L61.1185 193.832L60.1232 193.929L64.6474 240.294L65.6427 240.197ZM180.709 239.746H65.1451V240.746H180.709V239.746ZM187.29 167.661L180.212 240.197L181.207 240.294L188.285 167.758L187.29 167.661ZM198.905 180.866L188.178 167.398L187.396 168.021L198.123 181.489L198.905 180.866ZM224.411 164.685L198.252 180.751L198.776 181.603L224.935 165.538L224.411 164.685ZM141.689 89.2924C152.275 90.3944 184.624 99.0362 224.244 165.368L225.102 164.855C185.375 98.3446 152.785 89.4421 141.793 88.2978L141.689 89.2924ZM138.906 88.8028C139.826 88.9427 140.738 89.1037 141.643 89.2853L141.84 88.3049C140.92 88.1202 139.992 87.9564 139.057 87.8142L138.906 88.8028Z" fill="#4A31FF"/>
<path fill-rule="evenodd" clip-rule="evenodd" d="M144.303 92.0762C144.625 92.1441 144.832 92.4636 144.765 92.7897C144.254 95.2707 142.804 99.5981 139.6 103.317C136.378 107.056 131.399 110.159 123.907 110.159C109.244 110.159 103.287 100.265 102.449 95.1786C102.394 94.85 102.614 94.5392 102.939 94.4845C103.264 94.4297 103.571 94.6517 103.625 94.9803C104.377 99.5447 109.885 108.953 123.907 108.953C131.025 108.953 135.686 106.024 138.701 102.525C141.733 99.0054 143.115 94.8882 143.598 92.5436C143.665 92.2175 143.981 92.0082 144.303 92.0762Z" fill="#4A31FF"/>
<path fill-rule="evenodd" clip-rule="evenodd" d="M219.767 160.579C219.94 160.858 219.853 161.225 219.573 161.398L197.227 175.205C196.948 175.378 196.581 175.291 196.408 175.011C196.235 174.732 196.321 174.365 196.601 174.192L218.947 160.385C219.227 160.212 219.594 160.299 219.767 160.579Z" fill="#4A31FF"/>
<path fill-rule="evenodd" clip-rule="evenodd" d="M31.6308 186.932C31.5432 187.249 31.7291 187.577 32.0462 187.665L57.3641 194.663C57.6811 194.75 58.0092 194.564 58.0968 194.247C58.1844 193.93 57.9985 193.602 57.6814 193.515L32.3636 186.516C32.0465 186.429 31.7184 186.615 31.6308 186.932Z" fill="#4A31FF"/>
<mask id="path-19-inside-3_8822_79424" fill="white">
<path fill-rule="evenodd" clip-rule="evenodd" d="M189.739 66.3815C202.71 55.7361 204.668 36.6803 194.113 23.819C183.558 10.9578 164.486 9.16152 151.515 19.8069C138.544 30.4523 136.586 49.5081 147.141 62.3693C157.696 75.2306 176.768 77.0269 189.739 66.3815ZM184.788 60.3492C194.399 52.4616 195.85 38.3422 188.029 28.8127C180.208 19.2832 166.077 17.9522 156.466 25.8399C146.855 33.7276 145.404 47.8469 153.225 57.3764C161.046 66.9059 175.177 68.2369 184.788 60.3492Z"/>
</mask>
<path fill-rule="evenodd" clip-rule="evenodd" d="M189.739 66.3815C202.71 55.7361 204.668 36.6803 194.113 23.819C183.558 10.9578 164.486 9.16152 151.515 19.8069C138.544 30.4523 136.586 49.5081 147.141 62.3693C157.696 75.2306 176.768 77.0269 189.739 66.3815ZM184.788 60.3492C194.399 52.4616 195.85 38.3422 188.029 28.8127C180.208 19.2832 166.077 17.9522 156.466 25.8399C146.855 33.7276 145.404 47.8469 153.225 57.3764C161.046 66.9059 175.177 68.2369 184.788 60.3492Z" fill="white"/>
<path d="M193.34 24.4535C203.54 36.8816 201.655 55.3084 189.105 65.6085L190.373 67.1545C203.765 56.1638 205.797 36.479 194.886 23.1846L193.34 24.4535ZM152.149 20.5799C164.7 10.2798 183.14 12.0253 193.34 24.4535L194.886 23.1846C183.975 9.89032 164.272 8.04324 150.881 19.0339L152.149 20.5799ZM147.914 61.7349C137.714 49.3068 139.599 30.88 152.149 20.5799L150.881 19.0339C137.489 30.0245 135.457 49.7094 146.368 63.0037L147.914 61.7349ZM189.105 65.6085C176.554 75.9086 158.114 74.1631 147.914 61.7349L146.368 63.0037C157.279 76.2981 176.982 78.1451 190.373 67.1545L189.105 65.6085ZM187.256 29.4471C194.721 38.5435 193.344 52.0339 184.154 59.5762L185.422 61.1222C195.454 52.8893 196.978 38.1409 188.802 28.1783L187.256 29.4471ZM157.1 26.6129C166.29 19.0705 179.79 20.3507 187.256 29.4471L188.802 28.1783C180.626 18.2157 165.863 16.834 155.832 25.0669L157.1 26.6129ZM153.998 56.742C146.533 47.6456 147.91 34.1553 157.1 26.6129L155.832 25.0669C145.8 33.2998 144.276 48.0483 152.452 58.0108L153.998 56.742ZM184.154 59.5762C174.964 67.1186 161.464 65.8384 153.998 56.742L152.452 58.0108C160.628 67.9734 175.391 69.3552 185.422 61.1222L184.154 59.5762Z" fill="#4A31FF" mask="url(#path-19-inside-3_8822_79424)"/>
<ellipse cx="170.717" cy="42.9557" rx="22.5122" ry="22.3217" transform="rotate(-39.376 170.717 42.9557)" fill="white"/>
<path d="M222.604 113.12L186.106 67.3427L191.428 62.975L229.206 107.701C229.31 107.824 229.293 108.008 229.169 108.11L223.012 113.163C222.888 113.265 222.704 113.245 222.604 113.12Z" fill="white" stroke="#4A31FF"/>
<rect x="185.425" y="69.4258" width="10.6637" height="3.69231" rx="0.787844" transform="rotate(-39.376 185.425 69.4258)" fill="#4A31FF"/>
<mask id="path-24-inside-4_8822_79424" fill="white">
<path fill-rule="evenodd" clip-rule="evenodd" d="M225.2 106.964C225.803 106.614 226.297 106.121 226.683 105.512L227.511 104.909L229.248 106.966C229.532 107.302 229.486 107.805 229.146 108.084L222.989 113.137C222.72 113.358 222.348 113.371 222.069 113.194L224.829 166.062C224.829 166.062 223.103 162.866 221.74 163.369C215.763 165.574 200.434 175.458 199.065 180.447C207.903 191.866 215.606 193.389 226.185 193.389C234.02 193.389 250.668 185.663 248.384 169.34C244.761 143.437 240.428 129.823 236.275 116.773L236.275 116.773C234.611 111.547 232.977 106.411 231.428 100.613C231.463 100.014 231.33 99.4 231.012 98.8448L216.634 73.7176C215.777 72.2199 213.884 71.6752 212.362 72.4882L206.921 75.3944C206.306 75.543 205.723 75.8581 205.243 76.3394L202.855 78.7378C202.479 79.1154 202.327 79.6312 202.397 80.1209L198.746 86.0381C198.232 86.8719 198.491 87.9649 199.325 88.4794C199.553 88.6204 199.801 88.7033 200.051 88.7322L198.851 90.6767C198.08 91.9261 198.468 93.5639 199.718 94.3348L200.35 94.7248C200.656 94.9135 200.985 95.0328 201.319 95.087C201.339 95.9241 201.818 96.7197 202.626 97.1052C203.589 97.5653 204.713 97.2945 205.371 96.5146C205.51 97.4486 206.144 98.2784 207.095 98.6228L207.793 98.876C209.173 99.3763 210.698 98.663 211.198 97.2828L212.541 93.5773L213.817 93.6146L216.816 98.6325L216.735 101.412L211.284 101.253C215.255 106.947 221.866 108.9 225.2 106.964Z"/>
</mask>
<path fill-rule="evenodd" clip-rule="evenodd" d="M225.2 106.964C225.803 106.614 226.297 106.121 226.683 105.512L227.511 104.909L229.248 106.966C229.532 107.302 229.486 107.805 229.146 108.084L222.989 113.137C222.72 113.358 222.348 113.371 222.069 113.194L224.829 166.062C224.829 166.062 223.103 162.866 221.74 163.369C215.763 165.574 200.434 175.458 199.065 180.447C207.903 191.866 215.606 193.389 226.185 193.389C234.02 193.389 250.668 185.663 248.384 169.34C244.761 143.437 240.428 129.823 236.275 116.773L236.275 116.773C234.611 111.547 232.977 106.411 231.428 100.613C231.463 100.014 231.33 99.4 231.012 98.8448L216.634 73.7176C215.777 72.2199 213.884 71.6752 212.362 72.4882L206.921 75.3944C206.306 75.543 205.723 75.8581 205.243 76.3394L202.855 78.7378C202.479 79.1154 202.327 79.6312 202.397 80.1209L198.746 86.0381C198.232 86.8719 198.491 87.9649 199.325 88.4794C199.553 88.6204 199.801 88.7033 200.051 88.7322L198.851 90.6767C198.08 91.9261 198.468 93.5639 199.718 94.3348L200.35 94.7248C200.656 94.9135 200.985 95.0328 201.319 95.087C201.339 95.9241 201.818 96.7197 202.626 97.1052C203.589 97.5653 204.713 97.2945 205.371 96.5146C205.51 97.4486 206.144 98.2784 207.095 98.6228L207.793 98.876C209.173 99.3763 210.698 98.663 211.198 97.2828L212.541 93.5773L213.817 93.6146L216.816 98.6325L216.735 101.412L211.284 101.253C215.255 106.947 221.866 108.9 225.2 106.964Z" fill="white"/>
<path d="M226.683 105.512L226.094 104.703L225.941 104.816L225.839 104.976L226.683 105.512ZM225.2 106.964L224.697 106.099L225.2 106.964ZM227.511 104.909L228.274 104.264L227.674 103.553L226.922 104.101L227.511 104.909ZM229.248 106.966L230.012 106.321L230.012 106.321L229.248 106.966ZM229.146 108.084L228.512 107.311L228.512 107.311L229.146 108.084ZM222.989 113.137L223.624 113.91L223.624 113.91L222.989 113.137ZM222.069 113.194L222.603 112.349L220.969 111.317L221.07 113.246L222.069 113.194ZM224.829 166.062L223.949 166.537L225.827 166.01L224.829 166.062ZM221.74 163.369L221.394 162.431H221.394L221.74 163.369ZM199.065 180.447L198.101 180.183L197.969 180.665L198.275 181.059L199.065 180.447ZM248.384 169.34L247.394 169.478L248.384 169.34ZM236.275 116.773L235.32 117.07L235.322 117.076L236.275 116.773ZM236.275 116.773L237.23 116.477L237.228 116.47L236.275 116.773ZM231.428 100.613L230.43 100.555L230.42 100.716L230.462 100.871L231.428 100.613ZM231.012 98.8448L230.144 99.3415H230.144L231.012 98.8448ZM216.634 73.7176L215.766 74.2142L216.634 73.7176ZM212.362 72.4882L212.833 73.3703V73.3703L212.362 72.4882ZM206.921 75.3944L207.156 76.3665L207.28 76.3365L207.392 76.2765L206.921 75.3944ZM205.243 76.3394L205.952 77.045L205.952 77.045L205.243 76.3394ZM202.855 78.7378L202.147 78.0322L202.147 78.0322L202.855 78.7378ZM202.397 80.1209L203.249 80.6461L203.439 80.3372L203.387 79.9779L202.397 80.1209ZM198.746 86.0381L197.895 85.513H197.895L198.746 86.0381ZM199.325 88.4794L198.799 89.3305L198.799 89.3305L199.325 88.4794ZM200.051 88.7322L200.902 89.2573L201.728 87.9195L200.166 87.7389L200.051 88.7322ZM198.851 90.6767L198 90.1516H198L198.851 90.6767ZM199.718 94.3348L200.243 93.4837H200.243L199.718 94.3348ZM200.35 94.7248L199.825 95.5758L199.825 95.5758L200.35 94.7248ZM201.319 95.087L202.319 95.0626L202.298 94.2328L201.479 94.0999L201.319 95.087ZM202.626 97.1052L202.195 98.0076H202.195L202.626 97.1052ZM205.371 96.5146L206.36 96.3667L206.032 94.1782L204.606 95.87L205.371 96.5146ZM207.095 98.6228L207.435 97.6827L207.435 97.6827L207.095 98.6228ZM207.793 98.876L207.452 99.8161L207.452 99.8161L207.793 98.876ZM211.198 97.2828L210.258 96.942L211.198 97.2828ZM212.541 93.5773L212.57 92.5777L211.848 92.5566L211.601 93.2365L212.541 93.5773ZM213.817 93.6146L214.675 93.1016L214.394 92.6311L213.846 92.6151L213.817 93.6146ZM216.816 98.6325L217.815 98.6618L217.824 98.37L217.674 98.1195L216.816 98.6325ZM216.735 101.412L216.705 102.412L217.705 102.441L217.734 101.441L216.735 101.412ZM211.284 101.253L211.313 100.253L209.328 100.195L210.464 101.825L211.284 101.253ZM225.839 104.976C225.53 105.463 225.149 105.837 224.697 106.099L225.702 107.829C226.457 107.391 227.064 106.779 227.528 106.047L225.839 104.976ZM226.922 104.101L226.094 104.703L227.272 106.32L228.099 105.717L226.922 104.101ZM230.012 106.321L228.274 104.264L226.747 105.554L228.485 107.612L230.012 106.321ZM229.781 108.857C230.552 108.224 230.656 107.083 230.012 106.321L228.485 107.612C228.408 107.521 228.421 107.386 228.512 107.311L229.781 108.857ZM223.624 113.91L229.781 108.857L228.512 107.311L222.355 112.364L223.624 113.91ZM221.535 114.04C222.167 114.439 223.011 114.413 223.624 113.91L222.355 112.364C222.429 112.303 222.529 112.302 222.603 112.349L221.535 114.04ZM225.827 166.01L223.067 113.142L221.07 113.246L223.83 166.114L225.827 166.01ZM222.086 164.307C221.998 164.34 222.017 164.263 222.254 164.417C222.481 164.564 222.747 164.824 223.021 165.16C223.287 165.485 223.521 165.831 223.691 166.102C223.775 166.236 223.841 166.348 223.886 166.425C223.908 166.464 223.925 166.494 223.935 166.513C223.941 166.522 223.944 166.529 223.947 166.533C223.948 166.535 223.948 166.537 223.949 166.537C223.949 166.538 223.949 166.538 223.949 166.538C223.949 166.538 223.949 166.538 223.949 166.537C223.949 166.537 223.949 166.537 223.949 166.537C223.949 166.537 223.949 166.537 224.829 166.062C225.709 165.587 225.708 165.587 225.708 165.586C225.708 165.586 225.708 165.586 225.708 165.586C225.708 165.586 225.708 165.585 225.707 165.585C225.707 165.584 225.706 165.583 225.706 165.582C225.704 165.579 225.703 165.576 225.7 165.572C225.696 165.564 225.69 165.553 225.682 165.54C225.667 165.512 225.646 165.474 225.618 165.426C225.563 165.33 225.484 165.197 225.385 165.039C225.188 164.726 224.906 164.305 224.57 163.894C224.242 163.493 223.822 163.049 223.341 162.738C222.871 162.434 222.164 162.147 221.394 162.431L222.086 164.307ZM200.03 180.712C200.154 180.259 200.462 179.675 200.989 178.97C201.508 178.275 202.202 177.511 203.039 176.704C204.714 175.088 206.901 173.348 209.253 171.68C213.974 168.33 219.218 165.366 222.086 164.307L221.394 162.431C218.285 163.578 212.876 166.657 208.096 170.049C205.697 171.75 203.422 173.555 201.651 175.264C200.765 176.119 199.99 176.964 199.386 177.773C198.789 178.572 198.319 179.388 198.101 180.183L200.03 180.712ZM226.185 192.389C220.932 192.389 216.523 192.007 212.356 190.277C208.205 188.552 204.2 185.447 199.856 179.835L198.275 181.059C202.769 186.866 207.035 190.232 211.589 192.124C216.128 194.009 220.859 194.389 226.185 194.389V192.389ZM247.394 169.478C248.477 177.221 245.094 182.909 240.446 186.712C235.753 190.55 229.852 192.389 226.185 192.389V194.389C230.353 194.389 236.694 192.365 241.712 188.26C246.776 184.118 250.575 177.782 249.375 169.201L247.394 169.478ZM235.322 117.076C239.467 130.101 243.782 143.655 247.394 169.478L249.375 169.201C245.741 143.22 241.389 129.545 237.228 116.47L235.322 117.076ZM235.32 117.069L235.32 117.07L237.23 116.477L237.23 116.477L235.32 117.069ZM230.462 100.871C232.017 106.695 233.659 111.852 235.322 117.076L237.228 116.47C235.563 111.242 233.936 106.127 232.394 100.355L230.462 100.871ZM230.144 99.3415C230.363 99.7234 230.454 100.144 230.43 100.555L232.426 100.671C232.472 99.8843 232.297 99.0766 231.88 98.3482L230.144 99.3415ZM215.766 74.2142L230.144 99.3415L231.88 98.3482L217.501 73.2209L215.766 74.2142ZM212.833 73.3703C213.878 72.8122 215.177 73.1861 215.766 74.2142L217.501 73.2209C216.376 71.2538 213.89 70.5383 211.891 71.6062L212.833 73.3703ZM207.392 76.2765L212.833 73.3703L211.891 71.6062L206.45 74.5124L207.392 76.2765ZM205.952 77.045C206.297 76.6982 206.715 76.4729 207.156 76.3665L206.686 74.4224C205.897 74.6131 205.148 75.0179 204.535 75.6338L205.952 77.045ZM203.564 79.4434L205.952 77.045L204.535 75.6338L202.147 78.0322L203.564 79.4434ZM203.387 79.9779C203.359 79.7862 203.419 79.5887 203.564 79.4434L202.147 78.0322C201.539 78.6421 201.294 79.4763 201.408 80.264L203.387 79.9779ZM199.597 86.5632L203.249 80.6461L201.546 79.5958L197.895 85.513L199.597 86.5632ZM199.85 87.6284C199.486 87.4039 199.373 86.927 199.597 86.5632L197.895 85.513C197.091 86.8168 197.496 88.526 198.799 89.3305L199.85 87.6284ZM200.166 87.7389C200.058 87.7264 199.951 87.6909 199.85 87.6284L198.799 89.3305C199.155 89.5499 199.544 89.6802 199.936 89.7256L200.166 87.7389ZM199.702 91.2018L200.902 89.2573L199.2 88.2071L198 90.1516L199.702 91.2018ZM200.243 93.4837C199.463 93.0028 199.221 91.9812 199.702 91.2018L198 90.1516C196.939 91.871 197.473 94.1249 199.193 95.1858L200.243 93.4837ZM200.875 93.8738L200.243 93.4837L199.193 95.1858L199.825 95.5758L200.875 93.8738ZM201.479 94.0999C201.272 94.0663 201.067 93.9925 200.875 93.8738L199.825 95.5758C200.244 95.8346 200.698 95.9993 201.159 96.0741L201.479 94.0999ZM203.057 96.2028C202.602 95.9858 202.33 95.5379 202.319 95.0626L200.319 95.1115C200.348 96.3102 201.035 97.4536 202.195 98.0076L203.057 96.2028ZM204.606 95.87C204.235 96.3105 203.599 96.4619 203.057 96.2028L202.195 98.0076C203.579 98.6686 205.192 98.2785 206.135 97.1592L204.606 95.87ZM207.435 97.6827C206.844 97.4683 206.447 96.9522 206.36 96.3667L204.382 96.6625C204.573 97.9449 205.445 99.0885 206.754 99.563L207.435 97.6827ZM208.134 97.9358L207.435 97.6827L206.754 99.563L207.452 99.8161L208.134 97.9358ZM210.258 96.942C209.946 97.803 208.995 98.2479 208.134 97.9358L207.452 99.8161C209.352 100.505 211.449 99.523 212.138 97.6236L210.258 96.942ZM211.601 93.2365L210.258 96.942L212.138 97.6236L213.481 93.9181L211.601 93.2365ZM213.846 92.6151L212.57 92.5777L212.512 94.5769L213.788 94.6142L213.846 92.6151ZM217.674 98.1195L214.675 93.1016L212.958 94.1277L215.957 99.1456L217.674 98.1195ZM217.734 101.441L217.815 98.6618L215.816 98.6033L215.735 101.383L217.734 101.441ZM211.255 102.252L216.705 102.412L216.764 100.413L211.313 100.253L211.255 102.252ZM224.697 106.099C223.387 106.86 221.243 106.933 218.831 106.033C216.455 105.146 213.974 103.361 212.105 100.681L210.464 101.825C212.566 104.839 215.376 106.878 218.131 107.907C220.851 108.922 223.678 109.004 225.702 107.829L224.697 106.099Z" fill="#4A31FF" mask="url(#path-24-inside-4_8822_79424)"/>
</svg>
