<svg width="250" height="249" viewBox="0 0 250 249" fill="none" xmlns="http://www.w3.org/2000/svg">
<path fill-rule="evenodd" clip-rule="evenodd" d="M200.581 239.944C228.231 217.445 245.895 183.145 245.895 144.719C245.895 76.9523 190.959 22.0168 123.193 22.0168C55.4267 22.0168 0.491211 76.9523 0.491211 144.719C0.491211 183.145 18.1547 217.445 45.8052 239.944H200.581Z" fill="#EAF2FF"/>
<rect x="86.444" y="37.9548" width="74.2563" height="87.3152" fill="#2E0842"/>
<path d="M160.7 37.0584C160.7 57.493 144.077 74.0585 123.572 74.0585C103.067 74.0585 86.444 57.493 86.444 37.0584C86.444 16.6238 103.067 0.0582733 123.572 0.0582733C144.077 0.0582733 160.7 16.6238 160.7 37.0584Z" fill="#2E0842"/>
<path d="M106.749 70.5141H138.83V108.686H106.749V70.5141Z" fill="#E48BE2"/>
<path d="M113.843 70.4734H130.742V87.6292H122.737C117.825 87.6292 113.843 83.5866 113.843 78.5998V70.4734Z" fill="#2E0842"/>
<rect x="126.647" y="79.2458" width="12.1826" height="8.32476" fill="#2E0842"/>
<path d="M106.672 36.5977C106.672 30.4177 111.657 25.4078 117.805 25.4078H146.751C152.899 25.4078 157.883 30.4177 157.883 36.5977V59.8726C157.883 72.2326 147.915 82.2523 135.618 82.2523H106.672V36.5977Z" fill="#E48BE2"/>
<path d="M110.257 53.5739C110.257 57.9577 106.646 61.5116 102.191 61.5116C97.7364 61.5116 94.1252 57.9577 94.1252 53.5739C94.1252 49.19 97.7364 45.6361 102.191 45.6361C106.646 45.6361 110.257 49.19 110.257 53.5739Z" fill="#E48BE2"/>
<circle cx="146.49" cy="26.8165" r="11.3945" fill="#2E0842"/>
<path fill-rule="evenodd" clip-rule="evenodd" d="M121.453 40.8174C120.772 41.0896 120.278 41.461 120.003 41.8809C119.796 42.1965 119.369 42.2872 119.049 42.0834C118.729 41.8796 118.637 41.4585 118.843 41.1429C119.319 40.4159 120.084 39.8963 120.934 39.5565C121.79 39.2147 122.778 39.0355 123.773 39.0189C125.731 38.9861 127.9 39.5872 129.156 41.0772C129.399 41.3662 129.359 41.7951 129.066 42.0352C128.773 42.2752 128.337 42.2355 128.094 41.9465C127.209 40.8959 125.528 40.3502 123.796 40.3792C122.946 40.3934 122.129 40.5473 121.453 40.8174Z" fill="#2E0842"/>
<path fill-rule="evenodd" clip-rule="evenodd" d="M128.338 70.0462C127.258 69.5966 126.475 68.983 126.038 68.2894C125.711 67.768 125.033 67.6182 124.525 67.9548C124.017 68.2915 123.872 68.9871 124.199 69.5085C124.955 70.7094 126.167 71.5678 127.516 72.1292C128.873 72.694 130.44 72.9899 132.017 73.0174C135.122 73.0715 138.563 72.0784 140.554 69.617C140.94 69.1396 140.876 68.431 140.411 68.0345C139.946 67.6379 139.256 67.7035 138.87 68.1809C137.466 69.9166 134.801 70.818 132.054 70.7701C130.706 70.7466 129.41 70.4925 128.338 70.0462Z" fill="#2E0842"/>
<path fill-rule="evenodd" clip-rule="evenodd" d="M140.907 42.8794C140.32 42.4402 139.939 41.9536 139.782 41.4769C139.664 41.1185 139.275 40.9204 138.913 41.0343C138.551 41.1483 138.353 41.5312 138.471 41.8896C138.743 42.715 139.347 43.4148 140.08 43.9631C140.818 44.5148 141.726 44.9436 142.683 45.2171C144.565 45.7555 146.817 45.7363 148.415 44.6221C148.725 44.4059 148.797 43.9812 148.576 43.6735C148.355 43.3657 147.924 43.2915 147.614 43.5076C146.487 44.2933 144.723 44.3855 143.057 43.9092C142.24 43.6753 141.49 43.3153 140.907 42.8794Z" fill="#2E0842"/>
<path fill-rule="evenodd" clip-rule="evenodd" d="M134.342 48.5825C134.555 48.4482 134.836 48.5145 134.969 48.7304L134.582 48.9735C134.969 48.7304 134.969 48.7303 134.969 48.7304L134.973 48.7375L134.985 48.7567C134.995 48.7736 135.01 48.7983 135.03 48.8304C135.068 48.8948 135.124 48.9889 135.195 49.1094C135.337 49.3502 135.536 49.6964 135.77 50.1195C136.236 50.9647 136.841 52.1212 137.389 53.3605C137.935 54.5957 138.434 55.9327 138.679 57.135C138.917 58.3041 138.945 59.4891 138.366 60.293C137.296 61.7809 135.461 61.8638 134.061 61.6575C133.343 61.5516 132.689 61.3634 132.217 61.2031C131.98 61.1227 131.787 61.0486 131.652 60.9942C131.585 60.967 131.532 60.9446 131.495 60.9288C131.476 60.9209 131.462 60.9146 131.452 60.9101L131.44 60.9048L131.437 60.9032L131.435 60.9027C131.435 60.9027 131.435 60.9024 131.622 60.4826L131.435 60.9024C131.205 60.7981 131.103 60.5255 131.206 60.2937C131.31 60.0619 131.579 59.9585 131.808 60.0627C131.808 60.0627 131.808 60.0627 131.808 60.0627M131.808 60.0627L131.81 60.0634L131.818 60.0668C131.825 60.0701 131.836 60.0751 131.852 60.0817C131.883 60.095 131.929 60.1147 131.99 60.1391C132.111 60.1881 132.288 60.2561 132.507 60.3303C132.946 60.4794 133.544 60.6509 134.192 60.7464C135.525 60.9429 136.878 60.7956 137.63 59.7515C137.962 59.2894 138.018 58.4603 137.787 57.3204C137.561 56.2136 137.093 54.9467 136.557 53.7362C136.024 52.5298 135.433 51.3988 134.974 50.5681C134.745 50.1531 134.55 49.8142 134.412 49.5793C134.343 49.462 134.288 49.3707 134.251 49.309C134.233 49.2782 134.219 49.2548 134.209 49.2392L134.198 49.2218L134.195 49.2167" fill="#2E0842"/>
<path d="M126.404 50.4972C126.404 51.593 125.457 52.4813 124.288 52.4813C123.119 52.4813 122.172 51.593 122.172 50.4972C122.172 49.4014 123.119 48.513 124.288 48.513C125.457 48.513 126.404 49.4014 126.404 50.4972Z" fill="#2E0842"/>
<path d="M145.718 50.4972C145.718 51.593 144.77 52.4813 143.602 52.4813C142.433 52.4813 141.485 51.593 141.485 50.4972C141.485 49.4014 142.433 48.513 143.602 48.513C144.77 48.513 145.718 49.4014 145.718 50.4972Z" fill="#2E0842"/>
<path fill-rule="evenodd" clip-rule="evenodd" d="M138.981 88.0068C138.476 96.4407 131.481 103.124 122.927 103.124C114.373 103.124 107.378 96.4407 106.872 88.0068C76.1536 92.6781 53.5147 120.757 56.6352 152.737L65.1448 239.944H180.709L189.219 152.737C192.339 120.757 169.7 92.6781 138.981 88.0068Z" fill="#4A31FF"/>
<path d="M226.186 193.087C215.608 193.087 207.904 191.564 199.067 180.145C200.435 175.156 215.764 165.273 221.741 163.067C223.104 162.564 224.83 165.76 224.83 165.76L221.741 104.398L231.301 99.828C236.742 120.395 243.271 132.474 248.386 169.038C250.669 185.361 234.021 193.087 226.186 193.087Z" fill="#E48BE2"/>
<path d="M220.69 176.394C220.499 174.352 223.642 167.939 225.078 165.785L222.286 161.239L208.087 174.001L220.69 176.394Z" fill="#C56FC3"/>
<path d="M32.355 186.124C30.5961 201.592 41.777 239.986 41.777 239.986L59.7322 239.986L56.0779 193.632L32.355 186.124Z" fill="#E48BE2"/>
<path d="M224.673 164.81C181.972 93.32 147.616 88.6132 139.657 88.3475L148.575 118.176L198.514 180.876L224.673 164.81Z" fill="#4A31FF"/>
<path d="M28.1913 192.357C49.1687 111.771 80.8328 97.6335 88.3997 95.1499L88.19 126.282L57.8022 200.456L28.1913 192.357Z" fill="#4A31FF"/>
<path fill-rule="evenodd" clip-rule="evenodd" d="M144.303 91.7744C144.625 91.8424 144.832 92.1618 144.765 92.488C144.254 94.9689 142.804 99.2964 139.6 103.016C136.378 106.755 131.399 109.858 123.907 109.858C109.244 109.858 103.286 99.9636 102.448 94.8769C102.394 94.5483 102.614 94.2375 102.939 94.1827C103.263 94.128 103.571 94.3499 103.625 94.6785C104.377 99.2429 109.884 108.651 123.907 108.651C131.025 108.651 135.686 105.722 138.701 102.223C141.733 98.7037 143.115 94.5865 143.598 92.2419C143.665 91.9158 143.981 91.7065 144.303 91.7744Z" fill="white"/>
<path fill-rule="evenodd" clip-rule="evenodd" d="M219.767 160.277C219.94 160.557 219.853 160.924 219.573 161.097L197.227 174.903C196.948 175.076 196.581 174.989 196.408 174.71C196.235 174.43 196.321 174.063 196.601 173.89L218.947 160.083C219.227 159.91 219.594 159.997 219.767 160.277Z" fill="white"/>
<path fill-rule="evenodd" clip-rule="evenodd" d="M31.6307 186.63C31.543 186.947 31.729 187.275 32.0461 187.363L57.3639 194.361C57.681 194.449 58.0091 194.263 58.0967 193.946C58.1843 193.629 57.9983 193.3 57.6813 193.213L32.3634 186.215C32.0464 186.127 31.7183 186.313 31.6307 186.63Z" fill="white"/>
<path d="M211.32 82.7544C214.875 80.6903 220.864 84.369 224.697 90.9709C228.531 97.5729 228.756 104.598 225.201 106.662C221.646 108.726 214.365 106.369 210.532 99.767C206.698 93.165 207.765 84.8185 211.32 82.7544Z" fill="#E48BE2"/>
<path d="M216.736 101.111L208.351 100.865C206.884 100.822 205.729 99.5978 205.772 98.1304L205.842 95.739C205.885 94.2715 207.109 93.1167 208.577 93.1596L216.961 93.4049L216.736 101.111Z" fill="#E48BE2"/>
<path d="M207.395 100.697L200.691 95.6565C199.517 94.7743 199.281 93.1078 200.163 91.9343L200.6 91.3538C201.482 90.1803 203.148 89.9442 204.322 90.8264L211.027 95.8669L207.395 100.697Z" fill="#E48BE2"/>
<path d="M225.396 106.549C223.886 107.426 221.952 106.926 221.056 105.427L205.61 79.5832C204.675 78.0193 205.238 75.9914 206.845 75.133L212.378 72.1775C213.893 71.3682 215.777 71.9039 216.64 73.3894L231.645 99.2324C232.53 100.756 232.012 102.708 230.488 103.593L225.396 106.549Z" fill="#E48BE2"/>
<path fill-rule="evenodd" clip-rule="evenodd" d="M189.543 65.8408C202.514 55.1955 204.516 36.1931 194.015 23.3978C183.514 10.6026 164.486 8.85976 151.515 19.5051C138.544 30.1505 136.542 49.1529 147.043 61.9481C157.544 74.7434 176.572 76.4862 189.543 65.8408ZM184.617 59.8392C194.228 51.9515 195.712 37.8718 187.931 28.3912C180.15 18.9106 166.052 17.6192 156.441 25.5069C146.83 33.3945 145.346 47.4743 153.127 56.9549C160.908 66.4355 175.007 67.7268 184.617 59.8392Z" fill="#4A31FF"/>
<ellipse cx="170.619" cy="42.5348" rx="22.5122" ry="22.2072" transform="rotate(-39.376 170.619 42.5348)" fill="white"/>
<path d="M185.218 66.7368L191.302 61.7435L229.204 106.609C229.487 106.945 229.441 107.448 229.102 107.727L222.945 112.78C222.605 113.059 222.103 113.005 221.829 112.662L185.218 66.7368Z" fill="#4A31FF"/>
<rect x="185.23" y="68.8869" width="10.6637" height="3.67337" rx="0.787844" transform="rotate(-39.376 185.23 68.8869)" fill="#191059"/>
<path d="M210.26 76.0276L205.471 80.8369C204.78 81.5311 203.657 81.5335 202.963 80.8422L202.859 80.7394C202.222 80.1048 202.22 79.0738 202.854 78.4366L205.243 76.0382C206.625 74.6497 208.872 74.6449 210.26 76.0276V76.0276Z" fill="#E48BE2"/>
<path d="M205.781 80.3885L202.217 86.1645C201.702 86.9983 200.609 87.2572 199.776 86.7427V86.7427C198.942 86.2282 198.683 85.1352 199.197 84.3014L202.761 78.5254L205.781 80.3885Z" fill="#E48BE2"/>
<path d="M218.795 86.4552L214.75 91.9058C214.167 92.6926 213.055 92.8572 212.269 92.2733V92.2733C211.482 91.6895 211.317 90.5784 211.901 89.7916L215.945 84.3411L218.795 86.4552Z" fill="#E48BE2"/>
<path d="M213.634 79.3541L206.99 85.1041C206.031 85.9341 204.58 85.8295 203.75 84.8704V84.8704C202.92 83.9113 203.025 82.4609 203.984 81.6309L210.628 75.8809L213.634 79.3541Z" fill="#E48BE2"/>
<path d="M209.116 87.2736L206.595 95.6907C206.231 96.9057 204.951 97.5957 203.736 97.2317V97.2317C202.521 96.8677 201.831 95.5877 202.195 94.3726L204.716 85.9555L209.116 87.2736Z" fill="#E48BE2"/>
<path d="M218.503 82.3968L211.036 91.742C210.12 92.8889 208.447 93.0758 207.3 92.1593L206.72 91.6957C205.573 90.7793 205.386 89.1066 206.302 87.9596L213.77 78.6144L218.503 82.3968Z" fill="#E48BE2"/>
<path d="M210.29 84.2557L204.009 94.4358C203.238 95.6852 201.6 96.073 200.35 95.3021L199.718 94.9121C198.469 94.1412 198.081 92.5034 198.852 91.254L205.133 81.0739L210.29 84.2557Z" fill="#E48BE2"/>
</svg>
