<svg width="250" height="249" viewBox="0 0 250 249" fill="none" xmlns="http://www.w3.org/2000/svg">
<path fill-rule="evenodd" clip-rule="evenodd" d="M200.581 239.944C228.231 217.445 245.895 183.145 245.895 144.719C245.895 76.9522 190.959 22.0167 123.193 22.0167C55.4267 22.0167 0.491211 76.9522 0.491211 144.719C0.491211 183.145 18.1547 217.445 45.8052 239.944H200.581Z" fill="#6E5AFF"/>
<rect x="86.444" y="37.9548" width="74.2563" height="87.3152" fill="#3322B2"/>
<path d="M160.7 37.0584C160.7 57.493 144.077 74.0585 123.572 74.0585C103.067 74.0585 86.444 57.493 86.444 37.0584C86.444 16.6238 103.067 0.0582886 123.572 0.0582886C144.077 0.0582886 160.7 16.6238 160.7 37.0584Z" fill="#3322B2"/>
<path d="M106.749 70.5142H138.83V108.686H106.749V70.5142Z" fill="#C5C0E5"/>
<path d="M113.843 70.4734H130.742V87.6292H122.737C117.825 87.6292 113.843 83.5866 113.843 78.5998V70.4734Z" fill="#3322B2"/>
<rect x="126.647" y="79.2458" width="12.1826" height="8.32476" fill="#3322B2"/>
<path d="M106.672 36.5977C106.672 30.4177 111.657 25.4078 117.805 25.4078H146.751C152.899 25.4078 157.883 30.4177 157.883 36.5977V59.8726C157.883 72.2326 147.915 82.2523 135.618 82.2523H106.672V36.5977Z" fill="#C5C0E5"/>
<path d="M110.257 53.5739C110.257 57.9577 106.646 61.5116 102.191 61.5116C97.7364 61.5116 94.1252 57.9577 94.1252 53.5739C94.1252 49.19 97.7364 45.6361 102.191 45.6361C106.646 45.6361 110.257 49.19 110.257 53.5739Z" fill="#C5C0E5"/>
<circle cx="146.49" cy="26.8166" r="11.3945" fill="#3322B2"/>
<path fill-rule="evenodd" clip-rule="evenodd" d="M121.453 40.8174C120.772 41.0896 120.278 41.461 120.003 41.8808C119.796 42.1965 119.369 42.2871 119.049 42.0834C118.729 41.8796 118.637 41.4585 118.843 41.1429C119.319 40.4159 120.084 39.8963 120.934 39.5565C121.79 39.2146 122.778 39.0355 123.773 39.0188C125.731 38.9861 127.9 39.5872 129.156 41.0772C129.399 41.3662 129.359 41.7951 129.066 42.0352C128.773 42.2752 128.337 42.2355 128.094 41.9465C127.209 40.8959 125.528 40.3502 123.796 40.3792C122.946 40.3934 122.129 40.5473 121.453 40.8174Z" fill="#3322B2"/>
<path fill-rule="evenodd" clip-rule="evenodd" d="M128.338 70.0462C127.258 69.5966 126.475 68.983 126.038 68.2894C125.711 67.768 125.033 67.6182 124.525 67.9548C124.017 68.2915 123.872 68.9871 124.199 69.5085C124.955 70.7095 126.167 71.5678 127.516 72.1292C128.873 72.694 130.44 72.9899 132.017 73.0174C135.122 73.0716 138.563 72.0785 140.554 69.617C140.94 69.1396 140.876 68.431 140.411 68.0345C139.946 67.6379 139.256 67.7035 138.87 68.1809C137.466 69.9166 134.801 70.818 132.054 70.7702C130.706 70.7466 129.41 70.4925 128.338 70.0462Z" fill="#3322B2"/>
<path fill-rule="evenodd" clip-rule="evenodd" d="M140.907 42.8793C140.32 42.4401 139.939 41.9536 139.782 41.4768C139.664 41.1184 139.275 40.9203 138.913 41.0343C138.551 41.1482 138.353 41.5311 138.471 41.8895C138.743 42.7149 139.347 43.4147 140.08 43.963C140.818 44.5147 141.726 44.9435 142.683 45.217C144.565 45.7554 146.817 45.7362 148.415 44.622C148.725 44.4059 148.797 43.9812 148.576 43.6734C148.355 43.3657 147.924 43.2914 147.614 43.5075C146.487 44.2932 144.723 44.3854 143.057 43.9091C142.24 43.6753 141.49 43.3152 140.907 42.8793Z" fill="#3322B2"/>
<path fill-rule="evenodd" clip-rule="evenodd" d="M134.342 48.5825C134.555 48.4483 134.836 48.5145 134.969 48.7304L134.582 48.9735C134.969 48.7304 134.969 48.7303 134.969 48.7304L134.973 48.7375L134.985 48.7568C134.995 48.7736 135.01 48.7983 135.03 48.8305C135.068 48.8948 135.124 48.989 135.195 49.1094C135.337 49.3502 135.536 49.6964 135.77 50.1195C136.236 50.9648 136.841 52.1212 137.389 53.3605C137.935 54.5957 138.434 55.9328 138.679 57.135C138.917 58.3041 138.945 59.4891 138.366 60.293C137.296 61.781 135.461 61.8638 134.061 61.6575C133.343 61.5516 132.689 61.3635 132.217 61.2032C131.98 61.1228 131.787 61.0487 131.652 60.9942C131.585 60.967 131.532 60.9447 131.495 60.9288C131.476 60.9209 131.462 60.9146 131.452 60.9101L131.44 60.9049L131.437 60.9033L131.435 60.9028C131.435 60.9027 131.435 60.9025 131.622 60.4826L131.435 60.9025C131.205 60.7981 131.103 60.5256 131.206 60.2937C131.31 60.0619 131.579 59.9585 131.808 60.0627C131.808 60.0627 131.808 60.0627 131.808 60.0627M131.808 60.0627L131.81 60.0634L131.818 60.0669C131.825 60.0701 131.836 60.0751 131.852 60.0817C131.883 60.095 131.929 60.1147 131.99 60.1392C132.111 60.1881 132.288 60.2561 132.507 60.3304C132.946 60.4794 133.544 60.6509 134.192 60.7464C135.525 60.9429 136.878 60.7956 137.63 59.7515C137.962 59.2894 138.018 58.4603 137.787 57.3204C137.561 56.2136 137.093 54.9467 136.557 53.7363C136.024 52.5298 135.433 51.3989 134.974 50.5681C134.745 50.1532 134.55 49.8142 134.412 49.5794C134.343 49.462 134.288 49.3707 134.251 49.309C134.233 49.2782 134.219 49.2548 134.209 49.2392L134.198 49.2218L134.195 49.2167" fill="#3322B2"/>
<path d="M126.404 50.4972C126.404 51.593 125.457 52.4813 124.288 52.4813C123.119 52.4813 122.172 51.593 122.172 50.4972C122.172 49.4014 123.119 48.5131 124.288 48.5131C125.457 48.5131 126.404 49.4014 126.404 50.4972Z" fill="#3322B2"/>
<path d="M145.718 50.4972C145.718 51.593 144.77 52.4813 143.602 52.4813C142.433 52.4813 141.485 51.593 141.485 50.4972C141.485 49.4014 142.433 48.5131 143.602 48.5131C144.77 48.5131 145.718 49.4014 145.718 50.4972Z" fill="#3322B2"/>
<path fill-rule="evenodd" clip-rule="evenodd" d="M138.981 88.0068C138.476 96.4408 131.481 103.124 122.927 103.124C114.373 103.124 107.378 96.4408 106.872 88.0068C76.1536 92.6782 53.5147 120.757 56.6352 152.737L65.1448 239.944H180.709L189.219 152.737C192.339 120.757 169.7 92.6782 138.981 88.0068Z" fill="white"/>
<path d="M226.186 193.087C215.608 193.087 207.904 191.564 199.067 180.146C200.435 175.156 215.764 165.273 221.741 163.067C223.104 162.564 224.83 165.76 224.83 165.76L221.741 104.399L231.301 99.8281C236.742 120.395 243.271 132.474 248.386 169.038C250.669 185.361 234.021 193.087 226.186 193.087Z" fill="#C5C0E5"/>
<path d="M220.69 176.394C220.499 174.352 223.642 167.939 225.078 165.785L222.286 161.239L208.087 174.001L220.69 176.394Z" fill="#3322B2"/>
<path d="M32.355 186.124C30.5961 201.592 41.777 239.986 41.777 239.986L59.7322 239.986L56.0779 193.632L32.355 186.124Z" fill="#C5C0E5"/>
<path d="M224.673 164.81C181.972 93.3201 147.616 88.6133 139.657 88.3475L148.575 118.176L198.514 180.876L224.673 164.81Z" fill="white"/>
<path d="M28.1913 192.357C49.1687 111.771 80.8328 97.6336 88.3997 95.1499L88.19 126.282L57.8022 200.456L28.1913 192.357Z" fill="white"/>
<path fill-rule="evenodd" clip-rule="evenodd" d="M144.303 91.7745C144.625 91.8425 144.832 92.1619 144.765 92.4881C144.254 94.969 142.804 99.2965 139.6 103.016C136.378 106.755 131.399 109.858 123.907 109.858C109.244 109.858 103.286 99.9637 102.448 94.877C102.394 94.5484 102.614 94.2376 102.939 94.1828C103.263 94.128 103.571 94.35 103.625 94.6786C104.377 99.243 109.884 108.651 123.907 108.651C131.025 108.651 135.686 105.722 138.701 102.223C141.733 98.7038 143.115 94.5866 143.598 92.242C143.665 91.9159 143.981 91.7066 144.303 91.7745Z" fill="#6E5AFF"/>
<path fill-rule="evenodd" clip-rule="evenodd" d="M219.767 160.277C219.94 160.557 219.853 160.924 219.573 161.097L197.227 174.903C196.948 175.076 196.581 174.99 196.408 174.71C196.235 174.43 196.321 174.063 196.601 173.89L218.947 160.083C219.227 159.91 219.594 159.997 219.767 160.277Z" fill="#6E5AFF"/>
<path fill-rule="evenodd" clip-rule="evenodd" d="M31.6307 186.63C31.543 186.947 31.729 187.275 32.0461 187.363L57.3639 194.361C57.681 194.449 58.0091 194.263 58.0967 193.946C58.1843 193.629 57.9983 193.3 57.6813 193.213L32.3634 186.215C32.0464 186.127 31.7183 186.313 31.6307 186.63Z" fill="#6E5AFF"/>
<path d="M211.32 82.7544C214.875 80.6903 220.864 84.369 224.697 90.971C228.531 97.5729 228.756 104.598 225.201 106.662C221.646 108.726 214.365 106.369 210.532 99.767C206.698 93.1651 207.765 84.8185 211.32 82.7544Z" fill="#C5C0E5"/>
<path d="M216.736 101.11L208.351 100.865C206.884 100.822 205.729 99.5978 205.772 98.1303L205.842 95.739C205.885 94.2715 207.109 93.1167 208.577 93.1596L216.961 93.4049L216.736 101.11Z" fill="#C5C0E5"/>
<path d="M207.395 100.697L200.691 95.6565C199.517 94.7743 199.281 93.1078 200.163 91.9343L200.6 91.3538C201.482 90.1803 203.148 89.9442 204.322 90.8264L211.027 95.867L207.395 100.697Z" fill="#C5C0E5"/>
<path d="M225.396 106.549C223.886 107.426 221.952 106.926 221.056 105.427L205.61 79.5832C204.675 78.0193 205.238 75.9915 206.845 75.1331L212.378 72.1775C213.893 71.3682 215.777 71.904 216.64 73.3894L231.645 99.2324C232.53 100.756 232.012 102.708 230.488 103.593L225.396 106.549Z" fill="#C5C0E5"/>
<ellipse cx="170.619" cy="42.5347" rx="25.2074" ry="24.8659" transform="rotate(-39.376 170.619 42.5347)" fill="white"/>
<path d="M184.583 65.9638L183.821 66.5892L184.436 67.3601L221.047 113.285C221.668 114.065 222.808 114.185 223.579 113.553L229.736 108.5C230.507 107.867 230.611 106.726 229.968 105.964L192.066 61.0982L191.43 60.345L190.668 60.9705L184.583 65.9638Z" fill="#3322B2" stroke="white" stroke-width="2"/>
<mask id="path-31-outside-1_8822_76755" maskUnits="userSpaceOnUse" x="125.214" y="-2.73334" width="90.847" height="90.7084" fill="black">
<rect fill="white" x="125.214" y="-2.73334" width="90.847" height="90.7084"/>
<path fill-rule="evenodd" clip-rule="evenodd" d="M189.543 65.8408C202.514 55.1955 204.516 36.1931 194.015 23.3978C183.514 10.6026 164.486 8.85976 151.515 19.5051C138.544 30.1505 136.542 49.1529 147.043 61.9481C157.544 74.7434 176.572 76.4862 189.543 65.8408ZM184.617 59.8392C194.228 51.9515 195.712 37.8718 187.931 28.3912C180.15 18.9106 166.052 17.6192 156.441 25.5069C146.83 33.3945 145.346 47.4743 153.127 56.9549C160.908 66.4355 175.007 67.7268 184.617 59.8392Z"/>
</mask>
<path fill-rule="evenodd" clip-rule="evenodd" d="M189.543 65.8408C202.514 55.1955 204.516 36.1931 194.015 23.3978C183.514 10.6026 164.486 8.85976 151.515 19.5051C138.544 30.1505 136.542 49.1529 147.043 61.9481C157.544 74.7434 176.572 76.4862 189.543 65.8408ZM184.617 59.8392C194.228 51.9515 195.712 37.8718 187.931 28.3912C180.15 18.9106 166.052 17.6192 156.441 25.5069C146.83 33.3945 145.346 47.4743 153.127 56.9549C160.908 66.4355 175.007 67.7268 184.617 59.8392Z" fill="#3322B2"/>
<path d="M192.469 24.6666C202.253 36.5882 200.411 54.3338 188.274 64.2948L190.812 67.3868C204.617 56.0571 206.779 35.7979 195.561 22.129L192.469 24.6666ZM152.784 21.0511C164.921 11.0901 182.685 12.745 192.469 24.6666L195.561 22.129C184.343 8.46013 164.051 6.62939 150.246 17.9591L152.784 21.0511ZM148.589 60.6793C138.805 48.7577 140.647 31.0121 152.784 21.0511L150.246 17.9591C136.441 29.2889 134.279 49.548 145.497 63.2169L148.589 60.6793ZM188.274 64.2948C176.137 74.2558 158.373 72.6009 148.589 60.6793L145.497 63.2169C156.715 76.8858 177.007 78.7166 190.812 67.3868L188.274 64.2948ZM186.385 29.66C193.449 38.2669 192.126 51.0899 183.349 58.2932L185.886 61.3852C196.331 52.8131 197.975 37.4766 189.477 27.1223L186.385 29.66ZM157.71 27.0529C166.486 19.8496 179.321 21.053 186.385 29.66L189.477 27.1223C180.979 16.7681 165.617 15.3888 155.172 23.9609L157.71 27.0529ZM154.673 55.6861C147.609 47.0791 148.933 34.2561 157.71 27.0529L155.172 23.9609C144.727 32.5329 143.083 47.8694 151.581 58.2237L154.673 55.6861ZM183.349 58.2932C174.572 65.4965 161.737 64.293 154.673 55.6861L151.581 58.2237C160.079 68.5779 175.442 69.9572 185.886 61.3852L183.349 58.2932Z" fill="white" mask="url(#path-31-outside-1_8822_76755)"/>
<rect x="185.23" y="68.887" width="10.6637" height="3.67337" rx="0.787844" transform="rotate(-39.376 185.23 68.887)" fill="#3322B2"/>
<path d="M210.26 76.0276L205.471 80.8369C204.78 81.5311 203.657 81.5335 202.963 80.8422L202.859 80.7394C202.222 80.1048 202.22 79.0738 202.854 78.4366L205.243 76.0382C206.625 74.6497 208.872 74.6449 210.26 76.0276Z" fill="#C5C0E5"/>
<path d="M205.781 80.3884L202.217 86.1644C201.702 86.9982 200.609 87.2571 199.776 86.7426C198.942 86.2281 198.683 85.1351 199.197 84.3013L202.761 78.5253L205.781 80.3884Z" fill="#C5C0E5"/>
<path d="M218.795 86.4552L214.75 91.9057C214.167 92.6925 213.055 92.8571 212.269 92.2733C211.482 91.6895 211.317 90.5784 211.901 89.7915L215.945 84.341L218.795 86.4552Z" fill="#C5C0E5"/>
<path d="M213.634 79.3541L206.99 85.1041C206.031 85.9341 204.58 85.8295 203.75 84.8704C202.92 83.9113 203.025 82.4609 203.984 81.6309L210.628 75.8809L213.634 79.3541Z" fill="#C5C0E5"/>
<path d="M209.116 87.2736L206.595 95.6906C206.231 96.9057 204.951 97.5956 203.736 97.2316C202.521 96.8677 201.831 95.5876 202.195 94.3725L204.716 85.9555L209.116 87.2736Z" fill="#C5C0E5"/>
<path d="M218.503 82.3967L211.036 91.7419C210.12 92.8889 208.447 93.0757 207.3 92.1593L206.72 91.6957C205.573 90.7792 205.386 89.1065 206.302 87.9596L213.77 78.6144L218.503 82.3967Z" fill="#C5C0E5"/>
<path d="M210.29 84.2556L204.009 94.4357C203.238 95.6851 201.6 96.073 200.35 95.3021L199.718 94.9121C198.469 94.1412 198.081 92.5034 198.852 91.254L205.133 81.0739L210.29 84.2556Z" fill="#C5C0E5"/>
</svg>
