<svg width="358" height="270" viewBox="0 0 358 270" fill="none" xmlns="http://www.w3.org/2000/svg">
<path d="M173.577 269.793C245.577 269.793 303.945 211.425 303.945 139.425C303.945 67.4252 245.577 9.05762 173.577 9.05762C101.577 9.05762 43.2098 67.4252 43.2098 139.425C43.2098 211.425 101.577 269.793 173.577 269.793Z" fill="#EAF2FF"/>
<path d="M157.933 101.184H112.739C109.859 101.184 107.525 103.519 107.525 106.399C107.525 109.279 109.859 111.614 112.739 111.614H157.933C160.813 111.614 163.148 109.279 163.148 106.399C163.148 103.519 160.813 101.184 157.933 101.184Z" fill="#E1EBFA"/>
<path d="M157.933 174.19H112.739C109.859 174.19 107.525 176.524 107.525 179.404C107.525 182.284 109.859 184.619 112.739 184.619H157.933C160.813 184.619 163.148 182.284 163.148 179.404C163.148 176.524 160.813 174.19 157.933 174.19Z" fill="#E1EBFA"/>
<path d="M230.939 198.525H116.216C111.416 198.525 107.525 202.416 107.525 207.216V221.122C107.525 225.922 111.416 229.813 116.216 229.813H230.939C235.739 229.813 239.63 225.922 239.63 221.122V207.216C239.63 202.416 235.739 198.525 230.939 198.525Z" fill="#DFEAFB"/>
<path d="M192.698 162.022C197.498 162.022 201.389 158.131 201.389 153.331C201.389 148.531 197.498 144.64 192.698 144.64C187.898 144.64 184.007 148.531 184.007 153.331C184.007 158.131 187.898 162.022 192.698 162.022Z" fill="#DFEAFB"/>
<path d="M199.489 190.477C198.099 190.477 196.8 190.477 195.618 190.402C194.162 190.304 192.762 189.805 191.571 188.962C190.38 188.119 189.444 186.964 188.867 185.624L181.533 171.13C180.996 170.504 180.727 169.691 180.786 168.867C180.846 168.044 181.228 167.277 181.85 166.734C182.359 166.325 182.995 166.104 183.649 166.11C184.13 166.124 184.603 166.242 185.034 166.457C185.465 166.671 185.845 166.976 186.147 167.351L189.477 171.897L189.528 171.956V154.687C189.528 153.83 189.868 153.008 190.474 152.402C191.08 151.796 191.901 151.456 192.758 151.456C193.615 151.456 194.437 151.796 195.042 152.402C195.648 153.008 195.989 153.83 195.989 154.687V165.985C195.951 165.569 196.001 165.15 196.134 164.755C196.267 164.359 196.482 163.996 196.763 163.688C197.045 163.379 197.388 163.133 197.77 162.965C198.152 162.797 198.564 162.71 198.982 162.71C199.399 162.71 199.812 162.797 200.194 162.965C200.576 163.133 200.919 163.379 201.2 163.688C201.482 163.996 201.696 164.359 201.83 164.755C201.963 165.15 202.013 165.569 201.975 165.985V168.34C201.938 167.925 201.987 167.506 202.12 167.11C202.254 166.715 202.468 166.351 202.75 166.043C203.031 165.735 203.374 165.489 203.756 165.32C204.138 165.152 204.551 165.065 204.968 165.065C205.386 165.065 205.799 165.152 206.181 165.32C206.563 165.489 206.905 165.735 207.187 166.043C207.469 166.351 207.683 166.715 207.816 167.11C207.95 167.506 207.999 167.925 207.962 168.34V170.155C207.924 169.739 207.974 169.32 208.107 168.925C208.24 168.529 208.455 168.166 208.736 167.858C209.018 167.549 209.361 167.303 209.743 167.135C210.125 166.967 210.537 166.88 210.955 166.88C211.372 166.88 211.785 166.967 212.167 167.135C212.549 167.303 212.892 167.549 213.173 167.858C213.455 168.166 213.669 168.529 213.803 168.925C213.936 169.32 213.986 169.739 213.948 170.155V181.17C213.889 184.558 212.358 190.27 206.971 190.27C206.58 190.287 203.267 190.479 199.496 190.479L199.489 190.477Z" fill="#1485FD" stroke="white" stroke-width="10.2775"/>
<g filter="url(#filter0_ddd_8822_78858)">
<path d="M225.637 107.661H343.614C344.773 107.661 345.885 108.122 346.704 108.941C347.523 109.761 347.984 110.872 347.984 112.031V133.879C347.984 135.037 347.523 136.149 346.704 136.968C345.885 137.788 344.773 138.248 343.614 138.248H225.637C224.478 138.248 223.367 137.788 222.547 136.968C221.728 136.149 221.267 135.037 221.267 133.879V112.031C221.267 110.872 221.728 109.761 222.547 108.941C223.367 108.122 224.478 107.661 225.637 107.661V107.661Z" fill="white"/>
</g>
<path d="M281.568 114.652H258.847C257.399 114.652 256.225 115.826 256.225 117.274C256.225 118.722 257.399 119.896 258.847 119.896H281.568C283.016 119.896 284.19 118.722 284.19 117.274C284.19 115.826 283.016 114.652 281.568 114.652Z" fill="#B4DAFF"/>
<path d="M297.298 126.013H258.846C257.398 126.013 256.224 127.187 256.224 128.635C256.224 130.083 257.398 131.257 258.846 131.257H297.298C298.746 131.257 299.919 130.083 299.919 128.635C299.919 127.187 298.746 126.013 297.298 126.013Z" fill="#DEE9FC"/>
<path d="M244.863 110.283H228.259C225.845 110.283 223.889 112.239 223.889 114.653V131.257C223.889 133.67 225.845 135.626 228.259 135.626H244.863C247.276 135.626 249.232 133.67 249.232 131.257V114.653C249.232 112.239 247.276 110.283 244.863 110.283Z" fill="#1485FD"/>
<path d="M234.569 125.821H236.317L236.336 125.148C236.336 124.264 236.894 124.033 237.682 123.783C238.473 123.558 239.169 123.082 239.665 122.426C240.161 121.771 240.43 120.971 240.431 120.149C240.449 119.647 240.362 119.147 240.176 118.681C239.99 118.214 239.709 117.791 239.351 117.439C238.993 117.087 238.566 116.812 238.097 116.633C237.628 116.455 237.126 116.375 236.625 116.4C236.095 116.389 235.568 116.485 235.076 116.683C234.584 116.881 234.138 117.177 233.764 117.553C233.39 117.929 233.096 118.377 232.9 118.87C232.705 119.363 232.611 119.89 232.626 120.42H234.433C234.426 120.128 234.478 119.836 234.585 119.564C234.692 119.292 234.852 119.043 235.057 118.834C235.261 118.624 235.505 118.457 235.774 118.343C236.044 118.229 236.334 118.17 236.626 118.169C236.89 118.154 237.155 118.195 237.401 118.291C237.647 118.387 237.87 118.535 238.055 118.725C238.239 118.914 238.38 119.142 238.469 119.391C238.557 119.64 238.591 119.905 238.568 120.169C238.557 120.595 238.408 121.006 238.145 121.342C237.882 121.678 237.518 121.92 237.107 122.033L236.473 122.285C235.851 122.435 235.309 122.812 234.953 123.343C234.597 123.873 234.453 124.518 234.55 125.15L234.569 125.821ZM235.434 129.975C235.606 129.982 235.776 129.953 235.936 129.892C236.096 129.831 236.242 129.739 236.366 129.62C236.49 129.502 236.588 129.36 236.656 129.203C236.724 129.045 236.76 128.876 236.761 128.705C236.759 128.534 236.724 128.365 236.656 128.208C236.588 128.051 236.489 127.909 236.365 127.79C236.242 127.672 236.096 127.58 235.936 127.519C235.776 127.458 235.605 127.43 235.434 127.436C235.263 127.43 235.093 127.458 234.933 127.519C234.773 127.58 234.627 127.672 234.503 127.79C234.38 127.909 234.281 128.051 234.213 128.208C234.145 128.365 234.109 128.534 234.108 128.705C234.109 128.876 234.145 129.045 234.213 129.203C234.28 129.36 234.379 129.502 234.503 129.62C234.626 129.739 234.773 129.831 234.933 129.892C235.093 129.953 235.263 129.982 235.434 129.975V129.975Z" fill="white"/>
<g filter="url(#filter1_ddd_8822_78858)">
<path d="M13.9436 91.0985H120.419C121.465 91.0985 122.468 91.514 123.208 92.2536C123.948 92.9931 124.363 93.9962 124.363 95.0421V114.76C124.363 115.806 123.948 116.809 123.208 117.548C122.468 118.288 121.465 118.703 120.419 118.703H13.9436C12.8977 118.703 11.8946 118.288 11.155 117.548C10.4155 116.809 10 115.806 10 114.76V95.0421C10 93.9962 10.4155 92.9931 11.155 92.2536C11.8946 91.514 12.8977 91.0985 13.9436 91.0985V91.0985Z" fill="white"/>
</g>
<path d="M64.4211 97.4079H43.9146C42.6078 97.4079 41.5485 98.4672 41.5485 99.774C41.5485 101.081 42.6078 102.14 43.9146 102.14H64.4211C65.7278 102.14 66.7872 101.081 66.7872 99.774C66.7872 98.4672 65.7278 97.4079 64.4211 97.4079Z" fill="#B4DAFF"/>
<path d="M78.6172 107.661H43.914C42.6072 107.661 41.5479 108.721 41.5479 110.027C41.5479 111.334 42.6072 112.394 43.914 112.394H78.6172C79.924 112.394 80.9834 111.334 80.9834 110.027C80.9834 108.721 79.924 107.661 78.6172 107.661Z" fill="#DEE9FC"/>
<path d="M31.2949 93.4645H16.3094C14.1314 93.4645 12.3658 95.2301 12.3658 97.4081V112.394C12.3658 114.572 14.1314 116.337 16.3094 116.337H31.2949C33.4729 116.337 35.2384 114.572 35.2384 112.394V97.4081C35.2384 95.2301 33.4729 93.4645 31.2949 93.4645Z" fill="#1485FD"/>
<path d="M22.0051 107.488H23.5826L23.5999 106.88C23.5999 106.082 24.1031 105.874 24.8145 105.648C25.5282 105.445 26.1563 105.016 26.604 104.424C27.0516 103.832 27.2945 103.111 27.2958 102.369C27.3114 101.916 27.2329 101.465 27.065 101.044C26.8972 100.623 26.6438 100.241 26.3209 99.9229C25.9979 99.6049 25.6125 99.3573 25.1889 99.196C24.7653 99.0346 24.3129 98.9629 23.8602 98.9854C23.3818 98.975 22.9062 99.0619 22.4624 99.2407C22.0185 99.4196 21.6156 99.6868 21.2781 100.026C20.9407 100.365 20.6756 100.77 20.499 101.214C20.3225 101.659 20.2381 102.135 20.251 102.614H21.8821C21.8759 102.349 21.9225 102.087 22.0191 101.841C22.1158 101.595 22.2605 101.371 22.4449 101.182C22.6293 100.992 22.8496 100.842 23.0929 100.739C23.3362 100.636 23.5976 100.582 23.8618 100.582C24.1 100.568 24.3384 100.606 24.5609 100.692C24.7833 100.779 24.9844 100.912 25.1507 101.083C25.317 101.254 25.4444 101.459 25.5244 101.684C25.6044 101.909 25.6351 102.149 25.6143 102.386C25.6038 102.771 25.47 103.142 25.2325 103.445C24.9951 103.748 24.6667 103.967 24.2956 104.069L23.7229 104.297C23.1623 104.432 22.6729 104.772 22.3516 105.251C22.0302 105.73 21.9004 106.312 21.9878 106.882L22.0051 107.488ZM22.786 111.237C22.9404 111.243 23.0944 111.217 23.2388 111.162C23.3833 111.107 23.5152 111.024 23.6268 110.917C23.7384 110.81 23.8275 110.682 23.8887 110.54C23.9499 110.398 23.9821 110.245 23.9832 110.09C23.9818 109.936 23.9495 109.783 23.8882 109.642C23.8269 109.5 23.7378 109.372 23.6262 109.265C23.5146 109.158 23.3828 109.075 23.2385 109.02C23.0942 108.965 22.9403 108.94 22.786 108.945C22.6316 108.94 22.4778 108.965 22.3334 109.02C22.1891 109.075 22.0573 109.158 21.9457 109.265C21.8341 109.372 21.745 109.5 21.6837 109.642C21.6224 109.783 21.5901 109.936 21.5887 110.09C21.5899 110.245 21.622 110.398 21.6832 110.54C21.7444 110.682 21.8335 110.81 21.9451 110.917C22.0567 111.024 22.1887 111.107 22.3331 111.162C22.4775 111.217 22.6315 111.243 22.786 111.237V111.237Z" fill="white"/>
<g filter="url(#filter2_ddd_8822_78858)">
<path d="M94.7362 9.05762H286.817C288.703 9.05762 290.513 9.80713 291.847 11.1413C293.181 12.4754 293.931 14.2849 293.931 16.1717V51.7421C293.931 53.6289 293.181 55.4384 291.847 56.7726C290.513 58.1067 288.703 58.8562 286.817 58.8562H94.7362C92.8494 58.8562 91.0399 58.1067 89.7057 56.7726C88.3716 55.4384 87.6221 53.6289 87.6221 51.7421V16.1717C87.6221 14.2849 88.3716 12.4754 89.7057 11.1413C91.0399 9.80713 92.8494 9.05762 94.7362 9.05762V9.05762Z" fill="white"/>
<path d="M185.797 20.44H148.804C146.446 20.44 144.535 22.351 144.535 24.7084C144.535 27.0658 146.446 28.9769 148.804 28.9769H185.797C188.154 28.9769 190.065 27.0658 190.065 24.7084C190.065 22.351 188.154 20.44 185.797 20.44Z" fill="#B4DAFF"/>
<path d="M211.407 38.9366H148.803C146.446 38.9366 144.535 40.8476 144.535 43.205C144.535 45.5624 146.446 47.4735 148.803 47.4735H211.407C213.765 47.4735 215.676 45.5624 215.676 43.205C215.676 40.8476 213.765 38.9366 211.407 38.9366Z" fill="#DEE9FC"/>
<path d="M126.038 13.326H99.0046C95.0756 13.326 91.8905 16.5111 91.8905 20.4401V47.4736C91.8905 51.4026 95.0756 54.5877 99.0046 54.5877H126.038C129.967 54.5877 133.152 51.4026 133.152 47.4736V20.4401C133.152 16.5111 129.967 13.326 126.038 13.326Z" fill="#1485FD"/>
<path d="M109.28 38.6234H112.125L112.157 37.5278C112.157 36.0879 113.064 35.7123 114.348 35.3053C115.635 34.9391 116.768 34.1637 117.576 33.0964C118.383 32.029 118.821 30.7277 118.824 29.3893C118.852 28.5721 118.71 27.7579 118.408 26.9984C118.105 26.2388 117.648 25.5503 117.065 24.9766C116.482 24.4028 115.787 23.9563 115.023 23.6652C114.259 23.374 113.443 23.2447 112.626 23.2854C111.763 23.2666 110.905 23.4233 110.104 23.746C109.304 24.0687 108.577 24.5506 107.968 25.1626C107.359 25.7747 106.881 26.504 106.563 27.3063C106.244 28.1087 106.092 28.9674 106.115 29.8303H109.058C109.046 29.3539 109.131 28.88 109.305 28.4364C109.479 27.9928 109.74 27.5885 110.073 27.2471C110.406 26.9058 110.803 26.6343 111.242 26.4485C111.681 26.2627 112.152 26.1664 112.629 26.1652C113.059 26.1402 113.489 26.2082 113.89 26.3643C114.291 26.5204 114.654 26.761 114.954 27.0699C115.254 27.3787 115.484 27.7485 115.628 28.1541C115.773 28.5598 115.828 28.9917 115.79 29.4206C115.771 30.1148 115.53 30.7845 115.102 31.3311C114.673 31.8778 114.081 32.2724 113.411 32.4569L112.378 32.8666C111.367 33.1103 110.484 33.7249 109.905 34.5887C109.325 35.4524 109.091 36.5024 109.248 37.5306L109.28 38.6234ZM110.688 45.3874C110.967 45.3973 111.245 45.3513 111.505 45.2519C111.766 45.1526 112.004 45.0021 112.205 44.8092C112.406 44.6164 112.567 44.3851 112.677 44.1291C112.788 43.873 112.846 43.5975 112.848 43.3187C112.846 43.0401 112.787 42.7648 112.677 42.5091C112.566 42.2534 112.405 42.0225 112.204 41.8299C112.003 41.6374 111.765 41.4871 111.505 41.3879C111.244 41.2888 110.967 41.2428 110.688 41.2527C110.41 41.2428 110.132 41.2888 109.872 41.3879C109.611 41.4871 109.374 41.6374 109.172 41.8299C108.971 42.0225 108.81 42.2534 108.7 42.5091C108.589 42.7648 108.531 43.0401 108.528 43.3187C108.53 43.5975 108.588 43.873 108.699 44.1291C108.809 44.3851 108.97 44.6164 109.171 44.8092C109.373 45.0021 109.611 45.1526 109.871 45.2519C110.132 45.3513 110.41 45.3973 110.688 45.3874V45.3874Z" fill="white"/>
</g>
<path d="M206.089 109.453C206.089 125.858 192.745 139.156 176.284 139.156C159.823 139.156 146.478 125.858 146.478 109.453C146.478 93.0493 159.823 79.751 176.284 79.751C192.745 79.751 206.089 93.0493 206.089 109.453Z" fill="#263238"/>
<path d="M162.727 136.331H187.666V164.203H162.727V136.331Z" fill="#E48BE2"/>
<ellipse cx="149.151" cy="124.767" rx="5.75549" ry="5.54994" fill="#263238"/>
<ellipse cx="162.717" cy="134.839" rx="5.75549" ry="5.54994" fill="#263238"/>
<ellipse cx="202.492" cy="118.703" rx="4.8305" ry="4.62495" fill="#263238"/>
<ellipse cx="206.192" cy="111.715" rx="4.8305" ry="4.62495" fill="#263238"/>
<ellipse cx="152.747" cy="89.5145" rx="4.8305" ry="4.62495" fill="#263238"/>
<ellipse cx="157.474" cy="84.3756" rx="4.8305" ry="4.62495" fill="#263238"/>
<ellipse cx="164.978" cy="80.5733" rx="5.96105" ry="5.75549" fill="#263238"/>
<ellipse cx="182.758" cy="80.0594" rx="4.8305" ry="4.62495" fill="#263238"/>
<ellipse cx="155.008" cy="130.42" rx="4.8305" ry="4.62495" fill="#263238"/>
<ellipse cx="190.981" cy="80.676" rx="4.8305" ry="4.62495" fill="#263238"/>
<ellipse cx="207.219" cy="102.876" rx="4.8305" ry="4.62495" fill="#263238"/>
<ellipse cx="206.192" cy="95.0648" rx="5.85827" ry="5.65272" fill="#263238"/>
<ellipse cx="146.478" cy="118.395" rx="5.75549" ry="5.54994" fill="#263238"/>
<path d="M165.594 122.711C165.594 126.231 162.695 129.084 159.119 129.084C155.543 129.084 152.644 126.231 152.644 122.711C152.644 119.192 155.543 116.339 159.119 116.339C162.695 116.339 165.594 119.192 165.594 122.711Z" fill="#E48BE2"/>
<circle cx="198.38" cy="87.2538" r="7.70825" fill="#263238"/>
<ellipse cx="150.898" cy="96.7092" rx="7.5027" ry="7.29714" fill="#263238"/>
<ellipse cx="173.714" cy="80.0594" rx="7.5027" ry="7.29714" fill="#263238"/>
<ellipse cx="146.89" cy="103.801" rx="5.75549" ry="5.54994" fill="#263238"/>
<ellipse cx="146.478" cy="109.762" rx="5.75549" ry="5.54994" fill="#263238"/>
<path d="M168.473 136.278H182.039V150.05H175.613C171.669 150.05 168.473 146.805 168.473 142.802V136.278Z" fill="#191059"/>
<path d="M162.717 109.084C162.717 104.123 166.718 100.101 171.654 100.101H194.891C199.826 100.101 203.828 104.123 203.828 109.084V127.768C203.828 137.69 195.825 145.734 185.954 145.734H162.717V109.084Z" fill="#E48BE2"/>
<path fill-rule="evenodd" clip-rule="evenodd" d="M175.725 111.799C175.196 112.01 174.812 112.299 174.598 112.625C174.438 112.87 174.106 112.941 173.857 112.782C173.608 112.624 173.537 112.297 173.697 112.052C174.067 111.487 174.661 111.083 175.322 110.819C175.987 110.553 176.755 110.414 177.527 110.401C179.049 110.376 180.734 110.843 181.71 112C181.899 112.225 181.868 112.558 181.64 112.745C181.412 112.931 181.074 112.9 180.885 112.676C180.197 111.86 178.891 111.436 177.546 111.458C176.885 111.469 176.25 111.589 175.725 111.799Z" fill="#191059"/>
<path fill-rule="evenodd" clip-rule="evenodd" d="M181.075 135.055C180.235 135.404 179.627 135.881 179.288 136.42C179.033 136.825 178.507 136.941 178.112 136.68C177.718 136.418 177.604 135.878 177.859 135.473C178.446 134.54 179.388 133.873 180.436 133.436C181.49 132.998 182.708 132.768 183.933 132.746C186.346 132.704 189.019 133.476 190.566 135.388C190.867 135.759 190.817 136.31 190.456 136.618C190.094 136.926 189.558 136.875 189.258 136.504C188.167 135.156 186.097 134.455 183.962 134.492C182.914 134.511 181.908 134.708 181.075 135.055Z" fill="#191059"/>
<path fill-rule="evenodd" clip-rule="evenodd" d="M190.841 113.402C190.384 113.061 190.089 112.683 189.967 112.312C189.875 112.034 189.573 111.88 189.291 111.968C189.01 112.057 188.856 112.354 188.948 112.633C189.159 113.274 189.628 113.818 190.198 114.244C190.772 114.673 191.477 115.006 192.22 115.218C193.683 115.637 195.432 115.622 196.674 114.756C196.915 114.588 196.971 114.258 196.799 114.019C196.628 113.78 196.293 113.722 196.052 113.89C195.176 114.5 193.806 114.572 192.512 114.202C191.876 114.02 191.294 113.741 190.841 113.402Z" fill="#191059"/>
<path fill-rule="evenodd" clip-rule="evenodd" d="M185.74 117.832C185.906 117.728 186.124 117.78 186.227 117.947L185.926 118.136C186.227 117.947 186.227 117.947 186.227 117.947L186.23 117.953L186.239 117.968C186.247 117.981 186.259 118 186.274 118.025C186.304 118.075 186.348 118.148 186.403 118.242C186.513 118.429 186.668 118.698 186.849 119.027C187.212 119.683 187.681 120.582 188.107 121.545C188.532 122.505 188.92 123.543 189.11 124.478C189.294 125.386 189.316 126.307 188.867 126.931C188.035 128.087 186.609 128.152 185.522 127.991C184.963 127.909 184.455 127.763 184.089 127.638C183.905 127.576 183.755 127.518 183.65 127.476C183.597 127.455 183.556 127.438 183.528 127.425C183.513 127.419 183.502 127.414 183.494 127.411L183.485 127.407L183.482 127.405L183.482 127.405C183.482 127.405 183.481 127.405 183.626 127.079L183.481 127.405C183.303 127.324 183.223 127.112 183.304 126.932C183.384 126.752 183.593 126.671 183.771 126.752C183.771 126.752 183.771 126.752 183.771 126.752M183.771 126.752L183.773 126.753L183.779 126.756C183.784 126.758 183.793 126.762 183.805 126.767C183.829 126.777 183.865 126.793 183.912 126.812C184.007 126.85 184.144 126.903 184.314 126.96C184.655 127.076 185.12 127.209 185.624 127.284C186.659 127.436 187.711 127.322 188.294 126.511C188.553 126.151 188.596 125.507 188.416 124.622C188.241 123.762 187.877 122.777 187.461 121.837C187.047 120.899 186.587 120.021 186.231 119.375C186.053 119.053 185.901 118.789 185.794 118.607C185.741 118.516 185.698 118.445 185.669 118.397C185.655 118.373 185.644 118.355 185.637 118.343L185.628 118.329L185.626 118.325" fill="#191059"/>
<path d="M179.572 119.32C179.572 120.171 178.836 120.862 177.928 120.862C177.02 120.862 176.284 120.171 176.284 119.32C176.284 118.469 177.02 117.778 177.928 117.778C178.836 117.778 179.572 118.469 179.572 119.32Z" fill="#191059"/>
<path d="M194.578 119.32C194.578 120.171 193.842 120.862 192.933 120.862C192.025 120.862 191.289 120.171 191.289 119.32C191.289 118.469 192.025 117.778 192.933 117.778C193.842 117.778 194.578 118.469 194.578 119.32Z" fill="#191059"/>
<path fill-rule="evenodd" clip-rule="evenodd" d="M187.709 151.101C187.316 157.655 181.88 162.848 175.233 162.848C168.585 162.848 163.149 157.655 162.757 151.101C138.885 154.731 121.292 176.551 123.717 201.403L130.33 269.172H220.135L226.748 201.403C229.173 176.551 211.58 154.731 187.709 151.101Z" fill="#4A31FF"/>
<path d="M266.391 238.85C253.116 243.612 242.671 235.745 234.401 222.703C235.465 218.825 247.377 211.145 252.022 209.431C253.081 209.04 254.422 211.524 254.422 211.524C254.422 211.524 266.652 188.169 274.051 169.745L283.749 168.878C282.226 190.615 278.098 234.651 266.391 238.85Z" fill="#E48BE2"/>
<path d="M84.5395 238.628C97.8141 243.389 108.26 235.522 116.529 222.48C115.466 218.603 103.554 210.922 98.9083 209.208C97.8492 208.818 96.5084 211.301 96.5084 211.301C96.5084 211.301 84.2784 187.947 76.8794 169.522L67.1812 168.655C68.7045 190.392 72.8323 234.428 84.5395 238.628Z" fill="#E48BE2"/>
<path d="M254.367 217.941V211.449L252.168 208.32L245.318 213.563L250.933 219.336C252.185 220.623 254.367 219.736 254.367 217.941Z" fill="#191059"/>
<path d="M254.301 210.785C221.118 155.23 194.419 151.573 188.234 151.366L195.164 174.546L233.973 223.27L254.301 210.785Z" fill="#4A31FF"/>
<path d="M96.568 217.772V211.28L98.7667 208.151L105.616 213.394L100.002 219.167C98.7499 220.453 96.568 219.567 96.568 217.772Z" fill="#191059"/>
<path d="M96.6297 210.563C129.813 155.008 156.511 151.35 162.697 151.143L155.767 174.323L116.958 223.048L96.6297 210.563Z" fill="#4A31FF"/>
<path fill-rule="evenodd" clip-rule="evenodd" d="M191.845 154.029C192.095 154.082 192.256 154.33 192.204 154.584C191.807 156.512 190.68 159.875 188.19 162.765C185.686 165.67 181.817 168.082 175.995 168.082C164.6 168.082 159.97 160.393 159.319 156.44C159.277 156.185 159.448 155.943 159.7 155.901C159.952 155.858 160.191 156.031 160.233 156.286C160.818 159.833 165.098 167.144 175.995 167.144C181.526 167.144 185.148 164.868 187.491 162.149C189.847 159.414 190.921 156.214 191.296 154.392C191.349 154.139 191.594 153.976 191.845 154.029Z" fill="#3322B2"/>
<path fill-rule="evenodd" clip-rule="evenodd" d="M250.488 207.262C250.623 207.479 250.555 207.765 250.338 207.899L232.972 218.628C232.755 218.763 232.47 218.695 232.335 218.478C232.201 218.26 232.268 217.975 232.486 217.841L249.851 207.111C250.069 206.977 250.354 207.044 250.488 207.262Z" fill="#3322B2"/>
<path fill-rule="evenodd" clip-rule="evenodd" d="M100.442 207.039C100.308 207.257 100.375 207.542 100.593 207.676L117.958 218.406C118.175 218.54 118.461 218.473 118.595 218.255C118.729 218.038 118.662 217.753 118.445 217.618L101.079 206.889C100.862 206.755 100.577 206.822 100.442 207.039Z" fill="#3322B2"/>
<ellipse cx="282.357" cy="162.038" rx="10.7418" ry="5.78405" transform="rotate(-16.8166 282.357 162.038)" fill="#E48BE2"/>
<path d="M285.926 162.159L291.842 156.243C293.011 155.073 293.011 153.176 291.842 152.007V152.007C290.672 150.837 288.775 150.837 287.606 152.007L281.69 157.922L285.926 162.159Z" fill="#E48BE2"/>
<path d="M297.51 154.388L300.001 149.739C300.361 149.068 301.196 148.815 301.867 149.175V149.175C302.538 149.534 302.791 150.37 302.431 151.041L299.94 155.69L297.51 154.388Z" fill="#E48BE2"/>
<path d="M293.962 157.701L297.866 154.154C298.429 153.642 299.301 153.684 299.813 154.248V154.248C300.325 154.811 300.284 155.683 299.72 156.195L295.817 159.742L293.962 157.701Z" fill="#E48BE2"/>
<path d="M300.156 153.598L303.381 147.58C303.847 146.711 304.928 146.384 305.797 146.849V146.849C306.666 147.315 306.993 148.397 306.527 149.266L303.302 155.284L300.156 153.598Z" fill="#E48BE2"/>
<path d="M295.563 157.888L300.617 153.296C301.346 152.633 302.475 152.687 303.138 153.417V153.417C303.801 154.146 303.747 155.275 303.017 155.938L297.964 160.53L295.563 157.888Z" fill="#E48BE2"/>
<rect x="271.417" y="162.97" width="28.094" height="9.50238" rx="4.75119" transform="rotate(-16.8166 271.417 162.97)" fill="#E48BE2"/>
<path d="M302.34 155.327L306.594 147.388C307.209 146.241 308.635 145.81 309.782 146.424V146.424C310.928 147.038 311.359 148.465 310.745 149.611L306.491 157.551L302.34 155.327Z" fill="#E48BE2"/>
<path d="M296.282 160.986L302.948 154.929C303.91 154.054 305.399 154.125 306.274 155.088V155.088C307.148 156.05 307.077 157.539 306.115 158.413L299.449 164.471L296.282 160.986Z" fill="#E48BE2"/>
<ellipse rx="10.7418" ry="5.78405" transform="matrix(-0.957236 -0.289309 -0.289309 0.957236 68.5786 161.815)" fill="#E48BE2"/>
<path d="M65.0096 161.936L59.0938 156.02C57.9241 154.85 57.9241 152.954 59.0938 151.784V151.784C60.2636 150.614 62.1601 150.614 63.3298 151.784L69.2457 157.7L65.0096 161.936Z" fill="#E48BE2"/>
<path d="M53.4258 154.165L50.9348 149.516C50.5752 148.845 49.7396 148.592 49.0685 148.952V148.952C48.3974 149.311 48.1449 150.147 48.5045 150.818L50.9955 155.467L53.4258 154.165Z" fill="#E48BE2"/>
<path d="M56.9734 157.478L53.07 153.931C52.5065 153.419 51.6346 153.461 51.1226 154.025V154.025C50.6105 154.588 50.6522 155.46 51.2157 155.972L55.1191 159.519L56.9734 157.478Z" fill="#E48BE2"/>
<path d="M50.7793 153.375L47.5544 147.357C47.0889 146.488 46.0071 146.161 45.1383 146.627V146.627C44.2695 147.092 43.9426 148.174 44.4081 149.043L47.633 155.061L50.7793 153.375Z" fill="#E48BE2"/>
<path d="M55.3721 157.666L50.3186 153.074C49.5892 152.411 48.4604 152.465 47.7975 153.194V153.194C47.1346 153.924 47.1886 155.052 47.9181 155.715L52.9715 160.307L55.3721 157.666Z" fill="#E48BE2"/>
<rect width="28.094" height="9.50238" rx="4.75119" transform="matrix(-0.957236 -0.289309 -0.289309 0.957236 79.5186 162.747)" fill="#E48BE2"/>
<path d="M48.5951 155.104L44.341 147.165C43.7269 146.019 42.3 145.587 41.1539 146.201V146.201C40.0078 146.816 39.5765 148.242 40.1906 149.389L44.4447 157.328L48.5951 155.104Z" fill="#E48BE2"/>
<path d="M54.6534 160.763L47.9873 154.706C47.025 153.831 45.536 153.903 44.6616 154.865V154.865C43.7872 155.827 43.8584 157.316 44.8207 158.191L51.4868 164.248L54.6534 160.763Z" fill="#E48BE2"/>
<rect x="178.538" y="145.784" width="9.12778" height="4.2379" fill="#191059"/>
<defs>
<filter id="filter0_ddd_8822_78858" x="211.267" y="98.6613" width="146.716" height="50.5867" filterUnits="userSpaceOnUse" color-interpolation-filters="sRGB">
<feFlood flood-opacity="0" result="BackgroundImageFix"/>
<feColorMatrix in="SourceAlpha" type="matrix" values="0 0 0 0 0 0 0 0 0 0 0 0 0 0 0 0 0 0 127 0" result="hardAlpha"/>
<feOffset dy="1"/>
<feGaussianBlur stdDeviation="5"/>
<feComposite in2="hardAlpha" operator="out"/>
<feColorMatrix type="matrix" values="0 0 0 0 0.913725 0 0 0 0 0.913725 0 0 0 0 0.913725 0 0 0 0.12 0"/>
<feBlend mode="normal" in2="BackgroundImageFix" result="effect1_dropShadow_8822_78858"/>
<feColorMatrix in="SourceAlpha" type="matrix" values="0 0 0 0 0 0 0 0 0 0 0 0 0 0 0 0 0 0 127 0" result="hardAlpha"/>
<feOffset dy="4"/>
<feGaussianBlur stdDeviation="2.5"/>
<feComposite in2="hardAlpha" operator="out"/>
<feColorMatrix type="matrix" values="0 0 0 0 0.913725 0 0 0 0 0.913725 0 0 0 0 0.913725 0 0 0 0.14 0"/>
<feBlend mode="normal" in2="effect1_dropShadow_8822_78858" result="effect2_dropShadow_8822_78858"/>
<feColorMatrix in="SourceAlpha" type="matrix" values="0 0 0 0 0 0 0 0 0 0 0 0 0 0 0 0 0 0 127 0" result="hardAlpha"/>
<feMorphology radius="1" operator="erode" in="SourceAlpha" result="effect3_dropShadow_8822_78858"/>
<feOffset dy="2"/>
<feGaussianBlur stdDeviation="2"/>
<feComposite in2="hardAlpha" operator="out"/>
<feColorMatrix type="matrix" values="0 0 0 0 0.913725 0 0 0 0 0.913725 0 0 0 0 0.913725 0 0 0 0.8 0"/>
<feBlend mode="normal" in2="effect2_dropShadow_8822_78858" result="effect3_dropShadow_8822_78858"/>
<feBlend mode="normal" in="SourceGraphic" in2="effect3_dropShadow_8822_78858" result="shape"/>
</filter>
<filter id="filter1_ddd_8822_78858" x="0" y="82.0985" width="134.363" height="47.6049" filterUnits="userSpaceOnUse" color-interpolation-filters="sRGB">
<feFlood flood-opacity="0" result="BackgroundImageFix"/>
<feColorMatrix in="SourceAlpha" type="matrix" values="0 0 0 0 0 0 0 0 0 0 0 0 0 0 0 0 0 0 127 0" result="hardAlpha"/>
<feOffset dy="1"/>
<feGaussianBlur stdDeviation="5"/>
<feComposite in2="hardAlpha" operator="out"/>
<feColorMatrix type="matrix" values="0 0 0 0 0.913725 0 0 0 0 0.913725 0 0 0 0 0.913725 0 0 0 0.12 0"/>
<feBlend mode="normal" in2="BackgroundImageFix" result="effect1_dropShadow_8822_78858"/>
<feColorMatrix in="SourceAlpha" type="matrix" values="0 0 0 0 0 0 0 0 0 0 0 0 0 0 0 0 0 0 127 0" result="hardAlpha"/>
<feOffset dy="4"/>
<feGaussianBlur stdDeviation="2.5"/>
<feComposite in2="hardAlpha" operator="out"/>
<feColorMatrix type="matrix" values="0 0 0 0 0.913725 0 0 0 0 0.913725 0 0 0 0 0.913725 0 0 0 0.14 0"/>
<feBlend mode="normal" in2="effect1_dropShadow_8822_78858" result="effect2_dropShadow_8822_78858"/>
<feColorMatrix in="SourceAlpha" type="matrix" values="0 0 0 0 0 0 0 0 0 0 0 0 0 0 0 0 0 0 127 0" result="hardAlpha"/>
<feMorphology radius="1" operator="erode" in="SourceAlpha" result="effect3_dropShadow_8822_78858"/>
<feOffset dy="2"/>
<feGaussianBlur stdDeviation="2"/>
<feComposite in2="hardAlpha" operator="out"/>
<feColorMatrix type="matrix" values="0 0 0 0 0.913725 0 0 0 0 0.913725 0 0 0 0 0.913725 0 0 0 0.8 0"/>
<feBlend mode="normal" in2="effect2_dropShadow_8822_78858" result="effect3_dropShadow_8822_78858"/>
<feBlend mode="normal" in="SourceGraphic" in2="effect3_dropShadow_8822_78858" result="shape"/>
</filter>
<filter id="filter2_ddd_8822_78858" x="77.6221" y="0.0576172" width="226.309" height="69.7986" filterUnits="userSpaceOnUse" color-interpolation-filters="sRGB">
<feFlood flood-opacity="0" result="BackgroundImageFix"/>
<feColorMatrix in="SourceAlpha" type="matrix" values="0 0 0 0 0 0 0 0 0 0 0 0 0 0 0 0 0 0 127 0" result="hardAlpha"/>
<feOffset dy="1"/>
<feGaussianBlur stdDeviation="5"/>
<feComposite in2="hardAlpha" operator="out"/>
<feColorMatrix type="matrix" values="0 0 0 0 0.913725 0 0 0 0 0.913725 0 0 0 0 0.913725 0 0 0 0.12 0"/>
<feBlend mode="normal" in2="BackgroundImageFix" result="effect1_dropShadow_8822_78858"/>
<feColorMatrix in="SourceAlpha" type="matrix" values="0 0 0 0 0 0 0 0 0 0 0 0 0 0 0 0 0 0 127 0" result="hardAlpha"/>
<feOffset dy="4"/>
<feGaussianBlur stdDeviation="2.5"/>
<feComposite in2="hardAlpha" operator="out"/>
<feColorMatrix type="matrix" values="0 0 0 0 0.913725 0 0 0 0 0.913725 0 0 0 0 0.913725 0 0 0 0.14 0"/>
<feBlend mode="normal" in2="effect1_dropShadow_8822_78858" result="effect2_dropShadow_8822_78858"/>
<feColorMatrix in="SourceAlpha" type="matrix" values="0 0 0 0 0 0 0 0 0 0 0 0 0 0 0 0 0 0 127 0" result="hardAlpha"/>
<feMorphology radius="1" operator="erode" in="SourceAlpha" result="effect3_dropShadow_8822_78858"/>
<feOffset dy="2"/>
<feGaussianBlur stdDeviation="2"/>
<feComposite in2="hardAlpha" operator="out"/>
<feColorMatrix type="matrix" values="0 0 0 0 0.913725 0 0 0 0 0.913725 0 0 0 0 0.913725 0 0 0 0.8 0"/>
<feBlend mode="normal" in2="effect2_dropShadow_8822_78858" result="effect3_dropShadow_8822_78858"/>
<feBlend mode="normal" in="SourceGraphic" in2="effect3_dropShadow_8822_78858" result="shape"/>
</filter>
</defs>
</svg>
