<svg width="358" height="270" viewBox="0 0 358 270" fill="none" xmlns="http://www.w3.org/2000/svg">
<path d="M173.577 269.793C245.577 269.793 303.945 211.425 303.945 139.425C303.945 67.4252 245.577 9.05762 173.577 9.05762C101.577 9.05762 43.2098 67.4252 43.2098 139.425C43.2098 211.425 101.577 269.793 173.577 269.793Z" fill="#4A31FF" fill-opacity="0.08"/>
<g filter="url(#filter0_ddd_8822_80266)">
<path d="M225.637 108.161H226.137H343.614C344.64 108.161 345.625 108.569 346.35 109.295C347.076 110.02 347.484 111.005 347.484 112.031V133.879C347.484 134.905 347.076 135.889 346.35 136.615C345.625 137.34 344.64 137.748 343.614 137.748H225.637C224.611 137.748 223.626 137.34 222.901 136.615C222.175 135.889 221.767 134.905 221.767 133.879V112.031C221.767 111.005 222.175 110.02 222.901 109.295C223.626 108.569 224.611 108.161 225.637 108.161Z" fill="white" stroke="#4A31FF"/>
</g>
<path d="M258.847 115.152H281.568C282.74 115.152 283.69 116.102 283.69 117.274C283.69 118.446 282.74 119.396 281.568 119.396H258.847C257.675 119.396 256.725 118.446 256.725 117.274C256.725 116.102 257.675 115.152 258.847 115.152Z" fill="#B4DAFF" stroke="#4A31FF"/>
<path d="M258.846 126.513H297.298C298.47 126.513 299.419 127.463 299.419 128.635C299.419 129.807 298.47 130.757 297.298 130.757H258.846C257.674 130.757 256.724 129.807 256.724 128.635C256.724 127.463 257.674 126.513 258.846 126.513Z" fill="#DEE9FC" stroke="#4A31FF"/>
<path d="M228.259 110.783H244.863C247 110.783 248.732 112.516 248.732 114.653V131.257C248.732 133.394 247 135.126 244.863 135.126H228.259C226.121 135.126 224.389 133.394 224.389 131.257V114.653C224.389 112.516 226.121 110.783 228.259 110.783Z" fill="white" stroke="#4A31FF"/>
<path d="M234.569 125.821H236.317L236.336 125.148C236.336 124.264 236.894 124.033 237.682 123.783C238.473 123.558 239.169 123.082 239.665 122.426C240.161 121.771 240.43 120.972 240.431 120.149C240.449 119.647 240.362 119.147 240.176 118.681C239.99 118.214 239.709 117.792 239.351 117.439C238.993 117.087 238.566 116.812 238.097 116.634C237.628 116.455 237.126 116.375 236.625 116.4C236.095 116.389 235.568 116.485 235.076 116.683C234.584 116.881 234.138 117.177 233.764 117.553C233.39 117.929 233.096 118.377 232.9 118.87C232.705 119.363 232.611 119.89 232.626 120.42H234.433C234.426 120.128 234.478 119.837 234.585 119.564C234.692 119.292 234.852 119.043 235.057 118.834C235.261 118.624 235.505 118.457 235.774 118.343C236.044 118.229 236.334 118.17 236.626 118.169C236.89 118.154 237.155 118.196 237.401 118.291C237.647 118.387 237.87 118.535 238.055 118.725C238.239 118.915 238.38 119.142 238.469 119.391C238.557 119.64 238.591 119.905 238.568 120.169C238.557 120.595 238.408 121.006 238.145 121.342C237.882 121.678 237.518 121.92 237.107 122.034L236.473 122.285C235.851 122.435 235.309 122.812 234.953 123.343C234.597 123.873 234.453 124.518 234.55 125.15L234.569 125.821ZM235.434 129.976C235.606 129.982 235.776 129.953 235.936 129.892C236.096 129.831 236.242 129.739 236.366 129.62C236.49 129.502 236.588 129.36 236.656 129.203C236.724 129.045 236.76 128.876 236.761 128.705C236.759 128.534 236.724 128.365 236.656 128.208C236.588 128.051 236.489 127.909 236.365 127.791C236.242 127.672 236.096 127.58 235.936 127.519C235.776 127.458 235.605 127.43 235.434 127.436C235.263 127.43 235.093 127.458 234.933 127.519C234.773 127.58 234.627 127.672 234.503 127.791C234.38 127.909 234.281 128.051 234.213 128.208C234.145 128.365 234.109 128.534 234.108 128.705C234.109 128.876 234.145 129.045 234.213 129.203C234.28 129.36 234.379 129.502 234.503 129.62C234.626 129.739 234.773 129.831 234.933 129.892C235.093 129.953 235.263 129.982 235.434 129.976Z" fill="#4A31FF"/>
<g filter="url(#filter1_ddd_8822_80266)">
<path d="M13.9436 91.5985H14.4436H120.419C121.333 91.5985 122.209 91.9613 122.854 92.6071C123.5 93.2529 123.863 94.1288 123.863 95.0421V114.76C123.863 115.673 123.5 116.549 122.854 117.195C122.209 117.841 121.333 118.203 120.419 118.203H13.9436C13.0303 118.203 12.1544 117.841 11.5086 117.195C10.8628 116.549 10.5 115.673 10.5 114.76V95.0421C10.5 94.1288 10.8628 93.2529 11.5086 92.6071C12.1544 91.9613 13.0303 91.5985 13.9436 91.5985Z" fill="white" stroke="#4A31FF"/>
</g>
<path d="M43.9146 97.9078H64.4211C65.4517 97.9078 66.2872 98.7433 66.2872 99.774C66.2872 100.805 65.4517 101.64 64.4211 101.64H43.9146C42.884 101.64 42.0485 100.805 42.0485 99.774C42.0485 98.7433 42.884 97.9078 43.9146 97.9078Z" fill="#B4DAFF" stroke="#4A31FF"/>
<path d="M43.914 108.161H78.6172C79.6479 108.161 80.4834 108.997 80.4834 110.027C80.4834 111.058 79.6479 111.894 78.6172 111.894H43.914C42.8833 111.894 42.0479 111.058 42.0479 110.027C42.0479 108.997 42.8833 108.161 43.914 108.161Z" fill="#DEE9FC" stroke="#4A31FF"/>
<path d="M16.3094 93.9645H31.2949C33.1967 93.9645 34.7384 95.5062 34.7384 97.408V112.394C34.7384 114.295 33.1967 115.837 31.2949 115.837H16.3094C14.4076 115.837 12.8658 114.295 12.8658 112.394V97.408C12.8658 95.5062 14.4076 93.9645 16.3094 93.9645Z" fill="white" stroke="#4A31FF"/>
<path d="M22.0051 107.488H23.5826L23.5999 106.88C23.5999 106.082 24.1031 105.874 24.8145 105.648C25.5282 105.445 26.1563 105.016 26.604 104.424C27.0516 103.832 27.2945 103.111 27.2958 102.369C27.3114 101.916 27.2329 101.465 27.065 101.044C26.8972 100.623 26.6438 100.241 26.3209 99.9229C25.9979 99.6048 25.6125 99.3573 25.1889 99.1959C24.7653 99.0345 24.3129 98.9628 23.8602 98.9854C23.3818 98.9749 22.9062 99.0618 22.4624 99.2407C22.0185 99.4196 21.6156 99.6867 21.2781 100.026C20.9407 100.365 20.6756 100.77 20.499 101.214C20.3225 101.659 20.2381 102.135 20.251 102.613H21.8821C21.8759 102.349 21.9225 102.087 22.0191 101.841C22.1158 101.595 22.2605 101.371 22.4449 101.181C22.6293 100.992 22.8496 100.842 23.0929 100.739C23.3362 100.636 23.5976 100.582 23.8618 100.582C24.1 100.568 24.3384 100.606 24.5609 100.692C24.7833 100.779 24.9844 100.912 25.1507 101.083C25.317 101.254 25.4444 101.459 25.5244 101.684C25.6044 101.909 25.6351 102.149 25.6143 102.386C25.6038 102.771 25.47 103.142 25.2325 103.445C24.9951 103.748 24.6667 103.967 24.2956 104.069L23.7229 104.297C23.1623 104.432 22.6729 104.772 22.3516 105.251C22.0302 105.73 21.9004 106.312 21.9878 106.882L22.0051 107.488ZM22.786 111.237C22.9404 111.243 23.0944 111.217 23.2388 111.162C23.3833 111.107 23.5152 111.024 23.6268 110.917C23.7384 110.81 23.8275 110.682 23.8887 110.54C23.9499 110.398 23.9821 110.245 23.9832 110.09C23.9818 109.936 23.9495 109.783 23.8882 109.642C23.8269 109.5 23.7378 109.372 23.6262 109.265C23.5146 109.158 23.3828 109.075 23.2385 109.02C23.0942 108.965 22.9403 108.94 22.786 108.945C22.6316 108.94 22.4778 108.965 22.3334 109.02C22.1891 109.075 22.0573 109.158 21.9457 109.265C21.8341 109.372 21.745 109.5 21.6837 109.642C21.6224 109.783 21.5901 109.936 21.5887 110.09C21.5899 110.245 21.622 110.398 21.6832 110.54C21.7444 110.682 21.8335 110.81 21.9451 110.917C22.0567 111.024 22.1887 111.107 22.3331 111.162C22.4775 111.217 22.6315 111.243 22.786 111.237Z" fill="#4A31FF"/>
<g filter="url(#filter2_ddd_8822_80266)">
<path d="M94.7362 9.55762H95.2362H286.817C288.571 9.55762 290.253 10.2545 291.493 11.4948C292.734 12.7352 293.431 14.4175 293.431 16.1717V51.7421C293.431 53.4963 292.734 55.1786 291.493 56.419C290.253 57.6594 288.571 58.3562 286.817 58.3562H94.7362C92.982 58.3562 91.2997 57.6594 90.0593 56.419C88.8189 55.1786 88.1221 53.4963 88.1221 51.7421V16.1717C88.1221 14.4175 88.8189 12.7352 90.0593 11.4948C91.2997 10.2545 92.982 9.55762 94.7362 9.55762Z" fill="white" stroke="#4A31FF"/>
<path d="M148.804 20.9399H185.797C187.878 20.9399 189.565 22.6271 189.565 24.7084C189.565 26.7897 187.878 28.4768 185.797 28.4768H148.804C146.722 28.4768 145.035 26.7897 145.035 24.7084C145.035 22.6271 146.722 20.9399 148.804 20.9399Z" fill="#B4DAFF" stroke="#4A31FF"/>
<path d="M148.803 39.4365H211.407C213.489 39.4365 215.176 41.1237 215.176 43.205C215.176 45.2862 213.489 46.9734 211.407 46.9734H148.803C146.722 46.9734 145.035 45.2862 145.035 43.205C145.035 41.1237 146.722 39.4365 148.803 39.4365Z" fill="#DEE9FC" stroke="#4A31FF"/>
<path d="M99.0046 13.8259H126.038C129.691 13.8259 132.652 16.7872 132.652 20.44V47.4735C132.652 51.1264 129.691 54.0876 126.038 54.0876H99.0046C95.3517 54.0876 92.3905 51.1264 92.3905 47.4735V20.44C92.3905 16.7872 95.3517 13.8259 99.0046 13.8259Z" fill="white" stroke="#4A31FF"/>
<path d="M109.28 38.6234H112.125L112.157 37.5278C112.157 36.0879 113.064 35.7123 114.348 35.3053C115.635 34.9391 116.768 34.1637 117.576 33.0964C118.383 32.029 118.821 30.7277 118.824 29.3893C118.852 28.5721 118.71 27.7579 118.408 26.9984C118.105 26.2388 117.648 25.5503 117.065 24.9766C116.482 24.4028 115.787 23.9563 115.023 23.6652C114.259 23.374 113.443 23.2447 112.626 23.2854C111.763 23.2666 110.905 23.4233 110.104 23.746C109.304 24.0687 108.577 24.5506 107.968 25.1626C107.359 25.7747 106.881 26.504 106.563 27.3063C106.244 28.1087 106.092 28.9674 106.115 29.8303H109.058C109.046 29.3539 109.131 28.88 109.305 28.4364C109.479 27.9928 109.74 27.5885 110.073 27.2471C110.406 26.9058 110.803 26.6343 111.242 26.4485C111.681 26.2627 112.152 26.1664 112.629 26.1652C113.059 26.1402 113.489 26.2082 113.89 26.3643C114.291 26.5204 114.654 26.761 114.954 27.0699C115.254 27.3787 115.484 27.7485 115.628 28.1541C115.773 28.5598 115.828 28.9917 115.79 29.4206C115.771 30.1148 115.53 30.7845 115.102 31.3311C114.673 31.8778 114.081 32.2724 113.411 32.4569L112.378 32.8666C111.367 33.1103 110.484 33.7249 109.905 34.5887C109.325 35.4524 109.091 36.5024 109.248 37.5306L109.28 38.6234ZM110.688 45.3874C110.967 45.3973 111.245 45.3513 111.505 45.2519C111.766 45.1526 112.004 45.0021 112.205 44.8092C112.406 44.6164 112.567 44.3851 112.677 44.1291C112.788 43.873 112.846 43.5975 112.848 43.3187C112.846 43.0401 112.787 42.7648 112.677 42.5091C112.566 42.2534 112.405 42.0225 112.204 41.8299C112.003 41.6374 111.765 41.4871 111.505 41.3879C111.244 41.2888 110.967 41.2428 110.688 41.2527C110.41 41.2428 110.132 41.2888 109.872 41.3879C109.611 41.4871 109.374 41.6374 109.172 41.8299C108.971 42.0225 108.81 42.2534 108.7 42.5091C108.589 42.7648 108.531 43.0401 108.528 43.3187C108.53 43.5975 108.588 43.873 108.699 44.1291C108.809 44.3851 108.97 44.6164 109.171 44.8092C109.373 45.0021 109.611 45.1526 109.871 45.2519C110.132 45.3513 110.41 45.3973 110.688 45.3874Z" fill="#4A31FF"/>
</g>
<mask id="path-17-inside-1_8822_80266" fill="white">
<path fill-rule="evenodd" clip-rule="evenodd" d="M167.546 137.86C166.52 139.382 164.74 140.389 162.717 140.389C159.538 140.389 156.961 137.905 156.961 134.839C156.961 134.776 156.962 134.713 156.964 134.649C156.366 134.903 155.705 135.044 155.008 135.044C152.341 135.044 150.178 132.974 150.178 130.419C150.178 130.355 150.179 130.292 150.182 130.228C149.847 130.287 149.502 130.317 149.15 130.317C145.971 130.317 143.395 127.832 143.395 124.767C143.395 124.228 143.474 123.708 143.623 123.215C141.89 122.258 140.723 120.458 140.723 118.395C140.723 116.652 141.556 115.096 142.86 114.079C141.556 113.061 140.723 111.506 140.723 109.762C140.723 108.53 141.139 107.392 141.844 106.471C141.392 105.679 141.135 104.768 141.135 103.8C141.135 101.828 142.202 100.095 143.811 99.111C143.541 98.3587 143.395 97.5504 143.395 96.7088C143.395 93.6991 145.268 91.1151 147.942 89.9994C147.925 89.8399 147.916 89.678 147.916 89.5141C147.916 86.983 150.04 84.9268 152.674 84.8897C152.655 84.7208 152.645 84.5493 152.645 84.3754C152.645 81.8211 154.807 79.7505 157.475 79.7505C158.025 79.7505 158.554 79.8386 159.047 80.0008C159.344 77.0909 161.887 74.8179 164.979 74.8179C166.015 74.8179 166.989 75.073 167.838 75.5217C169.212 73.8403 171.333 72.7622 173.714 72.7622C176.403 72.7622 178.762 74.1382 180.086 76.2057C180.851 75.7182 181.77 75.4341 182.758 75.4341C184.639 75.4341 186.269 76.4632 187.067 77.9655C187.944 76.8057 189.371 76.0513 190.981 76.0513C193.41 76.0513 195.42 77.7673 195.761 80.002C196.578 79.7065 197.461 79.5454 198.38 79.5454C202.637 79.5454 206.088 82.9965 206.088 87.2537C206.088 88.0078 205.98 88.7367 205.778 89.4255C205.915 89.4163 206.053 89.4116 206.192 89.4116C209.428 89.4116 212.051 91.9424 212.051 95.0643C212.051 96.7044 211.327 98.1813 210.171 99.2138C211.314 100.06 212.05 101.385 212.05 102.875C212.05 105.165 210.311 107.067 208.029 107.436C209.786 108.128 211.022 109.783 211.022 111.714C211.022 114.127 209.093 116.108 206.631 116.32C207.069 117.016 207.321 117.832 207.321 118.704C207.321 121.208 205.242 123.248 202.645 123.326C197.646 132.741 187.717 139.156 176.284 139.156C173.243 139.156 170.309 138.703 167.546 137.86Z"/>
</mask>
<path fill-rule="evenodd" clip-rule="evenodd" d="M167.546 137.86C166.52 139.382 164.74 140.389 162.717 140.389C159.538 140.389 156.961 137.905 156.961 134.839C156.961 134.776 156.962 134.713 156.964 134.649C156.366 134.903 155.705 135.044 155.008 135.044C152.341 135.044 150.178 132.974 150.178 130.419C150.178 130.355 150.179 130.292 150.182 130.228C149.847 130.287 149.502 130.317 149.15 130.317C145.971 130.317 143.395 127.832 143.395 124.767C143.395 124.228 143.474 123.708 143.623 123.215C141.89 122.258 140.723 120.458 140.723 118.395C140.723 116.652 141.556 115.096 142.86 114.079C141.556 113.061 140.723 111.506 140.723 109.762C140.723 108.53 141.139 107.392 141.844 106.471C141.392 105.679 141.135 104.768 141.135 103.8C141.135 101.828 142.202 100.095 143.811 99.111C143.541 98.3587 143.395 97.5504 143.395 96.7088C143.395 93.6991 145.268 91.1151 147.942 89.9994C147.925 89.8399 147.916 89.678 147.916 89.5141C147.916 86.983 150.04 84.9268 152.674 84.8897C152.655 84.7208 152.645 84.5493 152.645 84.3754C152.645 81.8211 154.807 79.7505 157.475 79.7505C158.025 79.7505 158.554 79.8386 159.047 80.0008C159.344 77.0909 161.887 74.8179 164.979 74.8179C166.015 74.8179 166.989 75.073 167.838 75.5217C169.212 73.8403 171.333 72.7622 173.714 72.7622C176.403 72.7622 178.762 74.1382 180.086 76.2057C180.851 75.7182 181.77 75.4341 182.758 75.4341C184.639 75.4341 186.269 76.4632 187.067 77.9655C187.944 76.8057 189.371 76.0513 190.981 76.0513C193.41 76.0513 195.42 77.7673 195.761 80.002C196.578 79.7065 197.461 79.5454 198.38 79.5454C202.637 79.5454 206.088 82.9965 206.088 87.2537C206.088 88.0078 205.98 88.7367 205.778 89.4255C205.915 89.4163 206.053 89.4116 206.192 89.4116C209.428 89.4116 212.051 91.9424 212.051 95.0643C212.051 96.7044 211.327 98.1813 210.171 99.2138C211.314 100.06 212.05 101.385 212.05 102.875C212.05 105.165 210.311 107.067 208.029 107.436C209.786 108.128 211.022 109.783 211.022 111.714C211.022 114.127 209.093 116.108 206.631 116.32C207.069 117.016 207.321 117.832 207.321 118.704C207.321 121.208 205.242 123.248 202.645 123.326C197.646 132.741 187.717 139.156 176.284 139.156C173.243 139.156 170.309 138.703 167.546 137.86Z" fill="white"/>
<path d="M167.546 137.86L167.838 136.903L167.13 136.687L166.717 137.301L167.546 137.86ZM156.964 134.649L157.964 134.684L158.018 133.116L156.574 133.729L156.964 134.649ZM150.182 130.228L151.181 130.271L151.234 129.03L150.01 129.243L150.182 130.228ZM143.623 123.215L144.58 123.504L144.813 122.73L144.106 122.34L143.623 123.215ZM142.86 114.079L143.475 114.867L144.486 114.079L143.475 113.29L142.86 114.079ZM141.844 106.471L142.638 107.079L143.041 106.552L142.712 105.975L141.844 106.471ZM143.811 99.111L144.333 99.964L145.026 99.5394L144.752 98.7737L143.811 99.111ZM147.942 89.9994L148.327 90.9223L149.017 90.6344L148.937 89.8911L147.942 89.9994ZM152.674 84.8897L152.688 85.8896L153.795 85.874L153.668 84.7749L152.674 84.8897ZM159.047 80.0008L158.734 80.9506L159.915 81.3395L160.042 80.1026L159.047 80.0008ZM167.838 75.5217L167.37 76.4058L168.094 76.7884L168.612 76.1546L167.838 75.5217ZM180.086 76.2057L179.244 76.7451L179.782 77.585L180.623 77.0491L180.086 76.2057ZM187.067 77.9655L186.184 78.4345L186.919 79.8184L187.864 78.5689L187.067 77.9655ZM195.761 80.002L194.772 80.1528L194.956 81.3561L196.1 80.9425L195.761 80.002ZM205.778 89.4255L204.819 89.1443L204.416 90.5196L205.846 90.4233L205.778 89.4255ZM210.171 99.2138L209.505 98.468L208.588 99.2866L209.576 100.018L210.171 99.2138ZM208.029 107.436L207.87 106.448L204.272 107.03L207.663 108.366L208.029 107.436ZM206.631 116.32L206.545 115.324L204.912 115.465L205.785 116.853L206.631 116.32ZM202.645 123.326L202.615 122.327L202.035 122.344L201.762 122.857L202.645 123.326ZM166.717 137.301C165.874 138.551 164.404 139.389 162.717 139.389V141.389C165.076 141.389 167.165 140.214 168.375 138.418L166.717 137.301ZM162.717 139.389C160.056 139.389 157.961 137.318 157.961 134.839H155.961C155.961 138.491 159.02 141.389 162.717 141.389V139.389ZM157.961 134.839C157.961 134.788 157.962 134.736 157.964 134.684L155.965 134.615C155.962 134.689 155.961 134.764 155.961 134.839H157.961ZM156.574 133.729C156.098 133.931 155.569 134.044 155.008 134.044V136.044C155.84 136.044 156.635 135.876 157.355 135.57L156.574 133.729ZM155.008 134.044C152.851 134.044 151.178 132.381 151.178 130.419H149.178C149.178 133.566 151.83 136.044 155.008 136.044V134.044ZM151.178 130.419C151.178 130.37 151.179 130.32 151.181 130.271L149.183 130.186C149.18 130.263 149.178 130.341 149.178 130.419H151.178ZM150.01 129.243C149.732 129.292 149.445 129.317 149.15 129.317V131.317C149.56 131.317 149.963 131.282 150.354 131.213L150.01 129.243ZM149.15 129.317C146.489 129.317 144.395 127.246 144.395 124.767H142.395C142.395 128.419 145.454 131.317 149.15 131.317V129.317ZM144.395 124.767C144.395 124.327 144.46 123.904 144.58 123.504L142.665 122.926C142.489 123.511 142.395 124.129 142.395 124.767H144.395ZM144.106 122.34C142.668 121.545 141.723 120.067 141.723 118.395H139.723C139.723 120.849 141.113 122.971 143.139 124.09L144.106 122.34ZM141.723 118.395C141.723 116.981 142.397 115.708 143.475 114.867L142.245 113.29C140.715 114.484 139.723 116.323 139.723 118.395H141.723ZM143.475 113.29C142.397 112.449 141.723 111.177 141.723 109.762H139.723C139.723 111.835 140.715 113.673 142.245 114.867L143.475 113.29ZM141.723 109.762C141.723 108.76 142.06 107.833 142.638 107.079L141.05 105.863C140.218 106.95 139.723 108.3 139.723 109.762H141.723ZM142.712 105.975C142.344 105.329 142.135 104.589 142.135 103.8H140.135C140.135 104.948 140.44 106.028 140.975 106.966L142.712 105.975ZM142.135 103.8C142.135 102.201 142.999 100.78 144.333 99.964L143.289 98.258C141.406 99.4103 140.135 101.454 140.135 103.8H142.135ZM144.752 98.7737C144.521 98.1278 144.395 97.4335 144.395 96.7088H142.395C142.395 97.6673 142.562 98.5896 142.869 99.4483L144.752 98.7737ZM144.395 96.7088C144.395 94.1293 146 91.8931 148.327 90.9223L147.557 89.0765C144.536 90.337 142.395 93.269 142.395 96.7088H144.395ZM148.937 89.8911C148.923 89.7675 148.916 89.6418 148.916 89.5141H146.916C146.916 89.7142 146.927 89.9123 146.948 90.1076L148.937 89.8911ZM148.916 89.5141C148.916 87.5703 150.559 85.9195 152.688 85.8896L152.66 83.8898C149.52 83.934 146.916 86.3957 146.916 89.5141H148.916ZM153.668 84.7749C153.652 84.6441 153.645 84.5108 153.645 84.3754H151.645C151.645 84.5877 151.657 84.7976 151.681 85.0044L153.668 84.7749ZM153.645 84.3754C153.645 82.414 155.318 80.7505 157.475 80.7505V78.7505C154.296 78.7505 151.645 81.2283 151.645 84.3754H153.645ZM157.475 80.7505C157.918 80.7505 158.341 80.8213 158.734 80.9506L159.36 79.051C158.767 78.8558 158.133 78.7505 157.475 78.7505V80.7505ZM160.042 80.1026C160.285 77.7257 162.376 75.8179 164.979 75.8179V73.8179C161.397 73.8179 158.404 76.4561 158.052 79.8991L160.042 80.1026ZM164.979 75.8179C165.849 75.8179 166.663 76.0319 167.37 76.4058L168.305 74.6377C167.315 74.1141 166.18 73.8179 164.979 73.8179V75.8179ZM168.612 76.1546C169.801 74.7002 171.64 73.7622 173.714 73.7622V71.7622C171.027 71.7622 168.623 72.9804 167.063 74.8889L168.612 76.1546ZM173.714 73.7622C176.056 73.7622 178.1 74.9596 179.244 76.7451L180.928 75.6662C179.423 73.3167 176.75 71.7622 173.714 71.7622V73.7622ZM180.623 77.0491C181.231 76.6621 181.964 76.4341 182.758 76.4341V74.4341C181.577 74.4341 180.472 74.7742 179.549 75.3623L180.623 77.0491ZM182.758 76.4341C184.271 76.4341 185.56 77.2606 186.184 78.4345L187.95 77.4964C186.978 75.6659 185.007 74.4341 182.758 74.4341V76.4341ZM187.864 78.5689C188.555 77.6566 189.687 77.0513 190.981 77.0513V75.0513C189.055 75.0513 187.334 75.9547 186.269 77.362L187.864 78.5689ZM190.981 77.0513C192.941 77.0513 194.509 78.431 194.772 80.1528L196.749 79.8512C196.33 77.1036 193.879 75.0513 190.981 75.0513V77.0513ZM196.1 80.9425C196.811 80.6858 197.578 80.5454 198.38 80.5454V78.5454C197.343 78.5454 196.346 78.7272 195.421 79.0615L196.1 80.9425ZM198.38 80.5454C202.085 80.5454 205.088 83.5488 205.088 87.2537H207.088C207.088 82.4442 203.19 78.5454 198.38 78.5454V80.5454ZM205.088 87.2537C205.088 87.9116 204.994 88.5458 204.819 89.1443L206.738 89.7068C206.966 88.9275 207.088 88.104 207.088 87.2537H205.088ZM205.846 90.4233C205.96 90.4156 206.076 90.4116 206.192 90.4116V88.4116C206.031 88.4116 205.87 88.4171 205.711 88.4278L205.846 90.4233ZM206.192 90.4116C208.909 90.4116 211.051 92.5281 211.051 95.0643H213.051C213.051 91.3568 209.946 88.4116 206.192 88.4116V90.4116ZM211.051 95.0643C211.051 96.4015 210.462 97.6128 209.505 98.468L210.837 99.9597C212.192 98.7498 213.051 97.0072 213.051 95.0643H211.051ZM209.576 100.018C210.484 100.689 211.05 101.726 211.05 102.875H213.05C213.05 101.045 212.144 99.4298 210.765 98.41L209.576 100.018ZM211.05 102.875C211.05 104.636 209.707 106.151 207.87 106.448L208.189 108.423C210.916 107.982 213.05 105.695 213.05 102.875H211.05ZM207.663 108.366C209.07 108.921 210.022 110.228 210.022 111.714H212.022C212.022 109.338 210.502 107.335 208.396 106.505L207.663 108.366ZM210.022 111.714C210.022 113.568 208.531 115.153 206.545 115.324L206.717 117.317C209.655 117.063 212.022 114.686 212.022 111.714H210.022ZM205.785 116.853C206.127 117.396 206.321 118.028 206.321 118.704H208.321C208.321 117.636 208.012 116.637 207.478 115.788L205.785 116.853ZM206.321 118.704C206.321 120.627 204.713 122.263 202.615 122.327L202.676 124.326C205.771 124.233 208.321 121.789 208.321 118.704H206.321ZM201.762 122.857C196.93 131.957 187.334 138.156 176.284 138.156V140.156C188.1 140.156 198.362 133.525 203.529 123.795L201.762 122.857ZM176.284 138.156C173.343 138.156 170.508 137.718 167.838 136.903L167.254 138.816C170.111 139.688 173.144 140.156 176.284 140.156V138.156Z" fill="#4A31FF" mask="url(#path-17-inside-1_8822_80266)"/>
<path d="M165.595 122.712C165.595 126.231 162.696 129.084 159.12 129.084C155.544 129.084 152.645 126.231 152.645 122.712C152.645 119.192 155.544 116.339 159.12 116.339C162.696 116.339 165.595 119.192 165.595 122.712Z" fill="white"/>
<mask id="path-20-inside-2_8822_80266" fill="white">
<path fill-rule="evenodd" clip-rule="evenodd" d="M171.654 100.101C166.718 100.101 162.717 104.123 162.717 109.084V145.734H162.727V164.203H187.665V145.653C196.734 144.787 203.828 137.11 203.828 127.768V109.084C203.828 104.123 199.826 100.101 194.89 100.101H171.654Z"/>
</mask>
<path fill-rule="evenodd" clip-rule="evenodd" d="M171.654 100.101C166.718 100.101 162.717 104.123 162.717 109.084V145.734H162.727V164.203H187.665V145.653C196.734 144.787 203.828 137.11 203.828 127.768V109.084C203.828 104.123 199.826 100.101 194.89 100.101H171.654Z" fill="white"/>
<path d="M162.717 145.734H161.717V146.734H162.717V145.734ZM162.727 145.734H163.727V144.734H162.727V145.734ZM162.727 164.203H161.727V165.203H162.727V164.203ZM187.665 164.203V165.203H188.665V164.203H187.665ZM187.665 145.653L187.57 144.657L186.665 144.744V145.653H187.665ZM163.717 109.084C163.717 104.67 167.275 101.101 171.654 101.101V99.1011C166.161 99.1011 161.717 103.575 161.717 109.084H163.717ZM163.717 145.734V109.084H161.717V145.734H163.717ZM162.727 144.734H162.717V146.734H162.727V144.734ZM163.727 164.203V145.734H161.727V164.203H163.727ZM187.665 163.203H162.727V165.203H187.665V163.203ZM186.665 145.653V164.203H188.665V145.653H186.665ZM202.828 127.768C202.828 136.594 196.126 143.84 187.57 144.657L187.76 146.648C197.341 145.733 204.828 137.626 204.828 127.768H202.828ZM202.828 109.084V127.768H204.828V109.084H202.828ZM194.89 101.101C199.269 101.101 202.828 104.67 202.828 109.084H204.828C204.828 103.575 200.383 99.1011 194.89 99.1011V101.101ZM171.654 101.101H194.89V99.1011H171.654V101.101Z" fill="#4A31FF" mask="url(#path-20-inside-2_8822_80266)"/>
<path fill-rule="evenodd" clip-rule="evenodd" d="M175.725 111.799C175.196 112.01 174.812 112.299 174.598 112.625C174.438 112.87 174.106 112.941 173.857 112.782C173.608 112.624 173.537 112.297 173.697 112.051C174.067 111.487 174.661 111.083 175.322 110.819C175.987 110.553 176.755 110.414 177.527 110.401C179.049 110.376 180.734 110.843 181.71 112C181.899 112.225 181.868 112.558 181.64 112.745C181.412 112.931 181.074 112.9 180.885 112.676C180.197 111.86 178.891 111.436 177.546 111.458C176.885 111.469 176.25 111.589 175.725 111.799Z" fill="#4A31FF"/>
<path fill-rule="evenodd" clip-rule="evenodd" d="M181.075 135.055C180.235 135.404 179.627 135.881 179.288 136.42C179.033 136.825 178.507 136.942 178.112 136.68C177.718 136.418 177.604 135.878 177.859 135.473C178.446 134.54 179.388 133.873 180.436 133.437C181.49 132.998 182.708 132.768 183.933 132.746C186.346 132.704 189.019 133.476 190.566 135.388C190.867 135.759 190.817 136.31 190.456 136.618C190.094 136.926 189.558 136.875 189.258 136.504C188.167 135.156 186.097 134.455 183.962 134.492C182.914 134.511 181.908 134.708 181.075 135.055Z" fill="#4A31FF"/>
<path fill-rule="evenodd" clip-rule="evenodd" d="M190.841 113.402C190.384 113.061 190.089 112.683 189.967 112.312C189.875 112.034 189.573 111.88 189.291 111.968C189.01 112.057 188.856 112.354 188.948 112.633C189.159 113.274 189.628 113.818 190.198 114.244C190.772 114.673 191.477 115.006 192.22 115.218C193.683 115.637 195.432 115.622 196.674 114.756C196.915 114.588 196.971 114.258 196.799 114.019C196.628 113.78 196.293 113.722 196.052 113.89C195.176 114.5 193.806 114.572 192.512 114.202C191.876 114.02 191.294 113.741 190.841 113.402Z" fill="#4A31FF"/>
<path fill-rule="evenodd" clip-rule="evenodd" d="M185.74 117.832C185.906 117.728 186.124 117.779 186.227 117.947L185.926 118.136C186.227 117.947 186.227 117.947 186.227 117.947L186.23 117.953L186.239 117.968C186.247 117.981 186.259 118 186.274 118.025C186.304 118.075 186.348 118.148 186.403 118.242C186.513 118.429 186.668 118.698 186.849 119.026C187.212 119.683 187.681 120.582 188.107 121.545C188.532 122.504 188.92 123.543 189.11 124.477C189.294 125.386 189.316 126.307 188.867 126.931C188.035 128.087 186.609 128.152 185.522 127.991C184.963 127.909 184.455 127.763 184.089 127.638C183.905 127.576 183.755 127.518 183.65 127.476C183.597 127.455 183.556 127.437 183.528 127.425C183.513 127.419 183.502 127.414 183.494 127.411L183.485 127.407L183.482 127.405L183.482 127.405C183.482 127.405 183.481 127.405 183.626 127.079L183.481 127.405C183.303 127.324 183.223 127.112 183.304 126.932C183.384 126.752 183.593 126.671 183.771 126.752C183.771 126.752 183.771 126.752 183.771 126.752M183.771 126.752L183.773 126.753L183.779 126.755C183.784 126.758 183.793 126.762 183.805 126.767C183.829 126.777 183.865 126.793 183.912 126.812C184.007 126.85 184.144 126.903 184.314 126.96C184.655 127.076 185.12 127.209 185.624 127.283C186.659 127.436 187.711 127.322 188.294 126.51C188.553 126.151 188.596 125.507 188.416 124.622C188.241 123.762 187.877 122.777 187.461 121.837C187.047 120.899 186.587 120.021 186.231 119.375C186.053 119.053 185.901 118.789 185.794 118.607C185.741 118.516 185.698 118.445 185.669 118.397C185.655 118.373 185.644 118.355 185.637 118.343L185.628 118.329L185.626 118.325" fill="#4A31FF"/>
<path d="M179.572 119.32C179.572 120.171 178.836 120.862 177.928 120.862C177.02 120.862 176.284 120.171 176.284 119.32C176.284 118.469 177.02 117.778 177.928 117.778C178.836 117.778 179.572 118.469 179.572 119.32Z" fill="#4A31FF"/>
<path d="M194.578 119.32C194.578 120.171 193.842 120.862 192.933 120.862C192.025 120.862 191.289 120.171 191.289 119.32C191.289 118.469 192.025 117.778 192.933 117.778C193.842 117.778 194.578 118.469 194.578 119.32Z" fill="#4A31FF"/>
<mask id="path-28-inside-3_8822_80266" fill="white">
<path fill-rule="evenodd" clip-rule="evenodd" d="M44.4264 147.322L44.3418 147.164C43.7277 146.018 42.3008 145.587 41.1547 146.201C40.0086 146.815 39.5773 148.242 40.1915 149.388L44.0555 156.599C44.0934 157.188 44.3509 157.762 44.8216 158.19L51.4877 164.248L52.1217 163.55C52.6989 164.257 53.4859 164.806 54.4256 165.09L67.2019 168.952C68.7418 190.79 72.885 234.448 84.5394 238.628C97.814 243.39 108.26 235.523 116.529 222.481C115.466 218.603 103.553 210.923 98.9082 209.209C97.8491 208.818 96.5083 211.302 96.5083 211.302C96.5083 211.302 84.2783 187.947 76.8793 169.523L76.7132 169.508C77.368 168.94 77.8754 168.186 78.1447 167.295C78.2821 166.841 78.3481 166.382 78.3491 165.93C78.5782 165.623 78.7514 165.286 78.8615 164.922C79.7857 161.864 75.9313 157.994 70.2525 156.277C69.199 155.959 68.1568 155.737 67.152 155.606L63.3297 151.784C62.16 150.614 60.2634 150.614 59.0937 151.784C57.924 152.954 57.924 154.85 59.0937 156.02L59.823 156.749C59.8076 156.76 59.7924 156.77 59.7772 156.781L57.1747 155.994C56.5009 155.79 55.817 155.744 55.1622 155.833L53.3631 154.198L53.4255 154.164L50.9345 149.516C50.5749 148.844 49.7393 148.592 49.0682 148.951C48.8852 149.05 48.7332 149.183 48.6164 149.339L47.554 147.356C47.0885 146.487 46.0068 146.161 45.138 146.626C44.828 146.792 44.587 147.037 44.4264 147.322Z"/>
</mask>
<path fill-rule="evenodd" clip-rule="evenodd" d="M44.4264 147.322L44.3418 147.164C43.7277 146.018 42.3008 145.587 41.1547 146.201C40.0086 146.815 39.5773 148.242 40.1915 149.388L44.0555 156.599C44.0934 157.188 44.3509 157.762 44.8216 158.19L51.4877 164.248L52.1217 163.55C52.6989 164.257 53.4859 164.806 54.4256 165.09L67.2019 168.952C68.7418 190.79 72.885 234.448 84.5394 238.628C97.814 243.39 108.26 235.523 116.529 222.481C115.466 218.603 103.553 210.923 98.9082 209.209C97.8491 208.818 96.5083 211.302 96.5083 211.302C96.5083 211.302 84.2783 187.947 76.8793 169.523L76.7132 169.508C77.368 168.94 77.8754 168.186 78.1447 167.295C78.2821 166.841 78.3481 166.382 78.3491 165.93C78.5782 165.623 78.7514 165.286 78.8615 164.922C79.7857 161.864 75.9313 157.994 70.2525 156.277C69.199 155.959 68.1568 155.737 67.152 155.606L63.3297 151.784C62.16 150.614 60.2634 150.614 59.0937 151.784C57.924 152.954 57.924 154.85 59.0937 156.02L59.823 156.749C59.8076 156.76 59.7924 156.77 59.7772 156.781L57.1747 155.994C56.5009 155.79 55.817 155.744 55.1622 155.833L53.3631 154.198L53.4255 154.164L50.9345 149.516C50.5749 148.844 49.7393 148.592 49.0682 148.951C48.8852 149.05 48.7332 149.183 48.6164 149.339L47.554 147.356C47.0885 146.487 46.0068 146.161 45.138 146.626C44.828 146.792 44.587 147.037 44.4264 147.322Z" fill="white"/>
<path d="M44.3418 147.164L45.2233 146.692V146.692L44.3418 147.164ZM44.4264 147.322L43.5449 147.794L44.4046 149.399L45.2977 147.813L44.4264 147.322ZM41.1547 146.201L40.6824 145.32L40.6824 145.32L41.1547 146.201ZM40.1915 149.388L41.0729 148.916L40.1915 149.388ZM44.0555 156.599L45.0534 156.535L45.0394 156.319L44.9369 156.127L44.0555 156.599ZM44.8216 158.19L45.4941 157.45H45.4941L44.8216 158.19ZM51.4877 164.248L50.8152 164.988L51.5553 165.66L52.2278 164.92L51.4877 164.248ZM52.1217 163.55L52.8964 162.918L52.1623 162.018L51.3816 162.877L52.1217 163.55ZM54.4256 165.09L54.1363 166.047H54.1363L54.4256 165.09ZM67.2019 168.952L68.1994 168.881L68.1509 168.194L67.4912 167.994L67.2019 168.952ZM84.5394 238.628L84.877 237.687L84.5394 238.628ZM116.529 222.481L117.374 223.016L117.61 222.643L117.493 222.216L116.529 222.481ZM98.9082 209.209L98.562 210.147L98.9082 209.209ZM96.5083 211.302L95.6224 211.766L96.4949 213.432L97.3883 211.777L96.5083 211.302ZM76.8793 169.523L77.8073 169.15L77.5789 168.581L76.9684 168.527L76.8793 169.523ZM76.7132 169.508L76.0581 168.752L74.2799 170.294L76.6242 170.504L76.7132 169.508ZM78.1447 167.295L77.1875 167.006L77.1875 167.006L78.1447 167.295ZM78.3491 165.93L77.5476 165.332L77.3499 165.597L77.3491 165.928L78.3491 165.93ZM78.8615 164.922L79.8188 165.211L79.8188 165.211L78.8615 164.922ZM70.2525 156.277L70.5418 155.32L70.2525 156.277ZM67.152 155.606L66.4449 156.313L66.6856 156.554L67.023 156.598L67.152 155.606ZM63.3297 151.784L62.6226 152.491V152.491L63.3297 151.784ZM59.0937 151.784L59.8008 152.491L59.0937 151.784ZM59.0937 156.02L58.3866 156.727L58.3866 156.727L59.0937 156.02ZM59.823 156.749L60.3838 157.577L61.3862 156.898L60.5301 156.042L59.823 156.749ZM59.7772 156.781L59.4879 157.738L59.9502 157.878L60.3471 157.602L59.7772 156.781ZM57.1747 155.994L57.464 155.037L57.1747 155.994ZM55.1622 155.833L54.4897 156.573L54.8349 156.887L55.2971 156.824L55.1622 155.833ZM53.3631 154.198L52.8908 153.316L51.6423 153.985L52.6906 154.938L53.3631 154.198ZM53.4255 154.164L53.8978 155.046L54.7792 154.574L54.3069 153.692L53.4255 154.164ZM50.9345 149.516L51.8159 149.043V149.043L50.9345 149.516ZM49.0682 148.951L49.5405 149.833V149.833L49.0682 148.951ZM48.6164 149.339L47.735 149.811L48.4759 151.194L49.4166 149.939L48.6164 149.339ZM47.554 147.356L48.4355 146.884V146.884L47.554 147.356ZM45.138 146.626L45.6102 147.508L45.138 146.626ZM43.4604 147.637L43.5449 147.794L45.3078 146.85L45.2233 146.692L43.4604 147.637ZM41.627 147.082C42.2863 146.729 43.1071 146.977 43.4604 147.637L45.2233 146.692C44.3483 145.059 42.3153 144.445 40.6824 145.32L41.627 147.082ZM41.0729 148.916C40.7196 148.257 40.9677 147.436 41.627 147.082L40.6824 145.32C39.0495 146.194 38.4351 148.227 39.31 149.86L41.0729 148.916ZM44.9369 156.127L41.0729 148.916L39.31 149.86L43.174 157.072L44.9369 156.127ZM45.4941 157.45C45.2231 157.204 45.0753 156.875 45.0534 156.535L43.0576 156.664C43.1115 157.501 43.4788 158.321 44.1491 158.93L45.4941 157.45ZM52.1603 163.507L45.4941 157.45L44.1491 158.93L50.8152 164.988L52.1603 163.507ZM51.3816 162.877L50.7477 163.575L52.2278 164.92L52.8617 164.222L51.3816 162.877ZM54.7149 164.133C53.9717 163.908 53.3518 163.476 52.8964 162.918L51.3469 164.182C52.0461 165.039 53.0002 165.704 54.1363 166.047L54.7149 164.133ZM67.4912 167.994L54.7149 164.133L54.1363 166.047L66.9125 169.909L67.4912 167.994ZM66.2043 169.022C66.9748 179.948 68.3987 196.371 71.0952 210.598C72.4426 217.707 74.116 224.314 76.2045 229.427C77.2488 231.983 78.411 234.202 79.7125 235.931C81.0104 237.656 82.495 238.957 84.2018 239.57L84.877 237.687C83.6702 237.254 82.4759 236.277 81.3105 234.729C80.1487 233.185 79.0631 231.136 78.056 228.671C76.0418 223.739 74.398 217.283 73.0602 210.225C70.3866 196.119 68.9689 179.793 68.1994 168.881L66.2043 169.022ZM84.2018 239.57C91.1209 242.051 97.3535 241.242 102.904 238.101C108.41 234.985 113.196 229.605 117.374 223.016L115.685 221.945C111.592 228.399 107.021 233.473 101.919 236.361C96.86 239.223 91.2325 239.967 84.877 237.687L84.2018 239.57ZM117.493 222.216C117.314 221.56 116.93 220.901 116.458 220.269C115.979 219.628 115.369 218.962 114.675 218.293C113.287 216.954 111.51 215.544 109.64 214.218C105.919 211.578 101.697 209.172 99.2544 208.271L98.562 210.147C100.765 210.96 104.821 213.251 108.483 215.849C110.305 217.142 111.996 218.487 113.286 219.732C113.931 220.354 114.462 220.938 114.856 221.466C115.258 222.004 115.479 222.432 115.565 222.745L117.493 222.216ZM99.2544 208.271C98.5606 208.015 97.934 208.278 97.5428 208.532C97.1412 208.792 96.7974 209.157 96.5368 209.476C96.2678 209.805 96.0428 210.141 95.8873 210.388C95.8086 210.514 95.7457 210.62 95.7018 210.696C95.6797 210.734 95.6623 210.765 95.65 210.787C95.6438 210.798 95.6389 210.807 95.6353 210.814C95.6335 210.817 95.632 210.82 95.6308 210.822C95.6302 210.823 95.6297 210.824 95.6293 210.825C95.6291 210.825 95.6289 210.826 95.6288 210.826C95.6287 210.826 95.6286 210.826 95.6285 210.826C95.6284 210.827 95.6283 210.827 96.5083 211.302C97.3883 211.777 97.3882 211.777 97.3881 211.777C97.3881 211.777 97.388 211.777 97.388 211.777C97.3879 211.778 97.3878 211.778 97.3878 211.778C97.3877 211.778 97.3877 211.778 97.3877 211.778C97.3879 211.778 97.3883 211.777 97.3891 211.775C97.3906 211.773 97.3933 211.768 97.3973 211.761C97.4051 211.747 97.4175 211.724 97.4342 211.695C97.4677 211.637 97.5178 211.553 97.5814 211.451C97.7104 211.246 97.8867 210.985 98.0853 210.742C98.2923 210.489 98.4823 210.306 98.63 210.21C98.788 210.108 98.7262 210.208 98.562 210.147L99.2544 208.271ZM96.5083 211.302C97.3942 210.838 97.3942 210.838 97.3941 210.838C97.394 210.837 97.3939 210.837 97.3937 210.837C97.3933 210.836 97.3928 210.835 97.3921 210.834C97.3907 210.831 97.3885 210.827 97.3856 210.821C97.3798 210.81 97.371 210.794 97.3594 210.771C97.3363 210.727 97.3017 210.661 97.2562 210.573C97.1652 210.398 97.0306 210.139 96.8566 209.803C96.5086 209.13 96.0029 208.148 95.3728 206.911C94.1125 204.437 92.3551 200.947 90.3667 196.882C86.3879 188.748 81.4932 178.329 77.8073 169.15L75.9514 169.895C79.6645 179.142 84.5842 189.612 88.5701 197.761C90.5642 201.838 92.3266 205.338 93.5907 207.819C94.2228 209.059 94.7304 210.045 95.0801 210.722C95.255 211.06 95.3904 211.32 95.4821 211.497C95.528 211.585 95.563 211.652 95.5866 211.697C95.5983 211.72 95.6073 211.737 95.6133 211.748C95.6163 211.754 95.6185 211.758 95.6201 211.761C95.6208 211.763 95.6214 211.764 95.6218 211.764C95.622 211.765 95.6222 211.765 95.6223 211.765C95.6224 211.766 95.6224 211.766 96.5083 211.302ZM76.9684 168.527L76.8022 168.512L76.6242 170.504L76.7903 170.519L76.9684 168.527ZM77.1875 167.006C76.9744 167.711 76.5744 168.305 76.0581 168.752L77.3683 170.263C78.1617 169.575 78.7764 168.662 79.102 167.585L77.1875 167.006ZM77.3491 165.928C77.3483 166.283 77.2964 166.646 77.1875 167.006L79.102 167.585C79.2678 167.036 79.3479 166.48 79.3491 165.932L77.3491 165.928ZM77.9043 164.632C77.8293 164.88 77.7107 165.113 77.5476 165.332L79.1507 166.528C79.4457 166.132 79.6734 165.692 79.8188 165.211L77.9043 164.632ZM69.9631 157.235C72.6759 158.054 74.9048 159.377 76.3246 160.802C77.777 162.261 78.209 163.624 77.9043 164.632L79.8188 165.211C80.4383 163.161 79.4051 161.061 77.7417 159.391C76.0456 157.688 73.5079 156.217 70.5418 155.32L69.9631 157.235ZM67.023 156.598C67.9724 156.722 68.961 156.932 69.9631 157.235L70.5418 155.32C69.437 154.986 68.3413 154.753 67.2811 154.615L67.023 156.598ZM62.6226 152.491L66.4449 156.313L67.8592 154.899L64.0368 151.077L62.6226 152.491ZM59.8008 152.491C60.58 151.712 61.8434 151.712 62.6226 152.491L64.0368 151.077C62.4766 149.517 59.9469 149.517 58.3866 151.077L59.8008 152.491ZM59.8008 155.313C59.0216 154.534 59.0216 153.27 59.8008 152.491L58.3866 151.077C56.8263 152.637 56.8263 155.167 58.3866 156.727L59.8008 155.313ZM60.5301 156.042L59.8008 155.313L58.3866 156.727L59.1159 157.456L60.5301 156.042ZM60.3471 157.602C60.3591 157.594 60.3714 157.586 60.3838 157.577L59.2622 155.921C59.2439 155.934 59.2257 155.946 59.2074 155.959L60.3471 157.602ZM56.8854 156.951L59.4879 157.738L60.0665 155.823L57.464 155.037L56.8854 156.951ZM55.2971 156.824C55.8125 156.754 56.3516 156.79 56.8854 156.951L57.464 155.037C56.6501 154.791 55.8214 154.734 55.0274 154.842L55.2971 156.824ZM52.6906 154.938L54.4897 156.573L55.8347 155.093L54.0356 153.458L52.6906 154.938ZM52.9532 153.283L52.8908 153.316L53.8354 155.079L53.8978 155.046L52.9532 153.283ZM50.053 149.988L52.544 154.637L54.3069 153.692L51.8159 149.043L50.053 149.988ZM49.5405 149.833C49.7248 149.734 49.9543 149.804 50.053 149.988L51.8159 149.043C51.1955 147.885 49.7538 147.45 48.5959 148.07L49.5405 149.833ZM49.4166 149.939C49.4478 149.897 49.4886 149.861 49.5405 149.833L48.5959 148.07C48.2817 148.238 48.0187 148.469 47.8162 148.739L49.4166 149.939ZM46.6726 147.829L47.735 149.811L49.4978 148.867L48.4355 146.884L46.6726 147.829ZM45.6102 147.508C45.9923 147.303 46.4679 147.447 46.6726 147.829L48.4355 146.884C47.7091 145.528 46.0213 145.018 44.6657 145.745L45.6102 147.508ZM45.2977 147.813C45.3679 147.688 45.4726 147.581 45.6102 147.508L44.6657 145.745C44.1834 146.003 43.8061 146.385 43.555 146.831L45.2977 147.813Z" fill="#4A31FF" mask="url(#path-28-inside-3_8822_80266)"/>
<mask id="path-30-inside-4_8822_80266" fill="white">
<path fill-rule="evenodd" clip-rule="evenodd" d="M296.512 165.313C297.452 165.029 298.239 164.48 298.816 163.773L299.45 164.47L306.116 158.413C306.587 157.985 306.844 157.41 306.882 156.822L310.746 149.611C311.36 148.465 310.929 147.038 309.783 146.424C308.637 145.81 307.21 146.241 306.596 147.387L306.51 147.547C306.349 147.261 306.108 147.016 305.798 146.85C304.929 146.384 303.847 146.711 303.382 147.58L302.32 149.562C302.203 149.406 302.051 149.272 301.867 149.174C301.196 148.815 300.361 149.067 300.001 149.738L297.51 154.387L297.573 154.421L295.774 156.055C295.119 155.966 294.436 156.013 293.763 156.217L291.158 157.004C291.143 156.993 291.127 156.983 291.112 156.973L291.842 156.243C293.012 155.073 293.012 153.176 291.842 152.007C290.672 150.837 288.776 150.837 287.606 152.007L283.782 155.83C282.778 155.961 281.736 156.183 280.683 156.501C275.004 158.217 271.15 162.088 272.074 165.145C272.185 165.511 272.358 165.848 272.588 166.156C272.59 166.607 272.656 167.065 272.793 167.518C273.062 168.409 273.569 169.162 274.224 169.73L274.052 169.745C266.653 188.17 254.423 211.524 254.423 211.524C254.423 211.524 253.082 209.041 252.023 209.432C247.378 211.146 235.465 218.826 234.402 222.703C242.672 235.746 253.117 243.612 266.392 238.851C278.046 234.671 282.189 191.015 283.729 169.176L296.512 165.313Z"/>
</mask>
<path fill-rule="evenodd" clip-rule="evenodd" d="M296.512 165.313C297.452 165.029 298.239 164.48 298.816 163.773L299.45 164.47L306.116 158.413C306.587 157.985 306.844 157.41 306.882 156.822L310.746 149.611C311.36 148.465 310.929 147.038 309.783 146.424C308.637 145.81 307.21 146.241 306.596 147.387L306.51 147.547C306.349 147.261 306.108 147.016 305.798 146.85C304.929 146.384 303.847 146.711 303.382 147.58L302.32 149.562C302.203 149.406 302.051 149.272 301.867 149.174C301.196 148.815 300.361 149.067 300.001 149.738L297.51 154.387L297.573 154.421L295.774 156.055C295.119 155.966 294.436 156.013 293.763 156.217L291.158 157.004C291.143 156.993 291.127 156.983 291.112 156.973L291.842 156.243C293.012 155.073 293.012 153.176 291.842 152.007C290.672 150.837 288.776 150.837 287.606 152.007L283.782 155.83C282.778 155.961 281.736 156.183 280.683 156.501C275.004 158.217 271.15 162.088 272.074 165.145C272.185 165.511 272.358 165.848 272.588 166.156C272.59 166.607 272.656 167.065 272.793 167.518C273.062 168.409 273.569 169.162 274.224 169.73L274.052 169.745C266.653 188.17 254.423 211.524 254.423 211.524C254.423 211.524 253.082 209.041 252.023 209.432C247.378 211.146 235.465 218.826 234.402 222.703C242.672 235.746 253.117 243.612 266.392 238.851C278.046 234.671 282.189 191.015 283.729 169.176L296.512 165.313Z" fill="white"/>
<path d="M298.816 163.773L299.556 163.1L298.775 162.241L298.041 163.14L298.816 163.773ZM296.512 165.313L296.801 166.27L296.512 165.313ZM299.45 164.47L298.71 165.143L299.382 165.883L300.122 165.21L299.45 164.47ZM306.116 158.413L305.443 157.673V157.673L306.116 158.413ZM306.882 156.822L306.001 156.35L305.898 156.541L305.884 156.758L306.882 156.822ZM310.746 149.611L309.865 149.138V149.138L310.746 149.611ZM309.783 146.424L309.31 147.305L309.31 147.305L309.783 146.424ZM306.596 147.387L307.477 147.859L307.477 147.859L306.596 147.387ZM306.51 147.547L305.638 148.037L306.531 149.625L307.391 148.019L306.51 147.547ZM305.798 146.85L306.27 145.968L306.27 145.968L305.798 146.85ZM303.382 147.58L302.5 147.108V147.108L303.382 147.58ZM302.32 149.562L301.519 150.161L302.46 151.418L303.201 150.034L302.32 149.562ZM301.867 149.174L302.34 148.293V148.293L301.867 149.174ZM300.001 149.738L300.883 150.21L300.001 149.738ZM297.51 154.387L296.629 153.915L296.156 154.796L297.038 155.269L297.51 154.387ZM297.573 154.421L298.245 155.161L299.293 154.208L298.045 153.539L297.573 154.421ZM295.774 156.055L295.639 157.046L296.101 157.109L296.446 156.795L295.774 156.055ZM293.763 156.217L294.052 157.174L294.052 157.174L293.763 156.217ZM291.158 157.004L290.588 157.826L290.985 158.101L291.447 157.961L291.158 157.004ZM291.112 156.973L290.405 156.265L289.549 157.122L290.551 157.801L291.112 156.973ZM291.842 156.243L291.135 155.536L291.842 156.243ZM291.842 152.007L292.549 151.3V151.3L291.842 152.007ZM287.606 152.007L286.899 151.3L287.606 152.007ZM283.782 155.83L283.912 156.822L284.249 156.778L284.49 156.537L283.782 155.83ZM280.683 156.501L280.394 155.544L280.683 156.501ZM272.074 165.145L273.031 164.856L272.074 165.145ZM272.588 166.156L273.588 166.153L273.587 165.822L273.389 165.558L272.588 166.156ZM272.793 167.518L273.75 167.229V167.229L272.793 167.518ZM274.224 169.73L274.313 170.726L276.657 170.517L274.879 168.975L274.224 169.73ZM274.052 169.745L273.963 168.749L273.352 168.804L273.124 169.373L274.052 169.745ZM254.423 211.524L253.543 211.999L254.436 213.654L255.309 211.988L254.423 211.524ZM252.023 209.432L252.369 210.37L252.023 209.432ZM234.402 222.703L233.438 222.439L233.321 222.865L233.558 223.239L234.402 222.703ZM266.392 238.851L266.054 237.91L266.392 238.851ZM283.729 169.176L283.44 168.219L282.78 168.418L282.732 169.106L283.729 169.176ZM298.041 163.14C297.586 163.698 296.966 164.131 296.223 164.356L296.801 166.27C297.937 165.927 298.891 165.262 299.591 164.405L298.041 163.14ZM300.19 163.798L299.556 163.1L298.076 164.445L298.71 165.143L300.19 163.798ZM305.443 157.673L298.777 163.73L300.122 165.21L306.788 159.153L305.443 157.673ZM305.884 156.758C305.862 157.097 305.714 157.426 305.443 157.673L306.788 159.153C307.459 158.544 307.826 157.723 307.88 156.886L305.884 156.758ZM309.865 149.138L306.001 156.35L307.763 157.294L311.627 150.083L309.865 149.138ZM309.31 147.305C309.97 147.658 310.218 148.479 309.865 149.138L311.627 150.083C312.502 148.45 311.888 146.417 310.255 145.542L309.31 147.305ZM307.477 147.859C307.83 147.2 308.651 146.952 309.31 147.305L310.255 145.542C308.622 144.667 306.589 145.282 305.714 146.915L307.477 147.859ZM307.391 148.019L307.477 147.859L305.714 146.915L305.629 147.074L307.391 148.019ZM305.325 147.731C305.463 147.805 305.568 147.912 305.638 148.037L307.382 147.057C307.131 146.61 306.753 146.227 306.27 145.968L305.325 147.731ZM304.263 148.052C304.468 147.67 304.943 147.526 305.325 147.731L306.27 145.968C304.914 145.242 303.227 145.752 302.5 147.108L304.263 148.052ZM303.201 150.034L304.263 148.052L302.5 147.108L301.438 149.09L303.201 150.034ZM301.395 150.056C301.447 150.083 301.488 150.12 301.519 150.161L303.12 148.963C302.917 148.692 302.654 148.461 302.34 148.293L301.395 150.056ZM300.883 150.21C300.981 150.026 301.211 149.957 301.395 150.056L302.34 148.293C301.182 147.672 299.74 148.108 299.12 149.266L300.883 150.21ZM298.392 154.859L300.883 150.21L299.12 149.266L296.629 153.915L298.392 154.859ZM298.045 153.539L297.982 153.506L297.038 155.269L297.1 155.302L298.045 153.539ZM296.446 156.795L298.245 155.161L296.9 153.68L295.101 155.315L296.446 156.795ZM294.052 157.174C294.586 157.013 295.124 156.976 295.639 157.046L295.908 155.064C295.115 154.957 294.287 155.014 293.474 155.26L294.052 157.174ZM291.447 157.961L294.052 157.174L293.474 155.26L290.869 156.047L291.447 157.961ZM290.551 157.801C290.564 157.809 290.576 157.817 290.588 157.826L291.728 156.182C291.71 156.17 291.691 156.157 291.673 156.144L290.551 157.801ZM291.135 155.536L290.405 156.265L291.819 157.68L292.549 156.95L291.135 155.536ZM291.135 152.714C291.914 153.493 291.914 154.756 291.135 155.536L292.549 156.95C294.109 155.39 294.109 152.86 292.549 151.3L291.135 152.714ZM288.313 152.714C289.092 151.935 290.356 151.935 291.135 152.714L292.549 151.3C290.989 149.739 288.459 149.739 286.899 151.3L288.313 152.714ZM284.49 156.537L288.313 152.714L286.899 151.3L283.075 155.123L284.49 156.537ZM280.972 157.458C281.974 157.155 282.962 156.945 283.912 156.822L283.653 154.839C282.594 154.976 281.498 155.21 280.394 155.544L280.972 157.458ZM273.031 164.856C272.727 163.848 273.159 162.484 274.611 161.026C276.031 159.6 278.26 158.278 280.972 157.458L280.394 155.544C277.428 156.44 274.89 157.911 273.194 159.614C271.531 161.285 270.497 163.385 271.117 165.435L273.031 164.856ZM273.389 165.558C273.226 165.338 273.107 165.105 273.031 164.856L271.117 165.435C271.263 165.917 271.491 166.359 271.787 166.755L273.389 165.558ZM273.75 167.229C273.641 166.869 273.59 166.508 273.588 166.153L271.588 166.159C271.59 166.706 271.67 167.26 271.836 167.807L273.75 167.229ZM274.879 168.975C274.363 168.527 273.963 167.933 273.75 167.229L271.836 167.807C272.161 168.884 272.776 169.798 273.569 170.485L274.879 168.975ZM274.141 170.741L274.313 170.726L274.135 168.734L273.963 168.749L274.141 170.741ZM254.423 211.524C255.309 211.988 255.309 211.988 255.309 211.988C255.309 211.988 255.309 211.988 255.309 211.987C255.31 211.986 255.31 211.985 255.311 211.984C255.313 211.981 255.315 211.977 255.318 211.971C255.324 211.959 255.333 211.942 255.345 211.92C255.368 211.875 255.403 211.808 255.449 211.719C255.541 211.543 255.676 211.282 255.851 210.944C256.201 210.268 256.708 209.282 257.34 208.041C258.605 205.56 260.367 202.06 262.361 197.984C266.347 189.835 271.267 179.364 274.98 170.118L273.124 169.373C269.438 178.551 264.543 188.97 260.564 197.105C258.576 201.17 256.819 204.66 255.558 207.133C254.928 208.37 254.423 209.353 254.075 210.026C253.901 210.362 253.766 210.621 253.675 210.796C253.629 210.883 253.595 210.95 253.572 210.994C253.56 211.016 253.551 211.033 253.546 211.044C253.543 211.05 253.54 211.054 253.539 211.057C253.538 211.058 253.538 211.059 253.537 211.06C253.537 211.06 253.537 211.06 253.537 211.06C253.537 211.06 253.537 211.061 254.423 211.524ZM252.369 210.37C252.205 210.43 252.143 210.331 252.301 210.433C252.449 210.529 252.639 210.711 252.846 210.964C253.044 211.207 253.221 211.468 253.35 211.674C253.413 211.775 253.463 211.86 253.497 211.918C253.514 211.947 253.526 211.969 253.534 211.983C253.538 211.99 253.541 211.995 253.542 211.998C253.543 211.999 253.543 212 253.543 212C253.543 212.001 253.543 212.001 253.543 212C253.543 212 253.543 212 253.543 212C253.543 212 253.543 212 253.543 212C253.543 212 253.543 211.999 254.423 211.524C255.303 211.049 255.303 211.049 255.303 211.049C255.303 211.049 255.302 211.049 255.302 211.049C255.302 211.048 255.302 211.048 255.302 211.048C255.301 211.047 255.301 211.046 255.3 211.045C255.299 211.043 255.298 211.04 255.296 211.037C255.292 211.03 255.287 211.021 255.281 211.01C255.269 210.988 255.251 210.957 255.229 210.919C255.185 210.843 255.123 210.736 255.044 210.611C254.888 210.363 254.663 210.028 254.394 209.699C254.134 209.38 253.79 209.015 253.388 208.754C252.997 208.501 252.371 208.237 251.677 208.493L252.369 210.37ZM235.366 222.968C235.452 222.655 235.674 222.226 236.075 221.689C236.469 221.161 237 220.577 237.645 219.955C238.935 218.71 240.626 217.365 242.448 216.072C246.11 213.474 250.167 211.182 252.369 210.37L251.677 208.493C249.234 209.395 245.012 211.801 241.291 214.441C239.421 215.767 237.644 217.176 236.256 218.515C235.563 219.185 234.952 219.851 234.473 220.492C234.001 221.123 233.618 221.783 233.438 222.439L235.366 222.968ZM266.054 237.91C259.699 240.189 254.071 239.446 249.012 236.583C243.91 233.696 239.339 228.622 235.247 222.168L233.558 223.239C237.735 229.827 242.521 235.208 248.027 238.324C253.578 241.465 259.81 242.274 266.729 239.792L266.054 237.91ZM282.732 169.106C281.962 180.018 280.544 196.343 277.871 210.449C276.533 217.507 274.889 223.963 272.875 228.894C271.868 231.359 270.782 233.408 269.621 234.951C268.455 236.5 267.261 237.477 266.054 237.91L266.729 239.792C268.436 239.18 269.921 237.878 271.219 236.154C272.52 234.425 273.682 232.206 274.726 229.65C276.815 224.537 278.488 217.93 279.836 210.822C282.532 196.595 283.956 180.173 284.727 169.247L282.732 169.106ZM296.223 164.356L283.44 168.219L284.018 170.133L296.801 166.27L296.223 164.356Z" fill="#4A31FF" mask="url(#path-30-inside-4_8822_80266)"/>
<path fill-rule="evenodd" clip-rule="evenodd" d="M187.709 151.101C187.316 157.655 181.881 162.849 175.233 162.849C168.586 162.849 163.15 157.655 162.757 151.101C162.64 151.119 162.523 151.137 162.407 151.156C155.714 151.471 129.319 155.837 96.63 210.563L116.958 223.048L124.861 213.126L130.33 269.173H220.136L225.636 212.805L233.973 223.271L254.301 210.786C223.479 159.184 198.252 152.357 189.861 151.481C189.15 151.338 188.432 151.211 187.709 151.101Z" fill="white"/>
<path d="M187.709 151.101L187.784 150.607C187.646 150.586 187.504 150.624 187.395 150.712C187.286 150.801 187.219 150.931 187.21 151.071L187.709 151.101ZM162.757 151.101L163.256 151.071C163.248 150.931 163.181 150.801 163.072 150.712C162.962 150.624 162.821 150.586 162.682 150.607L162.757 151.101ZM162.407 151.156L162.43 151.655C162.449 151.654 162.467 151.652 162.486 151.649L162.407 151.156ZM96.63 210.563L96.2007 210.307C96.0604 210.542 96.1351 210.846 96.3683 210.989L96.63 210.563ZM116.958 223.048L116.697 223.474C116.912 223.607 117.192 223.557 117.349 223.36L116.958 223.048ZM124.861 213.126L125.359 213.078C125.339 212.875 125.198 212.704 125.003 212.647C124.808 212.589 124.597 212.655 124.47 212.815L124.861 213.126ZM130.33 269.173L129.833 269.221C129.858 269.477 130.073 269.673 130.33 269.673V269.173ZM220.136 269.173V269.673C220.393 269.673 220.609 269.477 220.634 269.221L220.136 269.173ZM225.636 212.805L226.028 212.493C225.901 212.334 225.69 212.267 225.495 212.325C225.299 212.383 225.159 212.553 225.139 212.756L225.636 212.805ZM233.973 223.271L233.582 223.583C233.739 223.78 234.019 223.829 234.235 223.697L233.973 223.271ZM254.301 210.786L254.563 211.212C254.796 211.069 254.871 210.765 254.731 210.53L254.301 210.786ZM189.861 151.481L189.763 151.971C189.778 151.974 189.794 151.976 189.809 151.978L189.861 151.481ZM175.233 163.349C182.147 163.349 187.8 157.947 188.208 151.131L187.21 151.071C186.833 157.363 181.614 162.349 175.233 162.349V163.349ZM162.258 151.131C162.667 157.947 168.319 163.349 175.233 163.349V162.349C168.852 162.349 163.633 157.363 163.256 151.071L162.258 151.131ZM162.486 151.649C162.601 151.631 162.717 151.613 162.832 151.595L162.682 150.607C162.564 150.625 162.446 150.643 162.328 150.662L162.486 151.649ZM97.0593 210.82C129.689 156.192 155.951 151.961 162.43 151.655L162.383 150.656C155.477 150.982 128.948 155.481 96.2007 210.307L97.0593 210.82ZM117.22 222.622L96.8917 210.137L96.3683 210.989L116.697 223.474L117.22 222.622ZM124.47 212.815L116.567 222.737L117.349 223.36L125.252 213.438L124.47 212.815ZM130.828 269.124L125.359 213.078L124.364 213.175L129.833 269.221L130.828 269.124ZM220.136 268.673H130.33V269.673H220.136V268.673ZM225.139 212.756L219.639 269.124L220.634 269.221L226.134 212.853L225.139 212.756ZM234.364 222.96L226.028 212.493L225.245 213.116L233.582 223.583L234.364 222.96ZM254.04 210.36L233.711 222.845L234.235 223.697L254.563 211.212L254.04 210.36ZM189.809 151.978C197.997 152.833 223.103 159.53 253.872 211.042L254.731 210.53C223.855 158.838 198.507 151.881 189.913 150.983L189.809 151.978ZM187.634 151.595C188.349 151.704 189.059 151.829 189.763 151.971L189.96 150.99C189.241 150.846 188.515 150.718 187.784 150.607L187.634 151.595Z" fill="#4A31FF"/>
<path fill-rule="evenodd" clip-rule="evenodd" d="M191.844 154.03C192.095 154.083 192.255 154.331 192.203 154.584C191.806 156.512 190.679 159.875 188.189 162.766C185.686 165.671 181.816 168.082 175.994 168.082C164.599 168.082 159.97 160.394 159.319 156.441C159.277 156.186 159.447 155.944 159.7 155.901C159.952 155.859 160.191 156.031 160.233 156.287C160.817 159.834 165.097 167.145 175.994 167.145C181.526 167.145 185.148 164.869 187.49 162.15C189.847 159.415 190.921 156.215 191.296 154.393C191.348 154.14 191.594 153.977 191.844 154.03Z" fill="#4A31FF"/>
<path fill-rule="evenodd" clip-rule="evenodd" d="M250.489 207.263C250.623 207.48 250.556 207.765 250.338 207.9L232.973 218.629C232.756 218.763 232.47 218.696 232.336 218.479C232.202 218.261 232.269 217.976 232.487 217.842L249.852 207.112C250.069 206.978 250.354 207.045 250.489 207.263Z" fill="#4A31FF"/>
<path fill-rule="evenodd" clip-rule="evenodd" d="M100.442 207.04C100.308 207.257 100.375 207.543 100.593 207.677L117.958 218.406C118.176 218.541 118.461 218.473 118.595 218.256C118.729 218.038 118.662 217.753 118.445 217.619L101.079 206.89C100.862 206.755 100.577 206.823 100.442 207.04Z" fill="#4A31FF"/>
<path d="M172.242 144.639H187.242V148.639H176.242C174.033 148.639 172.242 146.848 172.242 144.639Z" fill="#4A31FF"/>
<defs>
<filter id="filter0_ddd_8822_80266" x="211.267" y="98.6614" width="146.716" height="50.5867" filterUnits="userSpaceOnUse" color-interpolation-filters="sRGB">
<feFlood flood-opacity="0" result="BackgroundImageFix"/>
<feColorMatrix in="SourceAlpha" type="matrix" values="0 0 0 0 0 0 0 0 0 0 0 0 0 0 0 0 0 0 127 0" result="hardAlpha"/>
<feOffset dy="1"/>
<feGaussianBlur stdDeviation="5"/>
<feComposite in2="hardAlpha" operator="out"/>
<feColorMatrix type="matrix" values="0 0 0 0 0.913725 0 0 0 0 0.913725 0 0 0 0 0.913725 0 0 0 0.12 0"/>
<feBlend mode="normal" in2="BackgroundImageFix" result="effect1_dropShadow_8822_80266"/>
<feColorMatrix in="SourceAlpha" type="matrix" values="0 0 0 0 0 0 0 0 0 0 0 0 0 0 0 0 0 0 127 0" result="hardAlpha"/>
<feOffset dy="4"/>
<feGaussianBlur stdDeviation="2.5"/>
<feComposite in2="hardAlpha" operator="out"/>
<feColorMatrix type="matrix" values="0 0 0 0 0.913725 0 0 0 0 0.913725 0 0 0 0 0.913725 0 0 0 0.14 0"/>
<feBlend mode="normal" in2="effect1_dropShadow_8822_80266" result="effect2_dropShadow_8822_80266"/>
<feColorMatrix in="SourceAlpha" type="matrix" values="0 0 0 0 0 0 0 0 0 0 0 0 0 0 0 0 0 0 127 0" result="hardAlpha"/>
<feMorphology radius="1" operator="erode" in="SourceAlpha" result="effect3_dropShadow_8822_80266"/>
<feOffset dy="2"/>
<feGaussianBlur stdDeviation="2"/>
<feComposite in2="hardAlpha" operator="out"/>
<feColorMatrix type="matrix" values="0 0 0 0 0.913725 0 0 0 0 0.913725 0 0 0 0 0.913725 0 0 0 0.8 0"/>
<feBlend mode="normal" in2="effect2_dropShadow_8822_80266" result="effect3_dropShadow_8822_80266"/>
<feBlend mode="normal" in="SourceGraphic" in2="effect3_dropShadow_8822_80266" result="shape"/>
</filter>
<filter id="filter1_ddd_8822_80266" x="0" y="82.0985" width="134.363" height="47.6049" filterUnits="userSpaceOnUse" color-interpolation-filters="sRGB">
<feFlood flood-opacity="0" result="BackgroundImageFix"/>
<feColorMatrix in="SourceAlpha" type="matrix" values="0 0 0 0 0 0 0 0 0 0 0 0 0 0 0 0 0 0 127 0" result="hardAlpha"/>
<feOffset dy="1"/>
<feGaussianBlur stdDeviation="5"/>
<feComposite in2="hardAlpha" operator="out"/>
<feColorMatrix type="matrix" values="0 0 0 0 0.913725 0 0 0 0 0.913725 0 0 0 0 0.913725 0 0 0 0.12 0"/>
<feBlend mode="normal" in2="BackgroundImageFix" result="effect1_dropShadow_8822_80266"/>
<feColorMatrix in="SourceAlpha" type="matrix" values="0 0 0 0 0 0 0 0 0 0 0 0 0 0 0 0 0 0 127 0" result="hardAlpha"/>
<feOffset dy="4"/>
<feGaussianBlur stdDeviation="2.5"/>
<feComposite in2="hardAlpha" operator="out"/>
<feColorMatrix type="matrix" values="0 0 0 0 0.913725 0 0 0 0 0.913725 0 0 0 0 0.913725 0 0 0 0.14 0"/>
<feBlend mode="normal" in2="effect1_dropShadow_8822_80266" result="effect2_dropShadow_8822_80266"/>
<feColorMatrix in="SourceAlpha" type="matrix" values="0 0 0 0 0 0 0 0 0 0 0 0 0 0 0 0 0 0 127 0" result="hardAlpha"/>
<feMorphology radius="1" operator="erode" in="SourceAlpha" result="effect3_dropShadow_8822_80266"/>
<feOffset dy="2"/>
<feGaussianBlur stdDeviation="2"/>
<feComposite in2="hardAlpha" operator="out"/>
<feColorMatrix type="matrix" values="0 0 0 0 0.913725 0 0 0 0 0.913725 0 0 0 0 0.913725 0 0 0 0.8 0"/>
<feBlend mode="normal" in2="effect2_dropShadow_8822_80266" result="effect3_dropShadow_8822_80266"/>
<feBlend mode="normal" in="SourceGraphic" in2="effect3_dropShadow_8822_80266" result="shape"/>
</filter>
<filter id="filter2_ddd_8822_80266" x="77.6221" y="0.0576172" width="226.309" height="69.7986" filterUnits="userSpaceOnUse" color-interpolation-filters="sRGB">
<feFlood flood-opacity="0" result="BackgroundImageFix"/>
<feColorMatrix in="SourceAlpha" type="matrix" values="0 0 0 0 0 0 0 0 0 0 0 0 0 0 0 0 0 0 127 0" result="hardAlpha"/>
<feOffset dy="1"/>
<feGaussianBlur stdDeviation="5"/>
<feComposite in2="hardAlpha" operator="out"/>
<feColorMatrix type="matrix" values="0 0 0 0 0.913725 0 0 0 0 0.913725 0 0 0 0 0.913725 0 0 0 0.12 0"/>
<feBlend mode="normal" in2="BackgroundImageFix" result="effect1_dropShadow_8822_80266"/>
<feColorMatrix in="SourceAlpha" type="matrix" values="0 0 0 0 0 0 0 0 0 0 0 0 0 0 0 0 0 0 127 0" result="hardAlpha"/>
<feOffset dy="4"/>
<feGaussianBlur stdDeviation="2.5"/>
<feComposite in2="hardAlpha" operator="out"/>
<feColorMatrix type="matrix" values="0 0 0 0 0.913725 0 0 0 0 0.913725 0 0 0 0 0.913725 0 0 0 0.14 0"/>
<feBlend mode="normal" in2="effect1_dropShadow_8822_80266" result="effect2_dropShadow_8822_80266"/>
<feColorMatrix in="SourceAlpha" type="matrix" values="0 0 0 0 0 0 0 0 0 0 0 0 0 0 0 0 0 0 127 0" result="hardAlpha"/>
<feMorphology radius="1" operator="erode" in="SourceAlpha" result="effect3_dropShadow_8822_80266"/>
<feOffset dy="2"/>
<feGaussianBlur stdDeviation="2"/>
<feComposite in2="hardAlpha" operator="out"/>
<feColorMatrix type="matrix" values="0 0 0 0 0.913725 0 0 0 0 0.913725 0 0 0 0 0.913725 0 0 0 0.8 0"/>
<feBlend mode="normal" in2="effect2_dropShadow_8822_80266" result="effect3_dropShadow_8822_80266"/>
<feBlend mode="normal" in="SourceGraphic" in2="effect3_dropShadow_8822_80266" result="shape"/>
</filter>
</defs>
</svg>
