<svg width="30" height="29" viewBox="0 0 30 29" fill="none" xmlns="http://www.w3.org/2000/svg">
<g clip-path="url(#clip0_9099_98068)">
<path d="M25.842 8.72046H25.3488C25.0078 10.3048 24.2486 11.7681 23.1504 12.9573C22.4089 13.7633 21.5185 14.4171 20.5284 14.8827C19.5064 15.364 18.3912 15.6138 17.262 15.6143H10.4604L8.99042 17.0799C9.78602 19.4986 12.1992 21.3914 14.814 21.3914H21.3228L28.7124 28.7317C29.2116 29.2214 30.0192 28.8327 30.0192 28.13V12.908C30.0189 11.7973 29.5787 10.7322 28.7953 9.94689C28.012 9.16161 26.9497 8.72046 25.842 8.72046Z" fill="#31F1FF"/>
<path d="M17.262 -0.0325011H4.7412C3.48376 -0.0325011 2.27781 0.468399 1.38867 1.36001C0.499518 2.25161 2.30102e-09 3.46089 2.30102e-09 4.72182L2.30102e-09 22.0063C-1.26331e-05 22.1831 0.0520131 22.3559 0.149554 22.5031C0.247095 22.6503 0.38581 22.7654 0.548306 22.8339C0.710802 22.9024 0.889847 22.9213 1.06299 22.8881C1.23614 22.855 1.39567 22.7714 1.5216 22.6477L9.9108 14.2762H17.262C21.102 14.2762 24.2088 10.7793 24.2088 6.93592C24.2093 6.02089 24.0299 5.11472 23.681 4.26922C23.3321 3.42371 22.8205 2.65544 22.1753 2.0083C21.5302 1.36116 20.7642 0.847833 19.9212 0.497663C19.0781 0.147494 18.1745 -0.0326593 17.262 -0.0325011Z" fill="#0071BC"/>
</g>
<defs>
<clipPath id="clip0_9099_98068">
<rect width="30" height="29" fill="white"/>
</clipPath>
</defs>
</svg>
