<svg width="167" height="42" viewBox="0 0 167 42" fill="none" xmlns="http://www.w3.org/2000/svg">
<g clip-path="url(#clip0_9099_98043)">
<path d="M50.4277 30.7079C48.2687 30.7079 46.3652 30.2412 44.7172 29.3079C43.0932 28.401 41.7493 27.0621 40.8331 25.4383C39.8934 23.7927 39.4235 21.9059 39.4235 19.7781C39.4063 18.2817 39.6869 16.797 40.2488 15.4111C40.781 14.1113 41.5771 12.9373 42.5863 11.9639C43.6147 10.9775 44.8271 10.205 46.1537 9.69072C47.5825 9.13714 49.103 8.86126 50.6343 8.87774C52.1106 8.87764 53.5725 9.16975 54.9364 9.73739C56.2801 10.2756 57.4775 11.1262 58.4305 12.2193L55.1296 15.9834C54.5802 15.3489 53.9134 14.8276 53.1662 14.4483C52.3723 14.0577 51.4974 13.862 50.6135 13.8772C49.6127 13.8623 48.6254 14.1113 47.7503 14.5993C46.8961 15.0872 46.1913 15.8007 45.7123 16.6625C45.2029 17.5557 44.9482 18.6147 44.9482 19.8395C44.9482 21.6267 45.5078 23.0517 46.6268 24.1144C47.7458 25.1771 49.2247 25.7093 51.0634 25.7109C51.959 25.7161 52.8444 25.5206 53.6552 25.1386C54.4218 24.7896 55.11 24.2883 55.6785 23.6649L58.2874 27.7913C57.7125 28.4093 57.0323 28.9192 56.2788 29.2969C55.3972 29.7529 54.4642 30.1009 53.5 30.3334C52.4949 30.5834 51.4631 30.7092 50.4277 30.7079Z" fill="#0071BC"/>
<path d="M61.5785 30.7079V8.88632H71.1144C72.4918 8.88632 73.7257 9.17737 74.8162 9.75948C75.8709 10.3142 76.7586 11.1424 77.3873 12.1579C78.0169 13.1711 78.3323 14.1228 78.3323 15.4012C78.3323 16.8258 77.9875 18.0854 77.298 19.18C76.6236 20.2599 75.6636 21.1303 74.5253 21.6939L79.5072 30.719H73.3639L68.9517 22.4418H66.7034V30.7079H61.5785ZM66.7034 18.0023H70.541C71.3202 18.0023 71.9314 17.7612 72.3748 17.279C72.8182 16.7967 73.0383 16.1545 73.035 15.3521C73.035 14.5686 72.7852 13.9415 72.2856 13.4707C71.786 12.9999 71.0867 12.7637 70.1877 12.7621H66.7034V18.0023Z" fill="#0071BC"/>
<path d="M82.6503 30.714V8.88632H87.4182L93.3231 18.4911L99.2879 8.88632H103.874V30.714H98.629V23.73C98.629 22.6067 98.6489 21.553 98.6889 20.569C98.7288 19.5849 98.7887 18.6413 98.8686 17.7383L94.1924 24.9949H92.213L87.6896 17.8291C87.7711 18.6716 87.8261 19.5746 87.8547 20.5383C87.8832 21.5019 87.8983 22.5662 87.8999 23.7312V30.714H82.6503Z" fill="#0071BC"/>
<path d="M109.688 30.714V8.88632H122.487V10.3919H111.187V18.6421H121.019V20.1477H111.187V30.7091L109.688 30.714Z" fill="#0071BC"/>
<path d="M131.929 30.7079C130.586 30.729 129.265 30.3633 128.123 29.6542C126.998 28.9456 126.082 27.9474 125.47 26.7633C124.818 25.5353 124.492 24.1402 124.492 22.5781C124.492 20.993 124.827 19.5877 125.496 18.3621C126.127 17.1802 127.054 16.1839 128.185 15.4712C129.308 14.7677 130.608 14.402 131.931 14.4176C133.194 14.4028 134.437 14.7308 135.529 15.3669C136.561 15.9511 137.411 16.8105 137.986 17.85L138.109 15.3644H139.548V30.7079H138.049V27.1551C137.471 28.2201 136.614 29.1067 135.572 29.7193C134.472 30.3821 133.211 30.7245 131.929 30.7079ZM132.139 29.2023C133.224 29.2172 134.29 28.9188 135.211 28.3426C136.125 27.7656 136.87 26.9553 137.37 25.9946C137.899 25.0015 138.164 23.852 138.164 22.5461C138.164 21.2616 137.904 20.1223 137.385 19.1284C136.894 18.1666 136.153 17.3554 135.242 16.7804C134.298 16.2183 133.221 15.9218 132.124 15.9218C131.027 15.9218 129.95 16.2183 129.007 16.7804C128.095 17.355 127.355 18.1662 126.864 19.1284C126.345 20.1223 126.085 21.2616 126.084 22.5461C126.064 23.7256 126.327 24.8926 126.849 25.9491C127.33 26.9215 128.065 27.7439 128.976 28.3279C129.886 28.9108 130.94 29.2023 132.139 29.2023ZM130.935 12.5509L130.305 11.6176L133.593 8.79913L134.582 10.15L130.935 12.5509Z" fill="#0071BC"/>
<path d="M150.454 30.7079C148.955 30.7079 147.621 30.3567 146.453 29.6542C145.29 28.959 144.337 27.9599 143.695 26.7633C143.025 25.5352 142.69 24.1299 142.691 22.5474C142.692 20.9648 143.026 19.5599 143.695 18.3326C144.337 17.1352 145.296 16.1397 146.467 15.4565C147.646 14.7638 149.005 14.4175 150.544 14.4175C151.75 14.4021 152.943 14.6593 154.036 15.1703C155.063 15.6552 155.962 16.3774 156.658 17.2777L155.7 18.453C155.057 17.6633 154.248 17.0259 153.332 16.5863C152.425 16.147 151.43 15.9203 150.423 15.9231C149.315 15.9043 148.223 16.2025 147.277 16.7828C146.354 17.3581 145.599 18.1682 145.088 19.1309C144.549 20.1248 144.279 21.264 144.279 22.5486C144.279 23.8331 144.544 24.9793 145.074 25.9872C145.572 26.9578 146.323 27.7748 147.246 28.3512C148.173 28.9261 149.244 29.2243 150.334 29.2109C151.331 29.2114 152.315 28.9846 153.212 28.5477C154.134 28.1037 154.951 27.4673 155.609 26.681L156.569 27.8563C155.843 28.7639 154.913 29.4861 153.856 29.9637C152.789 30.457 151.628 30.711 150.454 30.7079Z" fill="#0071BC"/>
<path d="M160.255 11.5819C159.336 11.5819 158.877 11.1316 158.877 10.231C158.869 10.0515 158.897 9.87213 158.959 9.70343C159.02 9.53473 159.115 9.3801 159.237 9.24859C159.476 8.99807 159.816 8.8728 160.255 8.8728C161.175 8.8728 161.634 9.3231 161.634 10.2237C161.642 10.4032 161.615 10.5826 161.553 10.7513C161.491 10.92 161.397 11.0746 161.275 11.2061C161.035 11.4567 160.695 11.5819 160.255 11.5819ZM159.506 30.7079V14.743H161.009V30.7079H159.506Z" fill="#0071BC"/>
<path d="M165.501 30.7079V8.88632H167V30.7079H165.501Z" fill="#0071BC"/>
<path d="M26.3276 8.89984H25.8251C25.4778 10.5167 24.7042 12.0102 23.5854 13.2239C22.83 14.0464 21.9228 14.7137 20.9142 15.1888C19.8729 15.68 18.7368 15.9349 17.5864 15.9355H10.657L9.15936 17.4312C9.96991 19.8997 12.4285 21.8314 15.0924 21.8314H21.7235L29.2519 29.3227C29.7605 29.8225 30.5833 29.4258 30.5833 28.7086V13.1735C30.583 12.04 30.1345 10.9529 29.3364 10.1515C28.5383 9.35006 27.4561 8.89984 26.3276 8.89984Z" fill="#31F1FF"/>
<path d="M17.5863 -0.033142H4.83029C3.54921 -0.033142 2.32061 0.47806 1.41476 1.38801C0.508904 2.29795 2.34425e-09 3.53211 2.34425e-09 4.81896L2.34425e-09 22.459C-1.28705e-05 22.6394 0.0529905 22.8157 0.152364 22.966C0.251738 23.1162 0.393059 23.2337 0.558609 23.3036C0.724158 23.3735 0.906567 23.3927 1.08296 23.3589C1.25936 23.3251 1.4219 23.2398 1.55019 23.1135L10.097 14.5698H17.5863C21.4985 14.5698 24.6637 11.0011 24.6637 7.07861C24.6642 6.14475 24.4814 5.21995 24.126 4.35706C23.7705 3.49416 23.2493 2.71008 22.592 2.04963C21.9347 1.38918 21.1544 0.865299 20.2955 0.507927C19.4366 0.150555 18.516 -0.0333035 17.5863 -0.033142Z" fill="#0071BC"/>
<path d="M111.704 40.2918C111.411 40.2936 111.123 40.2196 110.867 40.0769C110.629 39.9528 110.425 39.7719 110.274 39.55L110.258 40.1997H109.688V34.5591H110.266V36.9207C110.408 36.6866 110.609 36.4943 110.848 36.3632C111.106 36.2115 111.399 36.1321 111.697 36.1335C112.033 36.1299 112.363 36.2228 112.648 36.4013C112.934 36.582 113.166 36.8365 113.32 37.1381C113.482 37.4712 113.567 37.837 113.567 38.2077C113.567 38.5785 113.482 38.9443 113.32 39.2774C113.168 39.578 112.938 39.8324 112.655 40.0142C112.372 40.1975 112.041 40.2939 111.704 40.2918ZM111.613 39.7416C111.865 39.7466 112.113 39.6779 112.328 39.5439C112.537 39.4101 112.707 39.2211 112.817 38.9974C112.936 38.7513 112.996 38.4803 112.992 38.2065C112.996 37.9363 112.936 37.6689 112.817 37.4267C112.706 37.2046 112.537 37.0169 112.328 36.8839C112.112 36.7537 111.864 36.6849 111.613 36.6849C111.361 36.6849 111.113 36.7537 110.897 36.8839C110.688 37.0164 110.519 37.2042 110.408 37.4267C110.292 37.6727 110.232 37.9416 110.232 38.2139C110.232 38.4862 110.292 38.7551 110.408 39.0011C110.52 39.2225 110.689 39.4099 110.897 39.5439C111.113 39.6795 111.364 39.7482 111.619 39.7416H111.613Z" fill="#31F1FF"/>
<path d="M114.919 41.973L115.597 40.3224L113.748 36.2182H114.402L115.764 39.2749C115.784 39.3203 115.805 39.3707 115.825 39.4235C115.846 39.4763 115.866 39.5328 115.885 39.5881C115.901 39.5475 115.917 39.5058 115.935 39.4652C115.954 39.4247 115.97 39.3768 115.984 39.3314L117.171 36.2207H117.834L116.228 40.2168L115.543 41.9754L114.919 41.973Z" fill="#31F1FF"/>
<path d="M120.796 40.2144V34.8649H122.903C123.169 34.8612 123.431 34.934 123.657 35.0749C123.88 35.2161 124.063 35.4123 124.189 35.6447C124.323 35.8933 124.391 36.1725 124.387 36.4553C124.392 36.7499 124.324 37.0411 124.189 37.3026C124.066 37.5427 123.883 37.746 123.657 37.8921C123.431 38.0352 123.169 38.1094 122.903 38.1058H121.399V40.2144H120.796ZM121.397 37.5126H122.933C123.085 37.514 123.234 37.4657 123.356 37.3751C123.486 37.2746 123.59 37.1434 123.657 36.9932C123.735 36.82 123.774 36.6317 123.771 36.4418C123.778 36.1842 123.691 35.933 123.526 35.7356C123.455 35.6456 123.365 35.5729 123.262 35.5231C123.159 35.4733 123.046 35.4477 122.932 35.4482H121.399L121.397 37.5126Z" fill="#31F1FF"/>
<path d="M126.778 40.2917C126.447 40.2954 126.121 40.201 125.843 40.0203C125.562 39.8374 125.333 39.5832 125.18 39.2835C125.014 38.9533 124.93 38.5875 124.936 38.2175C124.929 37.8442 125.016 37.4752 125.188 37.1442C125.344 36.8429 125.578 36.5887 125.864 36.4074C126.149 36.2289 126.479 36.136 126.815 36.1396C127.115 36.1342 127.411 36.211 127.671 36.3619C127.91 36.4975 128.108 36.6951 128.245 36.9342L128.261 36.2244H128.839V40.2205H128.254V39.5107C128.099 39.7452 127.889 39.9379 127.642 40.0719C127.378 40.2195 127.08 40.2953 126.778 40.2917ZM126.908 39.733C127.157 39.7374 127.403 39.6701 127.616 39.5389C127.824 39.4074 127.994 39.221 128.105 38.9998C128.228 38.7537 128.29 38.4809 128.284 38.2053C128.289 37.9344 128.227 37.6666 128.105 37.4254C127.994 37.2043 127.824 37.0179 127.616 36.8863C127.4 36.7592 127.155 36.6922 126.906 36.6922C126.656 36.6922 126.411 36.7592 126.196 36.8863C125.987 37.0172 125.818 37.2038 125.707 37.4254C125.588 37.6677 125.528 37.935 125.532 38.2053C125.528 38.479 125.588 38.75 125.707 38.9961C125.817 39.2193 125.986 39.4073 126.196 39.5389C126.411 39.6719 126.66 39.7393 126.913 39.733H126.908Z" fill="#31F1FF"/>
<path d="M131.256 40.2918C130.941 40.298 130.628 40.2338 130.341 40.1039C130.088 39.9908 129.867 39.816 129.698 39.5954L130.109 39.2368C130.251 39.4155 130.433 39.5578 130.641 39.6521C130.849 39.7465 131.075 39.7902 131.303 39.7796C131.514 39.7887 131.723 39.7311 131.9 39.6151C131.974 39.5655 132.034 39.4978 132.074 39.4182C132.115 39.3387 132.135 39.25 132.132 39.1607C132.132 39.0809 132.112 39.0022 132.075 38.9316C132.038 38.861 131.985 38.8005 131.919 38.7554C131.833 38.6936 131.738 38.6447 131.638 38.6105C131.516 38.5639 131.369 38.516 131.197 38.4644C130.954 38.4029 130.717 38.3207 130.489 38.2188C130.324 38.1487 130.174 38.0478 130.047 37.9216C129.893 37.7414 129.811 37.5096 129.819 37.2719C129.816 37.0625 129.879 36.8575 129.998 36.6861C130.123 36.5107 130.292 36.3713 130.488 36.2821C130.711 36.1797 130.954 36.1285 131.199 36.1323C131.484 36.1325 131.765 36.1941 132.024 36.3128C132.271 36.4185 132.493 36.576 132.675 36.7746L132.318 37.1639C132.17 37.0104 131.999 36.8815 131.812 36.7819C131.632 36.6866 131.432 36.6369 131.23 36.637C131.017 36.6264 130.808 36.6854 130.632 36.8053C130.561 36.855 130.504 36.9215 130.465 36.9988C130.426 37.0762 130.406 37.1619 130.408 37.2486C130.407 37.3194 130.422 37.3896 130.452 37.4536C130.482 37.5175 130.527 37.5735 130.583 37.617C130.675 37.6838 130.776 37.7364 130.884 37.773C131.044 37.8312 131.207 37.8812 131.373 37.9228C131.564 37.9741 131.751 38.0364 131.935 38.1095C132.076 38.1632 132.207 38.2396 132.324 38.3354C132.447 38.4268 132.546 38.5469 132.612 38.6853C132.678 38.8238 132.71 38.9765 132.704 39.13C132.707 39.3452 132.64 39.5556 132.513 39.7293C132.38 39.9102 132.202 40.0526 131.996 40.1419C131.763 40.2449 131.511 40.296 131.256 40.2918Z" fill="#31F1FF"/>
<path d="M135.266 40.2917C134.913 40.2976 134.565 40.2036 134.263 40.0203C133.969 39.8414 133.729 39.587 133.566 39.2835C133.399 38.9533 133.312 38.588 133.312 38.2175C133.312 37.847 133.399 37.4818 133.566 37.1516C133.73 36.8404 133.977 36.581 134.279 36.4022C134.581 36.2233 134.927 36.132 135.277 36.1384C135.596 36.1348 135.91 36.2055 136.197 36.3447C136.465 36.4726 136.695 36.6676 136.867 36.9109L136.532 37.3235C136.382 37.132 136.193 36.9757 135.977 36.8654C135.769 36.7515 135.536 36.6908 135.299 36.6886C135.041 36.6833 134.787 36.7523 134.566 36.8875C134.353 37.0201 134.18 37.2075 134.063 37.4303C133.938 37.6734 133.876 37.944 133.881 38.2175C133.877 38.4902 133.941 38.7597 134.067 39.001C134.184 39.2251 134.359 39.4137 134.573 39.5475C134.788 39.6807 135.036 39.7497 135.288 39.7465C135.755 39.7465 136.163 39.5373 136.511 39.1189L136.853 39.5402C136.667 39.7757 136.429 39.9641 136.158 40.0903C135.879 40.223 135.575 40.2918 135.266 40.2917Z" fill="#31F1FF"/>
<path d="M137.603 40.2144V34.5652H138.181V36.9281C138.318 36.6862 138.518 36.4866 138.759 36.3509C138.995 36.2074 139.266 36.1306 139.542 36.1286C139.999 36.1286 140.34 36.2649 140.565 36.5375C140.79 36.8102 140.903 37.2244 140.904 37.7803V40.2095H140.318V37.8245C140.318 37.0492 140.004 36.6669 139.375 36.6775C139.162 36.6742 138.951 36.7271 138.764 36.831C138.59 36.927 138.443 37.0661 138.337 37.2351C138.235 37.4003 138.181 37.5916 138.182 37.7865V40.2156L137.603 40.2144Z" fill="#31F1FF"/>
<path d="M143.75 40.2917C143.383 40.2979 143.021 40.2041 142.703 40.0203C142.4 39.844 142.149 39.5897 141.977 39.2835C141.802 38.9544 141.71 38.587 141.71 38.2138C141.71 37.8407 141.802 37.4733 141.977 37.1442C142.148 36.8372 142.399 36.5826 142.703 36.4074C143.024 36.2317 143.384 36.1397 143.75 36.1397C144.115 36.1397 144.475 36.2317 144.796 36.4074C145.099 36.582 145.349 36.8369 145.519 37.1442C145.69 37.4743 145.78 37.8413 145.78 38.2138C145.78 38.5864 145.69 38.9534 145.519 39.2835C145.348 39.59 145.099 39.8446 144.796 40.0203C144.478 40.2038 144.116 40.2975 143.75 40.2917ZM143.75 39.7416C144.011 39.7463 144.268 39.6774 144.492 39.5426C144.707 39.4105 144.881 39.2214 144.997 38.9961C145.122 38.7517 145.185 38.48 145.18 38.2053C145.185 37.9327 145.122 37.6633 144.997 37.4217C144.878 37.1945 144.698 37.0051 144.477 36.8749C144.257 36.7448 144.005 36.6789 143.75 36.6849C143.487 36.6803 143.229 36.7492 143.004 36.8838C142.788 37.0146 142.611 37.2024 142.494 37.4267C142.37 37.6675 142.307 37.9354 142.312 38.2065C142.307 38.4811 142.37 38.7527 142.494 38.9974C142.611 39.2232 142.787 39.4123 143.004 39.5438C143.229 39.6781 143.487 39.7465 143.75 39.7416Z" fill="#31F1FF"/>
<path d="M148.162 40.2917C147.83 40.2954 147.505 40.201 147.226 40.0203C146.945 39.8374 146.717 39.5832 146.564 39.2835C146.398 38.9533 146.314 38.5875 146.319 38.2175C146.313 37.8442 146.399 37.4752 146.571 37.1442C146.728 36.8429 146.961 36.5887 147.247 36.4074C147.532 36.2289 147.862 36.136 148.198 36.1396C148.498 36.1346 148.794 36.2114 149.054 36.3619C149.293 36.4978 149.491 36.6954 149.628 36.9342L149.643 36.2244H150.222V40.2205H149.64V39.5107C149.485 39.7452 149.275 39.9379 149.029 40.0719C148.764 40.2199 148.465 40.2957 148.162 40.2917ZM148.291 39.733C148.541 39.7374 148.786 39.6701 148.999 39.5389C149.208 39.4074 149.377 39.2209 149.488 38.9998C149.612 38.7537 149.674 38.4809 149.668 38.2053C149.673 37.9344 149.611 37.6666 149.488 37.4254C149.377 37.2043 149.208 37.0179 148.999 36.8863C148.784 36.7592 148.539 36.6922 148.289 36.6922C148.04 36.6922 147.795 36.7592 147.58 36.8863C147.37 37.0172 147.201 37.2038 147.091 37.4254C146.971 37.6676 146.911 37.935 146.916 38.2053C146.911 38.479 146.971 38.75 147.091 38.9961C147.2 39.2193 147.37 39.4073 147.58 39.5389C147.795 39.6717 148.043 39.7391 148.295 39.733H148.291Z" fill="#31F1FF"/>
<path d="M151.343 40.2144V34.5652H151.921V40.2144H151.343Z" fill="#31F1FF"/>
<path d="M154.728 40.2917C154.361 40.2979 154 40.2041 153.682 40.0203C153.379 39.844 153.128 39.5897 152.955 39.2835C152.78 38.9544 152.689 38.587 152.689 38.2138C152.689 37.8407 152.78 37.4733 152.955 37.1442C153.127 36.8372 153.378 36.5826 153.682 36.4074C154.003 36.2317 154.362 36.1397 154.728 36.1397C155.094 36.1397 155.453 36.2317 155.775 36.4074C156.078 36.582 156.328 36.8369 156.497 37.1442C156.67 37.4741 156.76 37.8412 156.76 38.2138C156.76 38.5865 156.67 38.9536 156.497 39.2835C156.327 39.59 156.077 39.8446 155.775 40.0203C155.456 40.2039 155.095 40.2977 154.728 40.2917ZM154.728 39.7416C154.985 39.7478 155.238 39.6812 155.459 39.5493C155.68 39.4175 155.859 39.2257 155.976 38.9961C156.1 38.7514 156.163 38.4799 156.158 38.2053C156.164 37.9329 156.101 37.6636 155.976 37.4217C155.881 37.2539 155.754 37.1067 155.603 36.9886C155.451 36.8705 155.277 36.7839 155.091 36.7337C154.906 36.6836 154.712 36.6709 154.522 36.6965C154.332 36.722 154.148 36.7853 153.982 36.8826C153.766 37.0134 153.59 37.2011 153.472 37.4254C153.348 37.6662 153.286 37.9342 153.29 38.2053C153.286 38.4799 153.348 38.7514 153.472 38.9961C153.589 39.222 153.766 39.4111 153.982 39.5426C154.208 39.6773 154.466 39.7461 154.728 39.7416Z" fill="#31F1FF"/>
<path d="M158.136 40.2144V36.7758H157.246V36.2182H158.136V35.178H158.715V36.2182H159.711V36.7758H158.715V40.2144H158.136Z" fill="#31F1FF"/>
<path d="M160.967 40.2144V36.7758H160.077V36.2182H160.967V35.178H161.545V36.2182H162.541V36.7758H161.545V40.2144H160.967Z" fill="#31F1FF"/>
<path d="M164.968 40.2917C164.602 40.2977 164.24 40.204 163.923 40.0203C163.62 39.8437 163.369 39.5895 163.195 39.2835C163.021 38.9541 162.93 38.5868 162.93 38.2139C162.93 37.8409 163.021 37.4736 163.195 37.1442C163.368 36.8376 163.619 36.5831 163.923 36.4074C164.244 36.2317 164.603 36.1397 164.969 36.1397C165.334 36.1397 165.694 36.2317 166.015 36.4074C166.318 36.582 166.568 36.8369 166.737 37.1442C166.91 37.4741 167 37.8412 167 38.2139C167 38.5865 166.91 38.9536 166.737 39.2835C166.567 39.59 166.317 39.8446 166.015 40.0203C165.697 40.2041 165.335 40.2979 164.968 40.2917ZM164.968 39.7416C165.225 39.7478 165.478 39.6812 165.699 39.5493C165.92 39.4175 166.099 39.2257 166.216 38.9961C166.341 38.7516 166.404 38.4799 166.398 38.2053C166.404 37.9329 166.342 37.6634 166.216 37.4217C166.122 37.254 165.995 37.1068 165.843 36.9887C165.691 36.8706 165.517 36.784 165.332 36.7338C165.147 36.6837 164.953 36.671 164.763 36.6965C164.573 36.7221 164.389 36.7853 164.224 36.8826C164.007 37.013 163.83 37.2008 163.713 37.4254C163.588 37.6662 163.526 37.9342 163.53 38.2053C163.526 38.4799 163.588 38.7514 163.713 38.9961C163.829 39.2223 164.006 39.4115 164.224 39.5426C164.448 39.6772 164.706 39.7461 164.968 39.7416Z" fill="#31F1FF"/>
</g>
<defs>
<clipPath id="clip0_9099_98043">
<rect width="167" height="42" fill="white"/>
</clipPath>
</defs>
</svg>
