<svg viewBox="0 0 411 104" fill="none" xmlns="http://www.w3.org/2000/svg">
  <defs>
    <clipPath id="prefix__a">
      <path fill="#fff" transform="translate(0 .5)" d="M0 0h410.34v102.735H0z" />
    </clipPath>
  </defs>
  <g clip-path="url(#prefix__a)" transform="translate(-11.867)">
    <path
      d="M46.908 75.614c-5.305 0-9.983-1.142-14.032-3.425a24.844 24.844 0 01-9.543-9.465c-2.309-4.025-3.464-8.64-3.464-13.845a27.478 27.478 0 012.028-10.682 24.725 24.725 0 015.743-8.432 26.516 26.516 0 018.766-5.561 29.698 29.698 0 0111.009-1.988c3.628-.001 7.22.714 10.571 2.102a22.497 22.497 0 018.586 6.071l-8.111 9.207a15.899 15.899 0 00-4.825-3.754 13.704 13.704 0 00-6.272-1.397 14.055 14.055 0 00-7.035 1.766 13.216 13.216 0 00-5.008 5.047c-1.251 2.185-1.877 4.775-1.877 7.771 0 4.372 1.375 7.857 4.124 10.457 2.75 2.599 6.384 3.901 10.902 3.905 2.2.013 4.376-.466 6.368-1.4a15.32 15.32 0 004.972-3.605l6.41 10.094a17.373 17.373 0 01-4.935 3.682 30.437 30.437 0 01-6.828 2.536c-2.47.611-5.005.919-7.549.916zM74.307 75.614V22.237h23.43c3.385 0 6.417.712 9.096 2.135a16.397 16.397 0 016.318 5.867c1.547 2.478 2.322 4.806 2.322 7.934 0 3.484-.847 6.565-2.542 9.243a16.825 16.825 0 01-6.812 6.149l12.241 22.076h-15.095L92.423 55.394h-5.524v20.22H74.307zm12.592-31.079h9.43c1.914 0 3.416-.59 4.506-1.769 1.089-1.18 1.63-2.751 1.622-4.714 0-1.916-.614-3.45-1.842-4.602-1.227-1.151-2.946-1.729-5.155-1.733h-8.561v12.818zM126.082 75.629V22.237h11.715l14.51 23.494 14.656-23.494h11.268v53.392h-12.887V58.545c0-2.747.049-5.325.147-7.732.098-2.407.245-4.715.442-6.924l-11.491 17.75h-4.863l-11.115-17.528c.201 2.061.336 4.27.406 6.627s.107 4.961.111 7.81v17.081h-12.899zM192.518 75.629V22.237h31.448v3.682H196.2V46.1h24.158v3.683H196.2v25.834l-3.682.012zM247.166 75.614c-3.3.052-6.545-.843-9.352-2.577a18.295 18.295 0 01-6.518-7.072c-1.602-3.004-2.403-6.416-2.403-10.237 0-3.877.822-7.315 2.466-10.313a18.883 18.883 0 016.609-7.071 17.01 17.01 0 019.204-2.577 17.216 17.216 0 018.84 2.322 15.767 15.767 0 016.038 6.074l.301-6.08h3.535v37.531h-3.683v-8.69a16.317 16.317 0 01-6.085 6.272 16.983 16.983 0 01-8.952 2.418zm.516-3.683a13.91 13.91 0 007.549-2.103 14.98 14.98 0 005.305-5.743c1.3-2.429 1.95-5.241 1.95-8.435 0-3.142-.638-5.929-1.914-8.36a14.713 14.713 0 00-5.266-5.744 15.014 15.014 0 00-15.32 0 14.7 14.7 0 00-5.266 5.744c-1.275 2.431-1.914 5.218-1.916 8.36a18.047 18.047 0 001.88 8.324 14.607 14.607 0 005.227 5.818c2.235 1.426 4.825 2.139 7.771 2.139zm-2.959-40.73l-1.547-2.283 8.078-6.895 2.43 3.305-8.961 5.873zM292.684 75.614c-3.682 0-6.96-.859-9.831-2.577a18.368 18.368 0 01-6.777-7.072c-1.647-3.004-2.469-6.441-2.467-10.312.002-3.871.824-7.308 2.467-10.31a18.018 18.018 0 016.813-7.035c2.895-1.694 6.235-2.541 10.018-2.541a19.73 19.73 0 018.579 1.841 17.687 17.687 0 016.444 5.155l-2.356 2.875a16.946 16.946 0 00-5.818-4.566 16.344 16.344 0 00-7.147-1.623 14.383 14.383 0 00-7.732 2.103 15.141 15.141 0 00-5.377 5.744c-1.326 2.431-1.988 5.218-1.988 8.36 0 3.142.65 5.946 1.952 8.411a14.785 14.785 0 005.338 5.782 14.113 14.113 0 007.588 2.103c2.45.001 4.867-.553 7.071-1.622a17.682 17.682 0 005.891-4.566l2.358 2.875a18.055 18.055 0 01-6.666 5.155 19.87 19.87 0 01-8.36 1.82zM316.768 28.83c-2.259 0-3.388-1.101-3.386-3.304a3.303 3.303 0 01.883-2.403c.589-.613 1.423-.919 2.503-.919 2.259 0 3.388 1.101 3.388 3.304a3.312 3.312 0 01-.883 2.403c-.589.613-1.424.919-2.505.919zm-1.842 46.784V36.563h3.695v39.051h-3.695zM329.656 75.614V22.237h3.683v53.377h-3.683z"
      fill="#0071BC" />
    <path
      d="M197.471 99.057a4.197 4.197 0 01-2.058-.526 4.017 4.017 0 01-1.457-1.289l-.039 1.589h-1.399V85.034h1.42v5.777a3.813 3.813 0 011.43-1.364 4.085 4.085 0 012.085-.562 4.335 4.335 0 012.337.655 4.632 4.632 0 011.652 1.803 5.944 5.944 0 010 5.232 4.636 4.636 0 01-1.634 1.803 4.275 4.275 0 01-2.337.679zm-.225-1.346c.62.012 1.23-.156 1.757-.484a3.338 3.338 0 001.202-1.336c.293-.603.44-1.265.429-1.935a4.15 4.15 0 00-.429-1.908 3.35 3.35 0 00-1.202-1.327 3.41 3.41 0 00-3.515 0c-.514.324-.93.783-1.201 1.327a4.488 4.488 0 000 3.851c.275.542.69 1 1.201 1.328.531.332 1.147.5 1.773.484h-.015zM205.372 103.169l1.664-4.037-4.542-10.039h1.607l3.347 7.476c.048.112.099.235.15.364.051.129.099.267.147.402.039-.099.078-.201.123-.3.045-.099.084-.216.12-.328l2.917-7.608h1.628l-3.947 9.774-1.682 4.302-1.532-.006zM219.812 98.868V85.782h5.176a3.428 3.428 0 011.854.514c.547.345.997.825 1.306 1.394.33.608.498 1.291.487 1.982a4.343 4.343 0 01-.487 2.073 3.754 3.754 0 01-1.306 1.442 3.387 3.387 0 01-1.854.523h-3.695v5.158h-1.481zm1.475-6.609h3.776c.374.003.739-.115 1.04-.337.319-.245.573-.566.739-.934.191-.423.286-.884.279-1.349a2.575 2.575 0 00-.601-1.727 1.855 1.855 0 00-1.46-.703h-3.767l-.006 5.05zM234.51 99.057a4.154 4.154 0 01-2.298-.664 4.695 4.695 0 01-1.628-1.803 5.588 5.588 0 01-.601-2.607 5.459 5.459 0 01.619-2.625 4.714 4.714 0 011.661-1.803 4.337 4.337 0 012.337-.655 4.057 4.057 0 012.103.544 3.765 3.765 0 011.412 1.4l.039-1.736h1.421v9.775h-1.439v-1.737a4.203 4.203 0 01-1.502 1.373 4.274 4.274 0 01-2.124.538zm.319-1.367a3.214 3.214 0 001.739-.475 3.332 3.332 0 001.202-1.318c.304-.602.455-1.27.441-1.944a4.03 4.03 0 00-.441-1.907 3.321 3.321 0 00-1.202-1.319 3.441 3.441 0 00-3.488 0c-.514.32-.93.776-1.201 1.319a4.145 4.145 0 00-.43 1.907c-.011.67.136 1.332.43 1.934a3.267 3.267 0 001.201 1.328c.529.325 1.14.49 1.761.475h-.012zM245.514 99.057a5.233 5.233 0 01-2.25-.46 4.097 4.097 0 01-1.58-1.243l1.009-.878a3.554 3.554 0 002.935 1.328 2.496 2.496 0 001.466-.402 1.287 1.287 0 00.57-1.112 1.202 1.202 0 00-.522-.991 2.66 2.66 0 00-.691-.355 15.985 15.985 0 00-1.085-.357 10.932 10.932 0 01-1.739-.601 3.455 3.455 0 01-1.084-.727 2.324 2.324 0 01-.562-1.589 2.425 2.425 0 01.442-1.433c.306-.429.721-.77 1.201-.988a4.054 4.054 0 011.748-.367c.7.001 1.392.152 2.028.442a4.637 4.637 0 011.598 1.129l-.877.953a4.906 4.906 0 00-1.244-.935 3.054 3.054 0 00-1.429-.354 2.402 2.402 0 00-1.469.411 1.295 1.295 0 00-.55 1.085 1.112 1.112 0 00.429.901c.226.163.475.292.739.382.394.142.796.264 1.202.366.469.126.93.278 1.382.457.346.131.669.318.955.552a2.298 2.298 0 01.934 1.944 2.426 2.426 0 01-.468 1.466 3.114 3.114 0 01-1.271 1.009 4.335 4.335 0 01-1.817.367zM255.366 99.057a4.632 4.632 0 01-2.466-.664 4.747 4.747 0 01-1.713-1.803 5.759 5.759 0 010-5.215 4.673 4.673 0 014.206-2.478 5.061 5.061 0 012.259.505c.658.313 1.225.79 1.646 1.385l-.823 1.009a4.085 4.085 0 00-1.364-1.12 3.535 3.535 0 00-1.664-.433 3.326 3.326 0 00-1.802.487c-.523.324-.95.782-1.235 1.327a4.03 4.03 0 00-.448 1.926 3.968 3.968 0 00.457 1.916c.288.549.718 1.01 1.244 1.337a3.261 3.261 0 001.757.487c1.147 0 2.149-.512 3.004-1.535l.841 1.03a4.708 4.708 0 01-1.709 1.346 5.108 5.108 0 01-2.19.493zM261.107 98.868V85.049h1.421v5.78a3.72 3.72 0 011.421-1.412 3.77 3.77 0 011.923-.544c1.123 0 1.961.334 2.514 1.001.553.666.83 1.68.832 3.04v5.942h-1.439v-5.834c0-1.897-.772-2.832-2.316-2.806a2.998 2.998 0 00-1.502.376 2.847 2.847 0 00-1.048.988 2.511 2.511 0 00-.382 1.349v5.942l-1.424-.003zM276.21 99.057a4.988 4.988 0 01-2.572-.664 4.843 4.843 0 01-1.784-1.802 5.558 5.558 0 010-5.233 4.773 4.773 0 011.784-1.803 5.384 5.384 0 015.143 0 4.703 4.703 0 011.776 1.803 5.646 5.646 0 010 5.233 4.771 4.771 0 01-1.776 1.802 5.006 5.006 0 01-2.571.664zm0-1.346a3.42 3.42 0 001.823-.487 3.367 3.367 0 001.241-1.336 4.079 4.079 0 00.45-1.935 3.95 3.95 0 00-.45-1.916 3.38 3.38 0 00-3.064-1.803 3.388 3.388 0 00-3.085 1.815 4.002 4.002 0 00-.448 1.907 4.115 4.115 0 00.448 1.935c.286.552.72 1.015 1.252 1.336a3.463 3.463 0 001.833.484zM287.051 99.057a4.162 4.162 0 01-2.298-.664 4.695 4.695 0 01-1.628-1.803 5.588 5.588 0 01-.601-2.607 5.465 5.465 0 01.619-2.626 4.718 4.718 0 011.661-1.802 4.337 4.337 0 012.337-.655 4.079 4.079 0 012.103.544 3.771 3.771 0 011.409 1.4l.039-1.737h1.421v9.775h-1.43v-1.736a4.203 4.203 0 01-1.502 1.373 4.275 4.275 0 01-2.13.538zm.319-1.367a3.214 3.214 0 001.739-.475 3.328 3.328 0 001.202-1.319 4.117 4.117 0 00.441-1.943 4.038 4.038 0 00-.441-1.908 3.319 3.319 0 00-1.202-1.318 3.441 3.441 0 00-3.488 0c-.514.32-.93.776-1.201 1.318a4.152 4.152 0 00-.43 1.908c-.011.67.136 1.332.43 1.934a3.267 3.267 0 001.201 1.328c.528.325 1.138.49 1.758.475h-.009zM294.869 98.868V85.049h1.421v13.819h-1.421zM303.186 99.057a4.984 4.984 0 01-2.571-.664 4.828 4.828 0 01-1.784-1.802 5.558 5.558 0 010-5.233 4.766 4.766 0 011.784-1.803 5.383 5.383 0 015.143 0 4.708 4.708 0 011.775 1.803 5.626 5.626 0 010 5.233 4.776 4.776 0 01-1.775 1.802 5.007 5.007 0 01-2.572.664zm0-1.346a3.361 3.361 0 003.067-1.823 4.103 4.103 0 00.448-1.935 3.988 3.988 0 00-.448-1.916 3.564 3.564 0 00-4.899-1.319c-.531.32-.964.779-1.253 1.328a4.013 4.013 0 00-.447 1.907 4.114 4.114 0 00.447 1.935c.287.552.72 1.015 1.253 1.336.554.33 1.188.498 1.832.487zM311.562 98.868v-8.411h-2.187v-1.364h2.187v-2.545h1.421v2.545h2.448v1.364h-2.448v8.411h-1.421zM318.515 98.868v-8.411h-2.187v-1.364h2.187v-2.545h1.421v2.545h2.448v1.364h-2.448v8.411h-1.421zM328.347 99.057a4.993 4.993 0 01-2.568-.664 4.863 4.863 0 01-1.788-1.803 5.586 5.586 0 010-5.233 4.81 4.81 0 011.788-1.802 5.366 5.366 0 015.14 0 4.705 4.705 0 011.775 1.802 5.627 5.627 0 010 5.233 4.771 4.771 0 01-1.775 1.803 4.997 4.997 0 01-2.572.664zm0-1.346a3.361 3.361 0 003.067-1.824 4.061 4.061 0 00.448-1.934 3.97 3.97 0 00-.448-1.917 3.555 3.555 0 00-2.172-1.682 3.57 3.57 0 00-1.399-.092 3.573 3.573 0 00-1.325.456 3.382 3.382 0 00-1.256 1.327 4.005 4.005 0 00-.447 1.908 4.096 4.096 0 00.447 1.934 3.367 3.367 0 001.256 1.337 3.459 3.459 0 001.829.487z"
      fill="#31F1FF" />
  </g>
</svg>
